<?xml version="1.0" standalone="no"?>
<!DOCTYPE svg PUBLIC "-//W3C//DTD SVG 1.1//EN" "http://www.w3.org/Graphics/SVG/1.1/DTD/svg11.dtd" >
<svg xmlns="http://www.w3.org/2000/svg" xmlns:xlink="http://www.w3.org/1999/xlink" version="1.1">
<metadata>
Created by FontForge 20170731 at Fri Sep 28 17:29:48 2012
 By Aleksey,,,
</metadata>
<defs>
<font id="THELuxGoL" horiz-adv-x="800" >
  <font-face 
    font-family="THELuxGoL"
    font-weight="400"
    font-stretch="normal"
    units-per-em="1000"
    panose-1="2 2 6 3 2 1 1 2 1 1"
    ascent="858"
    descent="-142"
    x-height="523"
    cap-height="745"
    bbox="-6 -215 966 896"
    underline-thickness="25"
    underline-position="-178"
    unicode-range="U+0020-FFE6"
  />
<missing-glyph horiz-adv-x="1000" 
d="M100 -42v800h800v-800h-800zM150 8h700v700h-700v-700z" />
    <glyph glyph-name=".notdef" horiz-adv-x="1000" 
d="M100 -42v800h800v-800h-800zM150 8h700v700h-700v-700z" />
    <glyph glyph-name="glyph1" horiz-adv-x="0" 
 />
    <glyph glyph-name="glyph2" horiz-adv-x="1000" 
 />
    <glyph glyph-name="space" unicode=" " horiz-adv-x="312" 
 />
    <glyph glyph-name="exclam" unicode="!" horiz-adv-x="389" 
d="M191 239h-31l53 474h55zM131 102h56l-11 -69h-57z" />
    <glyph glyph-name="quotedbl" unicode="&#x22;" horiz-adv-x="515" 
d="M168 807h46l-10 -223h-26zM300 806h46l-10 -223h-26z" />
    <glyph glyph-name="numbersign" unicode="#" horiz-adv-x="556" 
d="M145 251h-99v30h103q1 9 26 186h-100v30h106l28 216h29l-31 -216h172l29 216h29l-31 -216h104v-30h-108l-26 -186h104v-30h-109l-31 -218h-27l32 218h-172l-32 -218h-27zM374 467h-171q-2 -9 -26 -186h172z" />
    <glyph glyph-name="dollar" unicode="$" horiz-adv-x="556" 
d="M260 24q-46 -4 -86.5 1.5t-79.5 16.5l6 37q26 -9 65.5 -16t94.5 -6v311q-29 15 -60 31.5t-56 38.5q-26 21 -42.5 49t-16.5 66q0 36 13 65t36 51t55 37t71 22v99h32v-97q38 2 74 -4t68 -16l-6 -37q-26 8 -59.5 14t-76.5 6v-275q31 -15 63 -33.5t59 -42.5
q26 -25 42.5 -56.5t16.5 -72.5t-13.5 -73t-37.5 -55q-25 -23 -58 -38t-72 -23v-103h-32v103zM431 207q0 22 -11.5 42.5t-30.5 39.5t-44.5 36.5t-52.5 34.5v-301q29 6 54.5 20t44.5 34q18 20 29 44t11 50zM127 563q0 -19 10.5 -37t28.5 -34q18 -17 42.5 -33t51.5 -31v264
q-21 -3 -44.5 -15t-42.5 -29q-20 -18 -33 -40t-13 -45z" />
    <glyph glyph-name="percent" unicode="%" horiz-adv-x="899" 
d="M613 721h39l-416 -706h-38zM101 573q0 60 32 95t92 35t92.5 -35t32.5 -95q0 -28 -9.5 -51.5t-25.5 -40.5q-17 -18 -40 -28t-50 -10q-28 0 -51 10.5t-39 28.5t-25 41.5t-9 49.5zM133 573q0 -45 25 -71.5t67 -26.5q45 0 69 28t24 70q0 19 -5.5 36.5t-16.5 31.5
q-12 13 -29.5 21t-41.5 8t-41 -8t-28 -21q-12 -14 -17.5 -31.5t-5.5 -36.5zM500 163q0 60 32 95t92 35t92.5 -35t32.5 -95q0 -28 -9.5 -51.5t-25.5 -40.5q-17 -18 -40 -28t-50 -10q-28 0 -51 10.5t-39 28.5t-25 41.5t-9 49.5zM532 163q0 -45 25 -71.5t67 -26.5q45 0 69 28
t24 70q0 19 -5.5 36.5t-16.5 31.5q-12 13 -29.5 21t-41.5 8t-41 -8t-28 -21q-12 -14 -17.5 -31.5t-5.5 -36.5z" />
    <glyph glyph-name="ampersand" unicode="&#x26;" horiz-adv-x="722" 
d="M628 377q-9 -75 -34 -128.5t-54 -100.5q22 -26 45.5 -55t51.5 -60h-44l-74 88q-42 -47 -91 -74t-123 -27q-48 0 -86 13t-65 37q-27 23 -41 56t-14 74q0 36 13.5 66t37.5 55t57.5 45t73.5 37q-17 21 -33.5 42.5t-29.5 44.5q-14 22 -22.5 44.5t-8.5 46.5q0 38 12.5 65.5
t34.5 45.5t51.5 27t62.5 9q30 0 57.5 -8.5t48.5 -25.5q20 -18 32 -44t12 -62q0 -29 -15.5 -56t-39.5 -50q-25 -23 -56.5 -42t-63.5 -33l197 -240q34 51 51 102t23 108h34zM137 206q0 -35 13 -64.5t37 -50.5q24 -22 58 -34t77 -12q26 0 52 9t50 24q23 14 42 32t32 36
q-53 60 -103 121.5t-102 122.5q-29 -16 -57 -34t-50 -40t-35.5 -49t-13.5 -61zM219 581q0 -21 9 -42t23 -41q13 -20 30 -39t32 -35q22 10 49 26t51 37q23 20 38.5 44.5t15.5 53.5q0 32 -10 54.5t-26 36.5q-17 14 -39.5 20.5t-47.5 6.5q-24 0 -46.5 -8t-39.5 -23
q-18 -15 -28.5 -38t-10.5 -53z" />
    <glyph glyph-name="quotesingle" unicode="'" horiz-adv-x="280" 
d="M117 807h46l-10 -223h-26z" />
    <glyph glyph-name="parenleft" unicode="(" horiz-adv-x="333" 
d="M249 -92q-34 51 -62.5 103.5t-49.5 107.5q-21 54 -33 112.5t-12 121.5q0 64 12 122.5t33 113.5q21 54 49.5 106t62.5 103h25q-29 -53 -54.5 -106.5t-44.5 -108.5q-20 -56 -31.5 -113t-11.5 -117q0 -57 11.5 -115t31.5 -114q19 -56 45 -110.5t54 -105.5h-25z" />
    <glyph glyph-name="parenright" unicode=")" horiz-adv-x="333" 
d="M56 -92q28 51 54 105.5t46 110.5q19 56 30.5 114t11.5 115q0 58 -11.5 115.5t-30.5 113.5q-20 56 -46 110.5t-54 105.5h25q34 -51 62.5 -103t49.5 -106q21 -55 33 -113.5t12 -122.5q0 -63 -12 -121.5t-33 -112.5q-21 -55 -49.5 -107.5t-62.5 -103.5h-25z" />
    <glyph glyph-name="asterisk" unicode="*" horiz-adv-x="556" 
d="M289 556l154 62l13 -39l-160 -44l110 -132l-33 -24l-96 146l-91 -144l-33 24l106 131l-161 41l13 39l156 -60l-11 172h41z" />
    <glyph glyph-name="plus" unicode="+" horiz-adv-x="600" 
d="M65 370h215v218h41v-218h214v-42h-214v-220h-41v220h-215v42z" />
    <glyph glyph-name="comma" unicode="," horiz-adv-x="250" 
d="M91 120h47l-77 -206h-21z" />
    <glyph glyph-name="hyphen" unicode="-" horiz-adv-x="550" 
d="M66 365h418v-42h-418v42z" />
    <glyph glyph-name="period" unicode="." horiz-adv-x="250" 
d="M134 42h-64v80h64v-80z" />
    <glyph glyph-name="slash" unicode="/" horiz-adv-x="310" 
d="M260 734h27l-237 -702h-26z" />
    <glyph glyph-name="zero" unicode="0" horiz-adv-x="570" 
d="M55 373q0 56 10.5 118t36.5 115q26 52 70.5 86t112.5 34t112.5 -34t70.5 -86q26 -53 36.5 -115t10.5 -118t-10.5 -118t-36.5 -114q-26 -53 -70.5 -87t-112.5 -34t-112.5 34t-70.5 87q-26 52 -36.5 114t-10.5 118zM97 373q0 -25 2.5 -58t10.5 -68q7 -36 20.5 -70t34.5 -61
t50.5 -43.5t69.5 -16.5t69.5 16.5t50.5 43.5t34.5 61t21.5 70q7 35 9.5 68t2.5 58t-3 58.5t-11 68.5q-9 35 -22.5 69t-34.5 61t-50 43.5t-67 16.5t-67 -16.5t-50 -43.5t-34.5 -61t-21.5 -69q-9 -35 -12 -68.5t-3 -58.5z" />
    <glyph glyph-name="one" unicode="1" horiz-adv-x="520" 
d="M274 33q2 21 2.5 40.5t0.5 42.5v561l-139 -116l-22 29l156 124h49q-2 -20 -2 -39v-602q0 -19 2 -40h-47z" />
    <glyph glyph-name="two" unicode="2" horiz-adv-x="525" 
d="M56 84q23 19 58.5 48.5t75.5 66.5q40 36 80 78.5t73 87.5q32 45 52.5 91.5t20.5 91.5q0 31 -14 57t-38 45t-56.5 29.5t-69.5 10.5q-42 0 -81 -9.5t-71 -21.5l-4 35q40 16 84 23.5t86 7.5q43 0 81 -11.5t66 -34.5t44 -57t16 -80q0 -34 -10 -68t-28 -67q-18 -34 -42 -66.5
t-52 -62.5t-58 -58t-59 -54q-30 -26 -57.5 -50t-50.5 -48h310q13 0 30 0.5t27 2.5v-41q-14 2 -29 2h-22h-362v52z" />
    <glyph glyph-name="three" unicode="3" horiz-adv-x="520" 
d="M183 371h-20t-17 -1v37h43q34 1 72.5 7.5t71.5 23.5q32 16 53.5 43.5t21.5 69.5q0 40 -14 67t-38 43t-57.5 22.5t-72.5 6.5q-43 0 -78 -6t-67 -18l-3 36q35 10 79.5 17t82.5 7q43 0 80.5 -10t66.5 -31q28 -21 44.5 -53.5t16.5 -77.5q0 -36 -12.5 -62.5t-33.5 -45.5
q-22 -20 -50.5 -34.5t-60.5 -25.5q33 -5 63 -20t54 -38q23 -24 37 -55.5t14 -69.5q0 -53 -23.5 -88t-61.5 -56q-39 -21 -87.5 -30t-98.5 -9q-33 0 -69.5 6t-67.5 14l2 40q29 -11 63.5 -17.5t70.5 -6.5q44 0 85.5 6t73.5 23q32 16 51.5 45.5t19.5 75.5q0 48 -21 80t-55 51
q-34 18 -75.5 26t-82.5 8z" />
    <glyph glyph-name="four" unicode="4" horiz-adv-x="560" 
d="M34 199v56l333 458h65q-1 -14 -1.5 -23.5t-0.5 -18.5t0.5 -18.5t0.5 -22.5v-396h59q8 0 19.5 0.5t16.5 1.5v-39q-7 1 -19 1.5t-21 0.5h-55v-83v-42t2 -41h-44q2 19 2 44v39v83h-357zM391 677l-3 2l-326 -445h329v443z" />
    <glyph glyph-name="five" unicode="5" horiz-adv-x="525" 
d="M197 409q-34 0 -61.5 -3.5t-50.5 -10.5q5 81 8.5 159t5.5 159h287h29t28 2v-36q-16 1 -29.5 1h-21.5h-259q-1 -23 -2.5 -53t-2.5 -63q-2 -33 -4 -67.5t-3 -67.5q27 8 63.5 11.5t65.5 3.5q45 0 84.5 -15t68.5 -42q28 -27 44.5 -64t16.5 -81q0 -54 -20 -95.5t-54 -69.5
q-35 -28 -81.5 -42.5t-100.5 -14.5q-43 0 -77.5 5t-57.5 11l3 40q27 -11 58 -15.5t69 -4.5q42 0 81.5 9.5t70.5 30.5q30 21 48.5 53t18.5 77q0 51 -17 86t-47 57q-30 21 -71 30.5t-90 9.5z" />
    <glyph glyph-name="six" unicode="6" horiz-adv-x="550" 
d="M449 670q-26 9 -56.5 14.5t-59.5 5.5q-59 0 -102.5 -29.5t-71.5 -78.5q-29 -50 -43.5 -115t-15.5 -135q22 34 48.5 56t52.5 34t51 16.5t45 4.5q46 0 82.5 -15.5t62.5 -43.5q25 -28 38.5 -65.5t13.5 -80.5q0 -51 -16.5 -91.5t-44.5 -68.5q-29 -28 -67.5 -43t-83.5 -15
q-68 0 -110.5 29.5t-67.5 76.5q-25 46 -34 104.5t-9 116.5q0 70 12 138t43 122q30 53 81.5 86t129.5 33q13 0 30 -1.5t35 -4.5t35 -6.5t30 -6.5zM452 235q0 30 -10 61t-31 56t-53 40.5t-75 15.5q-40 0 -71.5 -14t-53.5 -37q-23 -24 -35 -55.5t-12 -66.5q0 -31 10.5 -63
t31.5 -57q21 -26 52 -42.5t71 -16.5q43 0 76 15t56 40q22 25 33 57.5t11 66.5z" />
    <glyph glyph-name="seven" unicode="7" horiz-adv-x="520" 
d="M460 660q-68 -159 -136 -314t-136 -313h-45l285 647h-330h-28t-24 -2v37q12 -2 30 -2h27h357v-53z" />
    <glyph glyph-name="eight" unicode="8" horiz-adv-x="551" 
d="M275 20q-41 0 -80.5 11t-70.5 34q-32 22 -51.5 55.5t-19.5 77.5q0 31 15 59.5t42 53.5q27 24 63 44.5t78 37.5q-52 20 -86.5 42t-55.5 46q-21 23 -29.5 47t-8.5 48q0 30 14.5 57t41.5 48t65.5 33t87.5 12q47 0 84 -12.5t63 -31.5q25 -20 38.5 -45.5t13.5 -50.5
q0 -27 -8 -52t-27 -49t-50 -47.5t-77 -48.5q39 -14 72.5 -32.5t58.5 -41.5q24 -24 38 -52t14 -60q0 -48 -17.5 -83t-48.5 -57t-72 -32.5t-87 -10.5zM458 193q1 36 -12 61t-33 44q-20 18 -44.5 31t-47.5 24q-15 8 -26 13t-28 13q-14 -5 -33 -15.5t-36 -19.5
q-19 -12 -37.5 -25t-32.5 -29q-15 -17 -24 -37.5t-9 -48.5q0 -37 17 -65t45 -46q27 -19 60.5 -28t66.5 -9q32 0 63 8.5t55 25.5t39 42.5t17 60.5zM109 562q0 -47 48.5 -83t137.5 -77q39 29 66 51.5t44 41.5q16 19 23 37.5t7 39.5q0 33 -16.5 56t-40.5 37q-25 13 -53.5 19
t-52.5 6q-22 0 -50 -8t-53 -23q-25 -16 -42.5 -40t-17.5 -57z" />
    <glyph glyph-name="nine" unicode="9" horiz-adv-x="556" 
d="M101 76q26 -9 56.5 -14.5t59.5 -5.5q58 0 102 24.5t73 71.5q28 46 42.5 112t14.5 149q-20 -35 -45.5 -56.5t-52.5 -33.5t-52.5 -16t-45.5 -4q-46 0 -82.5 15.5t-61.5 43.5q-26 28 -39.5 65t-13.5 81q0 51 16.5 91.5t45.5 68.5q28 28 66.5 43t83.5 15q71 0 114.5 -28
t67.5 -74q23 -46 31 -105t8 -120q0 -71 -12 -139t-42 -121q-31 -54 -82.5 -86.5t-129.5 -32.5q-13 0 -30 1.5t-35 4.5t-35 6.5t-30 6.5zM98 511q0 -30 10 -61t31 -56t52.5 -40.5t75.5 -15.5q40 0 71.5 14t54.5 38q22 23 34 54.5t12 66.5q0 33 -10.5 65t-31.5 58
q-21 25 -52 40.5t-71 15.5q-44 0 -76.5 -15t-54.5 -40q-23 -25 -34 -57.5t-11 -66.5z" />
    <glyph glyph-name="colon" unicode=":" horiz-adv-x="280" 
d="M170 486h-60v72h60v-72zM110 180h60v-72h-60v72z" />
    <glyph glyph-name="semicolon" unicode=";" horiz-adv-x="275" 
d="M107 183h52l-73 -208h-33zM172 490h-61v71h61v-71z" />
    <glyph glyph-name="less" unicode="&#x3c;" horiz-adv-x="600" 
d="M535 509l-448 -196q49 -22 448 -196v-35l-470 207v48l470 208v-36z" />
    <glyph glyph-name="equal" unicode="=" horiz-adv-x="600" 
d="M65 483h470v-42h-470v42zM65 255h470v-42h-470v42z" />
    <glyph glyph-name="greater" unicode="&#x3e;" horiz-adv-x="600" 
d="M65 545l470 -208v-48l-470 -207v35l449 196l-449 196v36z" />
    <glyph glyph-name="question" unicode="?" horiz-adv-x="500" 
d="M352 396q-14 -17 -28.5 -35t-26.5 -38q-13 -20 -21 -41.5t-8 -44.5h-37q-1 26 6.5 49t20.5 44q13 20 29 39l32 38q13 15 26 32t24 35q10 18 16.5 38t6.5 42q0 34 -14 59t-37 42q-24 16 -53.5 24t-59.5 8q-38 0 -70.5 -7.5t-58.5 -18.5l-3 40q30 11 65.5 18.5t77.5 7.5
q37 0 72 -10.5t63 -31.5q27 -21 43.5 -52t16.5 -72q0 -26 -7 -48.5t-19 -42.5t-26.5 -38t-29.5 -36zM221 99h59v-69h-59v69z" />
    <glyph glyph-name="at" unicode="@" 
d="M364 206q36 0 65.5 19.5t51.5 49.5q21 29 32.5 64.5t11.5 67.5q0 48 -30.5 81t-76.5 36q-42 3 -73.5 -15t-52.5 -46q-22 -29 -33 -64.5t-11 -67.5q0 -55 31 -90t85 -35zM532 308q-6 -24 -12 -45.5t-6 -36.5t8 -22t29 -3q28 6 56.5 27t52.5 52q23 31 37.5 68.5t14.5 76.5
q0 67 -22.5 119t-61.5 88q-40 35 -94.5 53t-117.5 18q-73 0 -133 -25.5t-102 -69.5q-43 -45 -66.5 -105.5t-23.5 -130.5q0 -81 25 -142t70 -102q44 -41 105.5 -62t134.5 -21q69 0 125 24.5t101 66.5h27q-48 -55 -115 -85.5t-142 -30.5t-140.5 23.5t-113.5 69.5
q-49 45 -77 111t-28 150q0 80 28 145.5t76 112.5q48 46 112.5 71t137.5 25q63 0 121 -21t103 -58q44 -38 70 -91t26 -117q0 -69 -23.5 -119.5t-57.5 -83.5t-71.5 -49t-65.5 -15q-12 0 -19.5 7.5t-10.5 17.5q-4 10 -5 21t-1 18q-22 -22 -42 -34t-38 -17q-18 -6 -33.5 -7
t-27.5 0q-24 1 -46.5 12.5t-39.5 30.5q-18 18 -28.5 42.5t-10.5 51.5q0 47 13.5 89.5t39.5 74.5q25 32 61 51t81 19q14 0 32.5 -5t36.5 -17q18 -13 34 -33t25 -50l28 95h26z" />
    <glyph glyph-name="A" unicode="A" horiz-adv-x="650" 
d="M494 228h-337l-79 -195h-43l273 684h34q172 -451 273 -684h-43zM171 263h309l-143 368q-10 25 -11 45h-2q0 -11 -3.5 -22.5t-7.5 -22.5z" />
    <glyph glyph-name="B" unicode="B" horiz-adv-x="605" 
d="M99 33q2 21 2 41v42v515q0 20 -0.5 41.5t-1.5 41.5h185q52 0 95.5 -7.5t74.5 -25.5q31 -19 48 -49t17 -75q0 -40 -10 -68t-27 -46q-18 -19 -41.5 -31t-49.5 -21q29 -8 57.5 -22t51.5 -36q22 -22 36 -53.5t14 -73.5q0 -51 -18.5 -84.5t-52.5 -52.5q-34 -20 -81 -28
t-104 -8h-195zM141 69h174q42 0 77.5 6.5t61.5 23.5q25 16 39.5 44.5t14.5 72.5q0 46 -21.5 75.5t-55.5 46.5q-34 16 -76 22.5t-82 6.5h-132v-298zM141 403h111q45 0 86 6t73 22q31 16 49.5 44t18.5 72q0 42 -16.5 68t-41.5 40q-26 14 -56.5 18.5t-59.5 4.5h-164v-275z" />
    <glyph glyph-name="C" unicode="C" horiz-adv-x="600" 
d="M530 663q-53 23 -120 23q-69 0 -125 -23.5t-95 -65.5q-40 -42 -61.5 -99t-21.5 -124q0 -70 21.5 -127.5t61.5 -98.5q39 -42 95 -65t125 -23q32 0 66 4.5t65 16.5l4 -42q-35 -11 -73 -15t-67 -4q-77 0 -139.5 24.5t-106.5 70.5q-45 46 -69.5 111.5t-24.5 147.5
q0 79 24.5 144t69.5 112q44 46 106.5 71t139.5 25q35 0 66 -4t63 -17z" />
    <glyph glyph-name="D" unicode="D" horiz-adv-x="695" 
d="M97 33q1 21 1.5 41t0.5 42v515v41.5t-2 41.5h185q76 0 140.5 -23.5t111.5 -66.5q46 -44 72 -106.5t26 -140.5q0 -85 -25.5 -149.5t-72.5 -107.5t-114 -65t-149 -22h-174zM139 73h143q73 0 130.5 17t97.5 54q39 37 59.5 94.5t20.5 138.5q0 71 -21.5 126t-60.5 93t-94 58
t-122 20h-153v-601z" />
    <glyph glyph-name="E" unicode="E" horiz-adv-x="545" 
d="M142 73h279q15 0 29 0.5t28 1.5v-44q-11 1 -24 1.5t-27 0.5h-327q2 20 2 39v42v516q0 20 -0.5 41.5t-1.5 41.5h321q14 0 27 0.5t25 1.5v-44q-15 2 -29 2h-28h-274v-266h253q14 0 27 0.5t25 1.5v-44q-11 1 -24.5 1.5t-27.5 0.5h-253v-294z" />
    <glyph glyph-name="F" unicode="F" horiz-adv-x="520" 
d="M102 630v41.5t-2 41.5h311q14 0 27 0.5t25 1.5v-44q-17 2 -30 2h-27h-264v-266h248h27t25 2v-44q-15 2 -26 2h-26h-248v-251q0 -23 0.5 -46t1.5 -37h-44q1 11 1.5 33t0.5 50v514v0z" />
    <glyph glyph-name="G" unicode="G" horiz-adv-x="706" 
d="M591 653q-35 15 -79.5 24t-92.5 9q-71 0 -129 -23.5t-99 -65.5t-63.5 -99t-22.5 -124q0 -70 23.5 -127.5t65.5 -98.5q42 -42 100.5 -65t129.5 -23q28 0 67 3.5t78 20.5v282h-108h-23t-29 -2v41q17 -1 29 -1.5t28 -0.5h144q-2 -26 -1.5 -41.5t0.5 -41.5v-267
q-31 -14 -79.5 -23.5t-115.5 -9.5q-77 0 -141.5 24.5t-110.5 70.5q-47 46 -73 111.5t-26 147.5q0 79 26 144t73 112q46 46 110.5 71t141.5 25q48 0 90.5 -6.5t90.5 -22.5z" />
    <glyph glyph-name="H" unicode="H" horiz-adv-x="700" 
d="M601 116v-46.5t2 -36.5h-44q2 18 2 36.5v46.5v253h-422v-253v-46.5t2 -36.5h-44q2 18 2 36.5v46.5v560q0 11 -0.5 21t-1.5 16h44q-2 -20 -2 -38.5v-44.5v-221h422v221v41.5t-2 41.5h44q-2 -20 -2 -38.5v-44.5v-514z" />
    <glyph glyph-name="I" unicode="I" horiz-adv-x="270" 
d="M156 116v-46.5t2 -36.5h-46q2 18 2 36.5v46.5v514v41.5t-2 41.5h46q-2 -20 -2 -38.5v-44.5v-514z" />
    <glyph glyph-name="J" unicode="J" horiz-adv-x="365" 
d="M265 198q0 -34 -8.5 -66t-28.5 -57q-21 -25 -56 -40t-88 -15q-15 0 -30.5 3t-27.5 8v35q22 -6 40 -6q45 0 75.5 10t49.5 31q18 21 26 53.5t8 77.5v399q0 20 -0.5 41t-1.5 41h44q-1 -17 -1.5 -40.5t-0.5 -41.5v-433v0z" />
    <glyph glyph-name="K" unicode="K" horiz-adv-x="630" 
d="M139 401q57 44 107 84t96 78q45 37 87 74t83 76h49q-69 -65 -163 -149t-210 -169q38 -42 88 -90.5t105 -96.5q54 -48 109 -93.5t103 -81.5h-59q-53 42 -103.5 84t-98.5 85q-49 42 -97 87t-96 95v-268q0 -23 0.5 -43t1.5 -40h-44q1 13 1.5 22t1.5 18v557q0 20 -0.5 41.5
t-2.5 41.5h44q-1 -14 -1.5 -23.5t-0.5 -18.5v-270z" />
    <glyph glyph-name="L" unicode="L" horiz-adv-x="495" 
d="M406 73h29t28 1v-42q-15 2 -29.5 1.5t-22.5 -0.5h-310q1 13 1 22v18v557q0 20 -0.5 41.5t-1.5 41.5h45q-1 -14 -1.5 -23.5t-0.5 -18.5q-1 -9 -1 -18.5v-22.5v-557h264z" />
    <glyph glyph-name="M" unicode="M" horiz-adv-x="870" 
d="M429 33q-30 58 -68.5 138t-77.5 167q-40 86 -78 171t-67 152l-3 -1v-544q0 -23 0.5 -43t1.5 -40h-44q1 13 1.5 22t0.5 18v557q0 20 -0.5 41.5t-1.5 41.5h68q17 -41 37.5 -88t42.5 -96q22 -50 44 -99.5t43 -95.5q48 -107 99 -218q2 -7 4 -11.5t3 -7.5q1 -4 2 -5h3
q0 2 2 6.5t7 17.5q49 111 97 218q20 46 42 95.5t44 99.5q21 49 41 96t37 88h68q-1 -20 -1.5 -41.5t-0.5 -41.5v-557q0 -9 0.5 -18t1.5 -22h-44q1 20 1.5 40t0.5 43v544l-3 1q-29 -67 -66 -152t-76 -171q-39 -87 -76.5 -167t-67.5 -138h-17z" />
    <glyph glyph-name="N" unicode="N" horiz-adv-x="700" 
d="M549 28q-57 87 -106.5 160.5t-95.5 144.5q-47 70 -93 141.5t-97 152.5q-4 6 -8 14t-8 15l-2 -2v-538q0 -22 0.5 -42t1.5 -41h-44q1 13 1.5 22.5t0.5 18.5v557q0 20 -0.5 41.5t-1.5 41.5h54q58 -100 109 -183t99 -156q47 -73 92.5 -140t93.5 -135q2 -3 4.5 -7t4.5 -9
l5 -10l2 1v556q0 20 -0.5 41.5t-1.5 41.5h44q-1 -14 -1.5 -23.5t-0.5 -18.5v-607v-18.5t1 -18.5h-53z" />
    <glyph glyph-name="O" unicode="O" horiz-adv-x="700" 
d="M104 373q0 -60 12 -116.5t41 -99.5q28 -44 75.5 -70.5t117.5 -26.5t117.5 26.5t76.5 70.5q28 43 40 99.5t12 116.5q0 61 -13 118t-42 100q-30 43 -77 69t-114 26q-68 0 -114.5 -26t-75.5 -69q-30 -43 -43 -100t-13 -118zM62 373q0 79 20.5 144.5t58.5 111.5
q37 46 90.5 71.5t118.5 25.5t118.5 -25.5t91.5 -71.5q37 -46 57.5 -111.5t20.5 -144.5q0 -81 -20.5 -146.5t-57.5 -111.5q-38 -46 -91.5 -70.5t-118.5 -24.5t-118.5 24.5t-90.5 70.5q-38 46 -58.5 111.5t-20.5 146.5z" />
    <glyph glyph-name="P" unicode="P" horiz-adv-x="570" 
d="M101 630v41.5t-1 41.5h178q50 0 96 -9t82 -31q35 -22 56.5 -59t21.5 -94q0 -55 -21.5 -92t-55.5 -59q-35 -23 -78 -32.5t-85 -9.5h-153v-211q0 -23 0.5 -43t1.5 -40h-44q1 13 1.5 22t0.5 18v557zM141 365h163q32 0 65.5 8t60.5 26t44.5 47.5t17.5 73.5q0 46 -20 76
t-50 48q-30 17 -65.5 24t-67.5 7h-148v-310z" />
    <glyph glyph-name="Q" unicode="Q" horiz-adv-x="700" 
d="M62 374q0 80 20.5 145t58.5 112q37 46 90.5 71t118.5 25t118.5 -25t91.5 -71q37 -47 57.5 -112t20.5 -145q0 -105 -33 -181.5t-92 -120.5q22 -27 43.5 -54.5t44.5 -56.5h-47q-20 24 -38 46.5t-35 45.5q-59 -31 -131 -31q-65 0 -118.5 24.5t-90.5 70.5q-38 45 -58.5 110.5
t-20.5 146.5zM104 374q0 -60 12 -116.5t41 -99.5q28 -44 75.5 -70t117.5 -26q62 0 107 21q-25 31 -50 62.5t-51 65.5h48q23 -29 43.5 -56t41.5 -53q30 21 50 50.5t33 65.5q13 35 18.5 75t5.5 81q0 61 -13 118t-42 100q-30 43 -77 69t-114 26q-68 0 -114.5 -26t-75.5 -69
q-30 -43 -43 -100t-13 -118z" />
    <glyph glyph-name="R" unicode="R" horiz-adv-x="611" 
d="M100 630v41.5t-2 41.5h169q50 0 96 -6t82 -24q35 -18 56.5 -51t21.5 -88q0 -35 -13.5 -64t-37.5 -50q-24 -22 -56.5 -35t-69.5 -16q48 -16 68.5 -39t35.5 -51l-1 1q17 -36 32.5 -72t31.5 -72q13 -31 24.5 -56.5t25.5 -56.5h-50l-104 238q-16 31 -32 48.5t-34 26.5
q-19 8 -40 10t-47 2h-116v-242q0 -23 0.5 -43t1.5 -40h-44q1 13 1.5 22t0.5 18v557zM140 398h148q41 0 76.5 9.5t61.5 27.5t40.5 45.5t14.5 63.5q0 64 -44.5 97.5t-138.5 33.5h-158v-277z" />
    <glyph glyph-name="S" unicode="S" horiz-adv-x="510" 
d="M411 666q-29 10 -57.5 15t-67.5 5q-28 0 -60 -6t-59 -20t-45 -37.5t-18 -59.5q0 -29 15 -51.5t39 -39.5q23 -18 52 -32.5t56 -26.5q31 -14 64 -31t61 -40q27 -23 44.5 -54.5t17.5 -74.5q0 -52 -21.5 -88.5t-57.5 -59.5q-36 -24 -83 -34.5t-99 -10.5q-31 0 -64 7t-66 16
q2 11 3.5 22t3.5 21q29 -9 63.5 -17.5t73.5 -8.5q33 0 69 7.5t66 24.5t50 45t20 70q0 36 -18.5 62t-45.5 45t-58.5 33.5t-58.5 27.5q-28 14 -57.5 30t-53.5 37q-25 21 -41 48.5t-16 63.5q0 42 17 74t47 54t70 33t86 11q29 0 67 -5.5t70 -12.5z" />
    <glyph glyph-name="T" unicode="T" horiz-adv-x="571" 
d="M306 673v-557q0 -19 0.5 -42.5t1.5 -40.5h-46q1 13 1.5 22.5t0.5 18.5v599h-179q-17 0 -26.5 -0.5t-24.5 -1.5v44l18 -1.5t11 -0.5h416q15 0 29 0.5t28 1.5v-44q-14 2 -25.5 2h-26.5h-178z" />
    <glyph glyph-name="U" unicode="U" horiz-adv-x="694" 
d="M134 326q0 -65 10 -114.5t35 -82.5q24 -34 64.5 -51.5t101.5 -17.5t101.5 17.5t65.5 51.5q24 33 34 82.5t10 114.5v305q0 20 -0.5 41t-1.5 41h44q-2 -26 -2 -41.5v-40.5v-321q0 -143 -64.5 -216.5t-186.5 -73.5t-186.5 73.5t-64.5 216.5v321q0 20 -0.5 41t-1.5 41h44
q-2 -26 -2 -41.5v-40.5v-305v0z" />
    <glyph glyph-name="V" unicode="V" horiz-adv-x="630" 
d="M336 123q61 165 114.5 309.5t98.5 280.5h44q-61 -185 -127 -352t-127 -328h-49q-60 158 -125 326t-128 354h46q45 -134 98.5 -279.5t114.5 -310.5q3 -8 6 -16.5t5 -16.5l6 -18h5q3 12 7.5 23t10.5 28z" />
    <glyph glyph-name="W" unicode="W" horiz-adv-x="890" 
d="M410 713q11 -36 25 -80t30 -91q15 -48 31.5 -97t31.5 -94q36 -106 75 -219q5 -15 8.5 -27.5t5.5 -24.5h4q3 10 6 21q2 9 5 18.5t5 17.5q46 145 91 286.5t86 289.5h47q-52 -168 -105 -337t-116 -343h-43q-39 112 -77.5 218.5t-75.5 214.5q-31 -110 -69.5 -217t-80.5 -216
h-48q-54 168 -108 337t-109 343h47q11 -39 24.5 -84.5t28.5 -93.5q14 -48 29.5 -96t29.5 -92q33 -104 68 -211q2 -8 5.5 -18t6.5 -18q4 -10 6 -20h5q1 6 4.5 20t9.5 31q42 119 75.5 214t54.5 183q-16 46 -30.5 91.5t-28.5 93.5h46z" />
    <glyph glyph-name="X" unicode="X" horiz-adv-x="630" 
d="M49 33q39 55 75.5 110t67.5 103q30 47 53 84.5t34 58.5q-52 82 -105 164t-107 160h52q34 -54 68 -109q29 -47 63 -99.5t63 -95.5q55 75 105 150.5t98 153.5h46q-44 -67 -84 -129q-17 -26 -36 -53.5t-37 -53.5t-34.5 -49t-29.5 -39q55 -88 115 -178t123 -178h-51l-218 329
q-51 -79 -102 -160t-110 -169h-49z" />
    <glyph glyph-name="Y" unicode="Y" horiz-adv-x="630" 
d="M294 322q-67 97 -127 191.5t-121 199.5h47q24 -41 46.5 -80t47.5 -80t53.5 -85t64.5 -94q3 -5 5 -8t4 -5q2 -3 2 -4h1q0 1 2 4q2 2 3.5 5t4.5 8q56 76 108.5 163.5t100.5 175.5h50q-51 -87 -114.5 -188.5t-135.5 -202.5v-206q0 -19 0.5 -42.5t1.5 -40.5h-46
q1 13 1.5 22.5t0.5 18.5v248z" />
    <glyph glyph-name="Z" unicode="Z" horiz-adv-x="540" 
d="M99 80l-5 -5l-2 -2h346h29t28 2v-44q-11 2 -24 2h-28h-341q-15 0 -29 0.5t-28 -0.5v45l389 589l4 4l2 2h-322h-27.5t-24.5 -2v44q14 -1 27.5 -1.5t29.5 -0.5h361v-46z" />
    <glyph glyph-name="bracketleft" unicode="[" horiz-adv-x="332" 
d="M111 788h150v-36h-107v-798h107v-36h-150v870z" />
    <glyph glyph-name="backslash" unicode="\" horiz-adv-x="1000" 
d="M846 427q-30 -99 -59.5 -191t-66.5 -190h-49q-19 62 -34.5 114.5t-28.5 98.5q-13 45 -25 86.5t-23 81.5h-119q-23 -88 -51 -181.5t-65 -199.5h-49q-37 98 -67 190t-59 191h-65q-17 0 -26.5 0.5t-24.5 -0.5v25q12 -1 17.5 -1h10.5t10.5 0.5t17.5 0.5h52
q-17 55 -33.5 112.5t-35.5 121.5h46q17 -60 31.5 -117t30.5 -117h229q17 64 30.5 125t24.5 113h66q11 -52 26 -113t33 -125h224q17 60 31.5 117t31.5 117h46q-20 -64 -36.5 -121.5t-33.5 -112.5h56q15 0 29 -0.5t28 0.5v-25q-11 1 -16 1h-9q-5 0 -10 -0.5t-16 -0.5h-69z
M318 129q20 63 42 140t43 158h-215q20 -69 42.5 -141.5t53.5 -156.5q3 -8 5.5 -16t4.5 -14q3 -8 5 -14h5q3 12 6 19.5t8 24.5zM678 129q5 -17 8 -24.5t6 -19.5h5q1 6 4 14q2 6 5 14l6 16q31 84 53.5 156.5t41.5 141.5h-210q22 -78 43.5 -155t37.5 -143zM486 602
q-10 -37 -19 -74.5t-20 -75.5h105q-10 35 -20.5 71.5t-21.5 78.5q-5 17 -7 31.5t-5 25.5q-3 -10 -5.5 -25.5t-6.5 -31.5z" />
    <glyph glyph-name="bracketright" unicode="]" horiz-adv-x="330" 
d="M221 -82h-150v36h107v798h-107v36h150v-870z" />
    <glyph glyph-name="asciicircum" unicode="^" horiz-adv-x="600" 
d="M467 354q-42 78 -82 162.5t-86 186.5q-45 -102 -85.5 -186.5t-81.5 -162.5h-38q22 40 47 89.5t50 101.5q24 51 46 101.5t40 91.5h45q18 -41 40 -91.5t47 -101.5q24 -52 48.5 -101.5t47.5 -89.5h-38z" />
    <glyph glyph-name="underscore" unicode="_" horiz-adv-x="500" 
d="M20 -43h460v-23h-460v23z" />
    <glyph glyph-name="grave" unicode="`" horiz-adv-x="278" 
d="M170 657h-26q-23 25 -44.5 50.5t-44.5 51.5h53z" />
    <glyph glyph-name="a" unicode="a" horiz-adv-x="550" 
d="M112 492q34 19 76.5 31t84.5 12q104 0 147.5 -49t43.5 -147v-234q0 -29 1 -43t2 -25h-33l-1 112q-10 -22 -26.5 -44t-40.5 -40q-25 -18 -58 -29t-75 -11q-78 0 -125 33.5t-47 108.5q0 43 22.5 72t56.5 47q33 18 72.5 26t72.5 8h45t46 -1q25 -1 50 -1q-2 90 -40.5 139
t-126.5 49q-33 0 -72 -10.5t-73 -27.5zM426 290q-8 0 -21.5 0.5t-27.5 1.5q-15 0 -28.5 0.5t-21.5 0.5q-16 0 -38.5 -1t-47.5 -5t-49.5 -12t-43.5 -22q-20 -14 -32.5 -35t-12.5 -51q0 -27 13 -48t33 -35q20 -15 44 -22.5t46 -7.5q47 0 82 17t59 43q23 25 34.5 53.5
t11.5 52.5v70z" />
    <glyph glyph-name="b" unicode="b" horiz-adv-x="611" 
d="M132 138v-37v-32.5t1 -36.5h-39q2 20 2 40.5v42.5v571v41.5t-1 41.5h40q-1 -14 -1 -23.5v-18.5v-291l5 -3q35 46 80.5 71.5t105.5 25.5q58 0 99.5 -20t68.5 -54t39.5 -79t12.5 -94q0 -50 -11.5 -97.5t-37.5 -84.5t-68 -59.5t-103 -22.5q-33 0 -62.5 10t-53.5 26
q-25 17 -43.5 39t-29.5 45zM503 277q0 42 -10 82t-31 72q-22 31 -56 50t-81 19q-46 0 -81.5 -19.5t-59.5 -50.5q-24 -32 -36 -72.5t-12 -82.5q0 -38 11 -78t34 -73t58.5 -54t85.5 -21q47 0 81 20t56 52q21 32 31 73t10 83z" />
    <glyph glyph-name="c" unicode="c" horiz-adv-x="480" 
d="M415 494q-21 7 -42 9.5t-43 2.5q-54 0 -95.5 -18.5t-68.5 -49.5q-28 -31 -42.5 -72t-14.5 -86t14 -85.5t42 -71.5q28 -32 70.5 -50.5t98.5 -18.5q20 0 43.5 3t47.5 12q0 -6 0.5 -6t0.5 2v1.5t1 -4.5q2 -7 3 -12l2 -10q-29 -11 -57 -13t-51 -2q-56 0 -103.5 19t-81.5 53
t-53 81t-19 102q0 57 18.5 104t52.5 81q34 33 81.5 51.5t104.5 18.5q26 0 51 -3.5t45 -8.5z" />
    <glyph glyph-name="d" unicode="d" horiz-adv-x="611" 
d="M475 139q-11 -23 -29.5 -45t-42.5 -39q-25 -16 -54.5 -26t-62.5 -10q-61 0 -103 22.5t-68 59.5t-37.5 84.5t-11.5 97.5q0 49 12.5 94t39.5 79t68.5 54t99.5 20q60 0 105.5 -25.5t80.5 -71.5l5 3v291v18.5t-1 23.5h40q-1 -20 -1 -41.5v-41.5v-571v-42.5t2 -40.5h-39
q1 15 1 36.5v32.5v37zM108 277q0 -42 10 -83t32 -73q21 -32 55 -52t81 -20q50 0 85.5 21t58.5 54t34 73t11 78q0 42 -12 82.5t-36 72.5q-24 31 -59.5 50.5t-81.5 19.5q-47 0 -81 -19t-55 -50q-22 -32 -32 -72t-10 -82z" />
    <glyph glyph-name="e" unicode="e" horiz-adv-x="571" 
d="M465 52q-14 -6 -28.5 -10.5t-31.5 -8.5t-38 -6t-49 -2q-64 0 -111 19t-78 54q-32 34 -47.5 83t-15.5 108q0 54 16.5 99.5t46.5 78.5q30 32 71.5 50t91.5 18q54 0 93 -18.5t66 -51.5q26 -33 39 -79.5t14 -102.5h-395q0 -53 18 -95t48 -72t68.5 -46t78.5 -16t77 9t63 22z
M462 306q0 39 -12.5 75.5t-35.5 64.5q-23 27 -54.5 43.5t-69.5 16.5q-43 0 -76.5 -18t-56.5 -46q-23 -29 -36 -64.5t-15 -71.5h356z" />
    <glyph glyph-name="f" unicode="f" horiz-adv-x="395" 
d="M95 487q-17 0 -26.5 -0.5t-24.5 -1.5v33q16 -2 32 -2h24h70v76q0 43 6 77.5t23 59.5q16 24 45 37t75 13q20 0 35 -3l-2 -30q-2 2 -8 2.5t-11 0.5q-44 0 -69 -10.5t-37 -29.5q-13 -20 -16.5 -47.5t-3.5 -61.5v-84h88h28t28 2v-33q-14 2 -25.5 2h-25.5h-93v-373
q0 -22 0.5 -42.5t1.5 -40.5h-41q1 13 1.5 22.5t0.5 18.5v415h-75z" />
    <glyph glyph-name="g" unicode="g" horiz-adv-x="606" 
d="M515 88q0 -104 -61.5 -159.5t-186.5 -55.5q-35 0 -72.5 5t-88.5 22q2 9 3.5 17.5t3.5 17.5q41 -17 78.5 -24.5t86.5 -7.5q91 0 145 49.5t54 146.5v89l-3 3q-11 -21 -27.5 -40.5t-39.5 -34.5t-52 -24t-65 -9q-57 0 -99 17.5t-70 47.5t-42 70t-14 85q0 50 14 93.5t42 75.5
q28 31 70 49t99 18q34 0 63 -10.5t53 -27.5q23 -17 40.5 -39t28.5 -45l4 4v64q0 14 -0.5 22t-1.5 19h40q-1 -13 -1.5 -22t-0.5 -18v-398zM107 308q0 -43 11 -78.5t34 -61.5t57 -40.5t81 -14.5q46 0 80.5 14.5t58.5 40.5q23 25 34.5 61t11.5 79q0 39 -11.5 75t-34.5 64
q-24 28 -58.5 45t-80.5 17q-47 0 -81.5 -15.5t-56.5 -42.5q-23 -27 -34 -64t-11 -79z" />
    <glyph glyph-name="h" unicode="h" horiz-adv-x="600" 
d="M138 414q12 21 28.5 41.5t39.5 37.5q23 16 53 26t68 10q97 0 139.5 -54t42.5 -151v-210q0 -22 0.5 -42t1.5 -41h-42q1 13 1.5 22.5t0.5 18.5v211q0 54 -7 93.5t-24 66.5q-17 26 -44.5 40t-68.5 17q-46 0 -82 -18t-60 -51q-25 -33 -38 -78t-13 -99v-140q0 -22 0.5 -42
t1.5 -41h-42q1 13 1.5 22.5t0.5 18.5v614q0 20 -0.5 41.5t-1.5 41.5h42q-1 -14 -1.5 -23.5t-0.5 -18.5v-309z" />
    <glyph glyph-name="i" unicode="i" horiz-adv-x="260" 
d="M151 115q0 -22 0.5 -42.5t1.5 -40.5h-46q1 13 1.5 22.5t0.5 18.5v361q0 20 -0.5 41.5t-1.5 41.5h46q-2 -26 -2 -41.5v-41.5v-319zM159 671h-58v71h58v-71z" />
    <glyph glyph-name="j" unicode="j" horiz-adv-x="248" 
d="M151 66q0 -26 -2.5 -59t-13.5 -62q-12 -28 -37 -47.5t-70 -19.5h-13q-5 0 -11 0.5t-10 2.5l4 38q6 -3 14 -3q54 0 77 32t23 103v387q0 20 -0.5 41.5t-1.5 41.5h44q-1 -14 -1.5 -23.5t-0.5 -18.5q-1 -9 -1 -18.5v-22.5v-372zM160 675h-58v71h58v-71z" />
    <glyph glyph-name="k" unicode="k" horiz-adv-x="530" 
d="M135 309q77 56 146.5 111.5t119.5 96.5h50q-47 -38 -95 -77q-42 -33 -91 -70.5t-94 -68.5q63 -60 137.5 -129.5t168.5 -140.5h-52q-44 37 -77 66.5t-65 58.5t-67 60.5t-81 73.5v-176q0 -22 0.5 -42t1.5 -41h-42q1 13 1.5 22.5t0.5 18.5v614q0 20 -0.5 41.5t-1.5 41.5h42
q-1 -14 -1.5 -23.5t-0.5 -18.5v-418z" />
    <glyph glyph-name="l" unicode="l" horiz-adv-x="248" 
d="M143 114q0 -22 0.5 -42t1.5 -41h-42q1 13 1.5 22.5t0.5 18.5v614q0 20 -0.5 41.5t-1.5 41.5h41q-1 -14 -1 -23.5v-18.5v-613z" />
    <glyph glyph-name="m" unicode="m" horiz-adv-x="825" 
d="M707 331q0 28 -3.5 58.5t-14.5 55.5q-12 25 -33 41.5t-57 18.5q-44 0 -74.5 -17.5t-49.5 -46.5q-20 -29 -30 -67t-11 -78v-176q0 -23 0.5 -43t1.5 -40h-42q2 26 2 48v35v211q0 29 -3.5 60t-15.5 57q-12 25 -34.5 41t-60.5 16q-42 0 -72 -18.5t-49 -48.5t-28 -69t-10 -81
v-168q0 -23 0.5 -43t1.5 -40h-42q1 13 1.5 22.5t0.5 18.5v361q0 20 -0.5 41.5t-1.5 41.5h42q-1 -6 -1 -12q-1 -5 -1 -12.5v-16.5v-53l3 -2q9 16 23.5 36t36.5 37q22 16 52 27t69 9q41 -2 73.5 -34t47.5 -92q8 22 22 44.5t36 40.5q21 18 51 29.5t72 11.5q37 0 62.5 -14
t42.5 -38q16 -25 23.5 -58t7.5 -70v-235v-43t1 -40h-40q2 26 1.5 48t-0.5 35v211z" />
    <glyph glyph-name="n" unicode="n" horiz-adv-x="589" 
d="M133 411q10 16 25.5 37.5t39.5 41.5q23 19 56.5 32t79.5 13q88 0 129 -54t41 -151v-210q0 -23 0.5 -43t1.5 -40h-42q1 13 1.5 22.5t0.5 18.5v211q0 54 -7 93.5t-24 66.5q-17 26 -44.5 40t-68.5 16q-46 0 -82 -18t-60 -50q-25 -33 -38 -78t-13 -99v-140q0 -23 0.5 -43
t1.5 -40h-42q1 13 1.5 22.5t0.5 18.5v361q0 20 -0.5 42t-2.5 41h44q-1 -8 -2 -19q-1 -10 -1 -25v-37v-28z" />
    <glyph glyph-name="o" unicode="o" horiz-adv-x="600" 
d="M65 280q0 56 17 103t48 81q30 33 73.5 52t96.5 19t96.5 -19t74.5 -52q30 -34 47 -81t17 -103q0 -53 -17 -99.5t-48 -80.5q-31 -35 -74.5 -55t-95.5 -20q-53 0 -96 20t-74 55q-31 34 -48 80.5t-17 99.5zM107 280q0 -41 10.5 -81t34.5 -72q23 -33 59.5 -53t88.5 -20
q51 0 87.5 20t60.5 53q23 32 34 72t11 81q0 43 -12.5 83.5t-36.5 72.5q-25 31 -61 50.5t-83 19.5t-82.5 -19.5t-60.5 -50.5q-25 -32 -37.5 -72.5t-12.5 -83.5z" />
    <glyph glyph-name="p" unicode="p" horiz-adv-x="611" 
d="M133 526q-1 -6 -1.5 -25t-0.5 -36v-41l5 -5q7 12 22 33t40 41q25 19 61 33t85 12q53 -2 91 -22.5t63 -54.5q24 -35 35.5 -80t11.5 -96q0 -45 -13.5 -87.5t-38.5 -75.5q-26 -33 -64 -53t-86 -20q-53 0 -87.5 12.5t-56.5 31.5q-23 18 -37 39.5t-26 39.5l-3 -2v-204
q0 -20 1 -41.5t2 -41.5h-43q1 14 1.5 23.5t0.5 18.5v518q0 28 -0.5 45.5t-2.5 37.5h41zM503 292q0 42 -10.5 81t-31.5 70q-22 30 -56 48t-81 18q-50 0 -85.5 -19.5t-58.5 -49.5q-23 -31 -34 -69.5t-11 -76.5q0 -43 12 -82t36 -69t59.5 -47.5t81.5 -17.5t80 17.5t56 47.5
q22 29 32.5 68t10.5 81z" />
    <glyph glyph-name="q" unicode="q" horiz-adv-x="611" 
d="M516 526q-2 -20 -2.5 -37.5t-0.5 -45.5v-518q0 -9 0.5 -18.5t1.5 -23.5h-43q1 20 2 41.5t1 41.5v204l-3 2q-12 -18 -26 -39.5t-36 -39.5q-23 -19 -58 -31.5t-87 -12.5q-48 0 -86 20t-63 53q-26 33 -39.5 75.5t-13.5 87.5q0 51 11.5 96t36.5 80q24 34 62 54.5t91 22.5
q49 2 85 -12t61 -33q25 -20 40 -41t22 -33l5 5v41q0 17 -0.5 36t-1.5 25h41zM105 292q0 -42 10.5 -81t32.5 -68q22 -30 55.5 -47.5t80.5 -17.5q46 0 81.5 17.5t59.5 47.5t36 69t12 82q0 38 -11 76.5t-34 69.5q-23 30 -59 49.5t-85 19.5q-47 0 -81 -18t-56 -48
q-22 -31 -32 -70t-10 -81z" />
    <glyph glyph-name="r" unicode="r" horiz-adv-x="410" 
d="M319 499q-39 0 -73 -16.5t-59 -47.5t-40 -74.5t-15 -98.5v-142q0 -23 0.5 -43t1.5 -40h-42q1 13 1.5 22.5t0.5 18.5v372q0 21 -0.5 40t-1.5 32h40q-1 -11 -1 -24v-27v-69l2 -2q6 15 20.5 38t37.5 45t54 37.5t69 14.5q14 0 29 -0.5t30 -4.5l-7 -36q-23 5 -47 5z" />
    <glyph glyph-name="s" unicode="s" horiz-adv-x="440" 
d="M51 77q37 -11 71 -17t66 -6q28 0 57 5t53 17q23 12 37.5 31.5t14.5 48.5q0 22 -14 39.5t-35 31.5q-22 13 -48 24t-49 21q-31 12 -59.5 24.5t-49.5 27.5q-22 15 -34.5 33t-12.5 42q0 71 52.5 103.5t140.5 32.5q35 0 65.5 -4t53.5 -11l-5 -32q-27 9 -55.5 13.5t-48.5 4.5
q-33 0 -62.5 -5.5t-50.5 -16.5q-22 -11 -35 -28t-13 -41q0 -21 14.5 -38.5t36.5 -31.5q21 -15 46 -25.5t47 -18.5q23 -9 50.5 -20t51.5 -26q24 -16 40 -37.5t16 -50.5q0 -37 -13.5 -63.5t-37.5 -43.5q-24 -18 -58 -26.5t-74 -8.5q-35 0 -80.5 5t-80.5 16z" />
    <glyph glyph-name="t" unicode="t" horiz-adv-x="400" 
d="M159 594q0 20 -0.5 41.5t-1.5 41.5h42q-1 -14 -1.5 -23.5t-0.5 -18.5v-116h87q15 0 29 0.5t28 1.5v-33q-14 2 -25.5 2h-25.5h-93v-321q0 -34 7 -56.5t22 -35.5q14 -14 35 -20t50 -6q9 0 18.5 0.5t17.5 2.5v-26q-11 -4 -25 -5.5t-28 -1.5q-63 0 -99 30t-36 97v342h-69
q-17 0 -26.5 -0.5t-24.5 -1.5v33q12 -1 17.5 -1.5t10.5 -0.5h92v75z" />
    <glyph glyph-name="u" unicode="u" horiz-adv-x="590" 
d="M456 150q-8 -22 -24 -44t-41 -40t-59 -29.5t-76 -11.5q-88 0 -129 54t-41 151v210v43t-2 40h42q-1 -12 -1.5 -21.5t-0.5 -18.5v-212q0 -54 7 -93.5t24 -65.5q17 -27 44.5 -41t68.5 -16q46 0 82 18t61 51q24 32 37 77t13 99v140v43t-2 40h42q-1 -13 -1.5 -22.5t-0.5 -18.5
v-361q0 -20 0.5 -41.5t1.5 -41.5h-42q1 9 1.5 19.5t0.5 21.5v69z" />
    <glyph glyph-name="v" unicode="v" horiz-adv-x="526" 
d="M487 523q-12 -30 -29 -72t-36 -88q-20 -47 -41 -95.5t-40 -92.5t-35.5 -80t-27.5 -58h-26q-51 118 -107 239.5t-105 246.5h41q10 -30 23 -64.5t28 -69.5q14 -36 29.5 -71.5t29.5 -68.5q33 -77 69 -154q1 -2 2 -5t2 -5l2 -6h1l6 16q31 74 63 150q27 65 58 139t57 139h36z
" />
    <glyph glyph-name="w" unicode="w" 
d="M428 524q22 -65 49 -139.5t50 -139.5q27 -76 55 -150l2 -6t2 -5q1 -3 1 -5h1q0 3 1 6q1 2 1.5 5t1.5 5q25 77 49 154q10 33 21 68.5t22 71.5q10 36 20 70.5t19 64.5h41q-42 -125 -80.5 -247t-81.5 -240h-26q-15 30 -36.5 85.5t-44.5 120.5q-24 64 -46.5 129.5
t-40.5 115.5q-2 6 -3 9.5t-2 7.5h-2q-1 -4 -2 -7.5t-3 -9.5q-18 -50 -41 -115.5t-46 -129.5q-23 -65 -44.5 -120.5t-36.5 -85.5h-26q-43 118 -81.5 240t-80.5 247h41q8 -30 18 -64.5t21 -70.5t22 -71.5t21 -68.5q24 -77 49 -154q1 -2 1.5 -5t1.5 -5q1 -3 1 -6h1q0 2 1 5
q1 2 1.5 5t2.5 6q28 74 55 150q23 65 50 139.5t50 139.5h51z" />
    <glyph glyph-name="x" unicode="x" horiz-adv-x="510" 
d="M49 37q22 29 47 64l50 70q24 35 46 67.5t37 55.5q-31 44 -54 77.5t-41 60.5q-19 26 -34 48t-30 43h41q19 -32 44 -69.5t48 -69.5q26 -38 53 -76q37 50 71.5 100.5t73.5 114.5h40l-162 -232q41 -60 87 -125.5t94 -128.5h-42l-166 239q-38 -60 -80.5 -119t-83.5 -120h-39z
" />
    <glyph glyph-name="y" unicode="y" horiz-adv-x="491" 
d="M91 -116q-10 0 -20.5 1t-19.5 3l4 29q13 -3 26 -3q37 0 63.5 14.5t44.5 35.5q17 22 27 46t15 43q-24 64 -48 123t-48 117q-24 57 -47.5 115t-46.5 119h40l163 -427q2 -4 2.5 -7.5t1.5 -6.5q1 -4 2 -7h4q0 3 1 7q1 3 1.5 6.5t2.5 7.5q16 44 36.5 99.5t42.5 113.5t42.5 114
t36.5 100h40l-181 -457q-14 -35 -31 -68t-39 -60q-22 -26 -50.5 -42t-64.5 -16z" />
    <glyph glyph-name="z" unicode="z" horiz-adv-x="495" 
d="M83 74l-5 -5l-2 -2h300h29t28 2v-34q-11 2 -24 2h-28h-277q-15 0 -29 0.5t-28 -0.5v45l335 405l4 4l2 2h-268h-27.5t-24.5 -2v34q14 -1 27.5 -1.5t29.5 -0.5h292v-46z" />
    <glyph glyph-name="braceleft" unicode="{" horiz-adv-x="330" 
d="M289 775h-24q-25 0 -41 -9t-25 -24q-10 -15 -13.5 -34t-3.5 -38v-190q0 -27 -8 -49t-19 -38t-22.5 -26t-19.5 -12l-15 -3v-2l15 -2q9 -2 20.5 -11t22.5 -24q11 -16 18.5 -38.5t7.5 -51.5v-187q0 -20 3.5 -38.5t13.5 -33.5q9 -15 25 -24t41 -9h24v-23h-50q-14 0 -29.5 7
t-28.5 20q-13 14 -21.5 34t-8.5 46v191q0 26 -7.5 47t-19.5 38q-13 16 -29.5 27.5t-33.5 17.5v33q17 5 33.5 16t29.5 27q12 16 19.5 37t7.5 46v196q0 26 8.5 46t21.5 34q13 13 28.5 20t29.5 7h50v-23z" />
    <glyph glyph-name="bar" unicode="|" horiz-adv-x="230" 
d="M130 -9v-43t1 -40h-33q1 13 1.5 22t0.5 18v767v41.5t-2 41.5h33q-1 -14 -1 -23.5v-18.5v-765z" />
    <glyph glyph-name="braceright" unicode="}" horiz-adv-x="330" 
d="M41 798h50q14 0 29.5 -7t28.5 -20q13 -14 21.5 -34t8.5 -46v-196q0 -25 7.5 -46t20.5 -37q12 -16 28.5 -27t33.5 -16v-33q-17 -6 -33.5 -17.5t-28.5 -27.5q-13 -17 -20.5 -38t-7.5 -47v-191q0 -26 -8.5 -46t-21.5 -34q-13 -13 -28.5 -20t-29.5 -7h-50v23h24q25 0 41 9
t26 24q9 15 12.5 33.5t3.5 38.5v187q0 29 7.5 51.5t18.5 38.5q11 15 22.5 24t20.5 11l15 2v2l-15 3q-8 2 -19.5 12t-22.5 26t-19 38t-8 49v190q0 19 -3.5 38t-12.5 34q-10 15 -26 24t-41 9h-24v23z" />
    <glyph glyph-name="asciitilde" unicode="~" horiz-adv-x="600" 
d="M513 309q-15 -26 -40 -45t-61 -19q-29 0 -59 12t-55 25q-23 11 -50.5 22.5t-59.5 11.5q-22 0 -47 -14t-44 -33q-2 5 -5 8.5t-5 9.5q15 24 41 44.5t61 20.5q23 0 49 -8.5t55 -22.5q11 -6 25 -13t30 -13t32.5 -10t32.5 -4q22 0 46 13.5t43 32.5z" />
    <glyph glyph-name="uni007F" horiz-adv-x="1000" 
 />
    <glyph glyph-name="uni00A0" unicode="&#xa0;" horiz-adv-x="312" 
 />
    <glyph glyph-name="exclamdown" unicode="&#xa1;" horiz-adv-x="950" 
d="M464 575h22q3 -68 7 -133.5t7 -133.5v-387h-51v387zM510 721h-70v74h70v-74z" />
    <glyph glyph-name="currency" unicode="&#xa4;" horiz-adv-x="950" 
d="M475 649q-116 0 -196 -86q-81 -86 -81 -205t81 -206q82 -85 196 -85q115 0 195 85q82 86 82 206q0 118 -82 205q-40 41 -90 63.5t-105 22.5zM152 -4q-7 7 -11.5 12t-11.5 12l114 120q-37 45 -58 100t-21 118t21.5 119t58.5 100q-29 30 -57.5 61t-57.5 61q7 7 11.5 12
t11.5 12l116 -122q43 40 95 62t112 22q59 0 111.5 -22t94.5 -61q29 30 58 60.5t58 60.5q7 -7 11.5 -12t11.5 -12l-115 -122q38 -44 59 -100t21 -119t-20.5 -118t-58.5 -100l114 -120q-7 -7 -11.5 -12t-11.5 -12l-114 119q-42 -40 -95 -62t-113 -22t-113 22.5t-96 62.5z" />
    <glyph glyph-name="section" unicode="&#xa7;" horiz-adv-x="950" 
d="M237 774q64 1 97 -48q32 -48 6 -66q-24 -16 -37 10q-15 30 -15 50q2 32 -58 34q-59 2 -61 -84q-1 -94 107 -181q107 -86 97 -190q-5 -46 -37 -57q-5 -2 -11 -4t-7 -2q-8 -2 -13 -5t-6 -3q-2 2 38 -72q17 -30 17 -66q0 -20 -5.5 -42t-16.5 -45q-14 -29 -37.5 -44.5
t-54.5 -14.5t-57 14t-46 36q-26 35 -14 62q12 25 36 11h-1q27 -17 23 -42q-4 -27 1 -32q8 -12 40 -20q37 -9 64 28q18 24 18 57q0 20 -6 43q-8 29 -24.5 54.5t-37.5 45.5q-23 23 -51.5 54.5t-48.5 57.5q-12 18 -19.5 38.5t-7.5 39.5q0 23 9 47q15 36 46 42q17 3 24.5 6
t8.5 3q2 0 -2.5 7t-11.5 17q-3 5 -7 10.5t-9 12.5q-30 43 -33 99q-5 70 25 103t78 36zM208 460q-59 14 -60 -39q0 -51 29 -89q36 -44 66 -64.5t49 -18.5q55 7 45 55q-11 45 -31 71h1q-22 33 -49.5 57t-49.5 28z" />
    <glyph glyph-name="dieresis" unicode="&#xa8;" horiz-adv-x="950" 
d="M753 834v-80h-78v80h78zM275 834v-80h-78v80h78z" />
    <glyph glyph-name="ordfeminine" unicode="&#xaa;" horiz-adv-x="950" 
d="M769 -19h-573v34h573v-34zM679 251q0 -27 4.5 -50t6.5 -31h-41q-4 11 -8 36.5t-4 54.5q-15 -19 -38.5 -37.5t-50.5 -35.5q-28 -16 -58 -25.5t-62 -11.5q-77 -4 -132 31v-1q-51 34 -56 99q-2 32 6.5 58t24.5 46q16 19 38 32.5t48 21.5q29 9 58.5 13.5t59.5 8.5
q20 2 39 4.5t36 6.5q23 5 54 21q33 19 33 53q0 51 -40 91q-38 41 -122 41q-70 0 -121 -36q-48 -35 -48 -97h-41q-2 73 59 121q62 50 151 50q88 0 146 -47q58 -49 58 -131v-286zM637 472q-15 -15 -33 -22t-34 -11q-34 -10 -92 -17q-64 -8 -85 -12q-62 -13 -87.5 -47
t-24.5 -73q2 -53 43.5 -79.5t110.5 -20.5q29 2 64 16t67 35q71 48 71 105v126z" />
    <glyph glyph-name="uni00AD" unicode="&#xad;" horiz-adv-x="950" 
d="M728 375v-34h-507v34h507z" />
    <glyph glyph-name="registered" unicode="&#xae;" horiz-adv-x="950" 
d="M770 835q9 0 24 -1.5t36 -5.5q42 -6 67 -37q20 -24 25.5 -54t5.5 -50v-640q0 -22 -7 -63q-6 -44 -36 -68q-23 -20 -51 -27.5t-49 -7.5h-620q-21 0 -49 7.5t-51 27.5q-29 25 -37 68q-2 20 -4 37t-2 26v640q0 20 5.5 50t25.5 54q25 31 65 37q41 7 62 7h590zM787 -91
q22 0 44 7.5t35 20.5q20 18 28 44.5t8 53.5v649q0 21 -7 46.5t-18 39.5q-17 22 -43 29.5t-51 7.5h-616q-26 0 -51.5 -7.5t-42.5 -29.5q-11 -14 -18 -39.5t-7 -46.5v-649q0 -27 8 -53.5t27 -44.5q15 -13 36.5 -20.5t43.5 -7.5h624zM786 257l-19 -232h-597v79q0 24 11.5 48.5
t32.5 49.5q21 24 50 48t63 46q75 47 141 75q64 27 94 66q32 41 32 79q0 19 -7 36q-21 55 -90 60q-11 1 -21 1.5t-20 0.5q-55 0 -80 -15q-32 -17 -32 -21q2 0 10 -12h-1q2 -2 3.5 -5t3.5 -6q6 -9 9.5 -18t3.5 -20q0 -7 -2 -15.5t-4 -16.5q-10 -28 -29 -45t-48 -19
q-58 -3 -84 38q-19 31 -19 64q0 24 10 44q14 26 31 46.5t39 34.5v-1q83 57 186 55q104 -2 149 -12q91 -19 145 -90q32 -43 32 -89q0 -32 -16 -72q-14 -34 -39.5 -60t-58.5 -44q-32 -17 -68 -31t-68 -25q-54 -17 -98 -35t-73 -34q-45 -26 -50 -27l333 -1q11 0 25 6.5t23 15.5
q20 22 20 35q0 18 30 18h47z" />
    <glyph glyph-name="degree" unicode="&#xb0;" horiz-adv-x="950" 
d="M133 835q44 0 78 -34q33 -33 33 -83q0 -49 -33 -83q-34 -34 -78 -34q-45 0 -79 34q-32 35 -32 83q0 49 32 83q34 34 79 34zM133 798q-32 0 -54 -23t-22 -57t22 -57t54 -23t54 23t22 57t-22 57t-54 23z" />
    <glyph glyph-name="plusminus" unicode="&#xb1;" horiz-adv-x="950" 
d="M155 457h299v248h41v-248h300v-38h-300v-248h-41v248h-299v38zM155 54h640v-36h-640v36z" />
    <glyph glyph-name="uni00B2" unicode="&#xb2;" horiz-adv-x="950" 
d="M223 615q-12 -8 -27.5 -22t-20.5 -32h153v-27h-191q1 29 16.5 54t55.5 51q11 8 23.5 16.5t23.5 16.5q17 11 27.5 27t10.5 35q0 26 -14 41t-43 15q-33 0 -46 -18t-14 -40h-31q2 30 22 55q23 29 70 29q46 0 67 -25t21 -57q0 -17 -5.5 -30t-13.5 -23q-8 -11 -17.5 -19
t-18.5 -14z" />
    <glyph glyph-name="uni00B3" unicode="&#xb3;" horiz-adv-x="950" 
d="M170 611q0 -20 16 -38.5t50 -18.5q29 0 45.5 16t16.5 41q0 19 -12 32t-29 17q-10 2 -19 2.5t-17 0.5h-3v26h2q8 0 18.5 0.5t18.5 3.5q33 15 33 49q0 20 -15 34t-41 14q-30 0 -43.5 -16t-14.5 -34h-30q1 35 27 55.5t62 20.5q18 0 33.5 -6t27.5 -16t19 -23.5t7 -28.5
q0 -16 -5 -27t-11 -18q-7 -8 -14.5 -12.5t-12.5 -6.5q24 -11 38 -27.5t14 -41.5q0 -35 -25.5 -58.5t-69.5 -23.5q-42 0 -69.5 25t-28.5 59h32z" />
    <glyph glyph-name="acute" unicode="&#xb4;" horiz-adv-x="950" 
d="M474 728q-32 -47 -60.5 -83t-45.5 -53q6 23 21 68.5t35 97.5q8 17 16.5 34t17.5 29q18 27 44 13h-1q22 -13 9 -44q-14 -32 -36 -62zM361 586q2 1 3 2l4 4q-2 -6 -2 -9z" />
    <glyph glyph-name="paragraph" unicode="&#xb6;" horiz-adv-x="950" 
d="M605 805v-894h-32v860h-110v-860h-32v510q-95 0 -147 55q-51 55 -51 138q0 79 53 135q56 56 129 56h190z" />
    <glyph glyph-name="periodcentered" unicode="&#xb7;" horiz-adv-x="950" 
d="M514 398v-80h-78v80h78z" />
    <glyph glyph-name="cedilla" unicode="&#xb8;" horiz-adv-x="950" 
d="M432 -40l90 98q-21 22 -45 46.5t-45 46.5v37l130 -130q-32 -35 -65 -68t-65 -68v38z" />
    <glyph glyph-name="uni00B9" unicode="&#xb9;" horiz-adv-x="950" 
d="M245 540v202h-62v23q13 0 26.5 3.5t23.5 11.5q6 5 12 14.5t7 20.5h21v-275h-28z" />
    <glyph glyph-name="ordmasculine" unicode="&#xba;" horiz-adv-x="950" 
d="M700 440q0 -117 -60 -201t-169 -84q-108 0 -169 82q-58 84 -58 200q0 119 60 200q61 82 169 82q111 0 168 -81q59 -80 59 -198zM769 -19h-573v34h573v-34zM663 437q0 102 -51 174t-137 72q-84 0 -138 -72q-52 -71 -52 -174q0 -102 51 -174q50 -71 137 -71q88 0 138 71
q52 71 52 174z" />
    <glyph glyph-name="onequarter" unicode="&#xbc;" horiz-adv-x="950" 
d="M136 375h678v-34h-678v34zM468 411v310h-93v34q20 1 40 6t34 14q13 8 22 22.5t10 31.5h29v-418h-42zM296 -35v44q51 71 106.5 148t106.5 148h39v-302h71v-38h-71v-83h-42v83h-210zM506 228l-171 -225h171v225z" />
    <glyph glyph-name="onehalf" unicode="&#xbd;" horiz-adv-x="950" 
d="M136 375h678v-34h-678v34zM468 411v310h-93v34q20 1 40 6t34 14q13 8 22 22.5t10 31.5h29v-418h-42zM447 -5q-15 -9 -43 -37q-25 -28 -25 -53h238v-35h-294q2 39 29 86v-1q31 51 79 77l77 44q28 19 46.5 44.5t18.5 58.5q0 42 -24 65.5t-71 23.5q-55 0 -79 -32
q-11 -14 -16.5 -31t-6.5 -33h-42q1 22 10 44t25 43q18 20 46.5 32.5t63.5 12.5t61 -10t43 -27q17 -18 25.5 -41t8.5 -49q0 -50 -28 -81q-14 -16 -29 -28.5t-30 -23.5v1z" />
    <glyph glyph-name="threequarters" unicode="&#xbe;" horiz-adv-x="950" 
d="M136 375h678v-34h-678v34zM296 -39v44q51 71 106.5 148t106.5 148h39v-302h71v-38h-71v-83h-42v83h-210zM506 224l-171 -225h171v225zM367 538q0 -34 25 -65q26 -32 82 -32q49 0 75.5 27t26.5 69q0 30 -20 52t-49 29q-12 3 -26.5 3t-25.5 -1h-11v31h2q12 0 30 1.5t29 6.5
q28 13 43 32.5t15 47.5q0 34 -24 56.5t-67 22.5q-55 0 -74 -28q-20 -26 -19 -57q-11 0 -21 -0.5t-21 -0.5q0 30 11 52.5t30 37.5q18 15 43 22.5t53 7.5q58 0 97 -34q38 -35 38 -81q0 -43 -23 -66q-20 -20 -41 -33q32 -14 54.5 -40.5t22.5 -61.5q0 -57 -40 -93t-107 -36
t-109 39q-40 39 -40 93z" />
    <glyph glyph-name="questiondown" unicode="&#xbf;" horiz-adv-x="950" 
d="M690 155q2 -44 -9.5 -84t-38.5 -76q-53 -74 -173 -74q-104 0 -167 74q-21 26 -32.5 55.5t-11.5 61.5q0 26 7 53q27 108 106 145q83 38 83 137v128h41v-125q0 -118 -89 -162q-92 -48 -106 -149v1q-3 -17 -3 -33q0 -65 47 -103q58 -46 130 -46q94 0 137 61q45 58 40 136h39
zM510 721h-70v74h70v-74z" />
    <glyph glyph-name="AE" unicode="&#xc6;" horiz-adv-x="950" 
d="M568 201h-399q-23 -55 -45 -110t-45 -110h-41q78 191 154 377t154 377h535v-34h-477l128 -311h330v-34h-317l140 -341h205v-34h-233zM182 235h371l-185 455z" />
    <glyph glyph-name="Eth" unicode="&#xd0;" horiz-adv-x="950" 
d="M292 285h285v-34h-285v-236h186q148 0 227 103q80 104 80 240q0 147 -80 245q-77 98 -227 98h-186v-416zM250 251h-161v34h161v450h238q153 0 248 -107q94 -106 94 -270q0 -82 -24.5 -149.5t-69.5 -121.5q-46 -51 -109.5 -78.5t-138.5 -27.5h-238v270z" />
    <glyph glyph-name="multiply" unicode="&#xd7;" horiz-adv-x="950" 
d="M749 46l-275 284q-66 -69 -132.5 -140t-132.5 -140q-7 8 -14 14.5t-14 14.5l268 278q-63 66 -126.5 133t-126.5 133q8 8 13.5 14.5t12.5 14.5l253 -267l252 264q6 -7 12 -13t12 -13l-249 -265q69 -70 136.5 -140.5t136.5 -140.5z" />
    <glyph glyph-name="Oslash" unicode="&#xd8;" horiz-adv-x="950" 
d="M310 61q34 -29 75.5 -44.5t88.5 -15.5q128 0 201 100q75 102 75 257q0 76 -19 140.5t-54 114.5zM651 642q-35 35 -79.5 54t-97.5 19q-60 0 -111.5 -27.5t-88.5 -73.5q-37 -51 -56 -114.5t-19 -141.5q0 -83 21.5 -151t61.5 -118zM256 53q-50 53 -76.5 131t-26.5 174
q0 86 22.5 158.5t63.5 127.5q44 54 103 82.5t132 28.5q60 0 111 -20t91 -56q24 37 49.5 74.5t49.5 74.5q9 -6 15.5 -11t14.5 -11l-104 -154q46 -54 70 -128.5t24 -165.5q0 -175 -87 -286q-86 -111 -234 -111q-55 0 -102 16.5t-87 47.5q-26 -38 -51 -77.5t-51 -77.5
q-8 5 -15.5 11.5t-15.5 11.5q4 6 12.5 19t24.5 37q19 28 35.5 52.5t31.5 47.5v4z" />
    <glyph glyph-name="Thorn" unicode="&#xde;" horiz-adv-x="950" 
d="M276 -29h-42v774h42v-240l6 -1q21 52 78 86q59 35 120 35q109 0 176 -85q68 -85 68 -217q0 -133 -68 -218q-66 -84 -176 -84q-75 0 -125 32t-74 80l-5 -1v-161zM475 585q-45 0 -80.5 -19.5t-61.5 -54.5q-52 -75 -52 -188q0 -115 52 -189q52 -73 142 -73q91 0 143 73
q52 74 52 189q0 113 -52 188q-26 35 -62 54.5t-81 19.5z" />
    <glyph glyph-name="germandbls" unicode="&#xdf;" horiz-adv-x="950" 
d="M307 -49v576q0 112 57 151q29 20 55.5 30t50.5 11h20q78 0 123 -51q23 -25 34.5 -55t12.5 -65q3 -90 -39 -126q-21 -18 -39 -32l-27 -22q15 -5 35.5 -18.5t46.5 -35.5q52 -42 54 -143q0 -44 -13.5 -81t-39.5 -64q-27 -27 -67 -42t-92 -15h-48v38h33q41 0 75 8.5t59 27.5
q24 20 37.5 51t13.5 76q0 91 -49.5 131t-136.5 40h-31v41h23q59 0 112 39q53 38 53 111q0 72 -35.5 109.5t-108.5 37.5q-68 0 -101 -48q-31 -45 -29 -92v-588h-39z" />
    <glyph glyph-name="ae" unicode="&#xe6;" horiz-adv-x="950" 
d="M766 273q0 90 -34.5 145.5t-105.5 55.5q-55 0 -97 -53t-50 -148h287zM437 271q-12 -15 -26.5 -21t-27.5 -10q-11 -5 -29.5 -8.5t-42.5 -7.5q-26 -3 -43 -6t-25 -5q-47 -13 -66.5 -46t-18.5 -70q2 -50 35 -75.5t86 -20.5q22 2 48 15.5t53 34.5q28 23 42.5 46.5t14.5 50.5
v123zM472 54q0 -27 3.5 -50t5.5 -31h-39q-4 10 -6.5 29t-2.5 45l-5 1q-15 -30 -62 -60q-46 -29 -97 -34q-31 -2 -58 6t-48 24q-21 17 -34 42t-14 57q-2 65 23.5 104t70.5 54q23 9 48 13.5t50 8.5q17 2 33 4.5t30 6.5q10 3 22 9t22 15q9 9 15.5 22t6.5 30q0 25 -9 46.5
t-25 41.5q-32 40 -95 40q-55 0 -91 -35t-36 -96h-42q0 74 48 121q50 50 121 50q56 0 100 -34t60 -95q26 58 66 93t93 35q89 0 138 -69.5t49 -214.5h-334q-2 -113 46 -175q47 -62 99 -62q56 0 86.5 30.5t42.5 78.5h43q-15 -55 -54 -103q-40 -51 -116 -49q-48 1 -86 28.5
t-62 75.5z" />
    <glyph glyph-name="eth" unicode="&#xf0;" horiz-adv-x="950" 
d="M275 216q6 -103 66 -163q59 -59 136 -59q74 0 133 59q29 29 46.5 69.5t21.5 93.5h-403zM445 339q-5 6 -10.5 12.5t-10.5 12.5l139 123q-23 12 -44 18.5t-42 6.5q-75 0 -119 -34t-61 -88h-45q20 59 71 108q55 53 154 52q63 0 119 -34q24 21 49.5 44.5t49.5 44.5
q5 -6 10.5 -12.5t10.5 -12.5l-93 -83q48 -41 74 -105t26 -139q0 -122 -67 -210q-66 -87 -179 -87q-99 0 -176 80q-74 77 -71 214h450q1 74 -24.5 129.5t-65.5 88.5z" />
    <glyph glyph-name="divide" unicode="&#xf7;" horiz-adv-x="950" 
d="M145 378h659v-41h-659v41zM474 693q23 0 39.5 -18t16.5 -43q0 -23 -16.5 -40t-39.5 -17t-39.5 17t-16.5 40q0 25 16.5 43t39.5 18zM475 141q21 0 38.5 -18t17.5 -41t-17.5 -41t-38.5 -18t-38.5 15.5t-17.5 43.5q0 23 16.5 41t39.5 18z" />
    <glyph glyph-name="oslash" unicode="&#xf8;" horiz-adv-x="950" 
d="M303 30q-36 42 -55.5 99t-19.5 123q0 124 65 210q66 87 181 87q80 0 143 -49q15 23 31.5 47t31.5 47q7 -5 12.5 -10t11.5 -10l-64 -96q39 -42 59.5 -100t20.5 -126q0 -123 -66 -210q-65 -87 -180 -87q-44 0 -80.5 14t-67.5 39q-13 -20 -28.5 -42.5t-28.5 -42.5
q-7 5 -13 10l-12 10zM350 44q54 -51 124 -51q91 0 146 76q57 76 57 183q0 56 -16 105t-45 84zM593 466q-25 21 -55 33t-64 12q-43 0 -81.5 -20.5t-65.5 -55.5q-27 -37 -41.5 -83.5t-14.5 -99.5q0 -107 57 -184z" />
    <glyph glyph-name="thorn" unicode="&#xfe;" horiz-adv-x="950" 
d="M253 735h41v-287q34 43 83 75q50 32 127 32q79 0 135 -56q54 -56 54 -144v-374h-41v365q0 39 -12 70.5t-33 54.5q-22 22 -51.5 34t-64.5 12q-84 0 -141 -60q-56 -59 -56 -113v-363h-41v754z" />
    <glyph glyph-name="dcroat" unicode="&#x111;" horiz-adv-x="950" 
d="M474 425q-45 0 -80.5 -17.5t-61.5 -49.5q-53 -67 -53 -150q0 -84 53 -150q52 -67 142 -67q89 0 143 66q53 66 53 151q0 83 -53 150q-26 32 -62.5 49.5t-80.5 17.5zM670 571h-344v34h344v130h42v-130h131v-34h-131v-600h-42v88l-5 1q-29 -59 -80 -84t-117 -25
q-107 0 -172 80q-62 80 -62 177q0 55 16.5 102t45.5 82q32 35 75 54t97 19q66 0 118 -27.5t79 -81.5l5 1v214z" />
    <glyph glyph-name="Hbar" unicode="&#x126;" horiz-adv-x="950" 
d="M199 605v130h41v-130h472v130h41v-130h108v-34h-108v-590h-41v380h-472v-380h-41v590h-111v34h111zM240 571v-176h472v176h-472z" />
    <glyph glyph-name="hbar" unicode="&#x127;" horiz-adv-x="950" 
d="M263 595v139h42v-139h338v-34h-338v-209l5 -1q23 47 73.5 80t131.5 33q80 0 135 -61q54 -60 54 -149v-274h-42v265q0 37 -12 70t-32 58q-44 52 -117 52q-41 0 -77 -17.5t-63 -49.5q-56 -65 -56 -120v-258h-42v581h-137v34h137z" />
    <glyph glyph-name="dotlessi" unicode="&#x131;" horiz-adv-x="950" 
d="M496 -19h-42v554h42v-554zM496 691h-42v44h42v-44z" />
    <glyph glyph-name="IJ" unicode="&#x132;" horiz-adv-x="950" 
d="M198 735h42v-754h-42v754zM411 215v-63q0 -89 57 -120q55 -30 98 -30q22 0 47 8t51 22q27 16 42 46t15 74v583h42v-576q0 -106 -60 -151q-59 -47 -137 -47q-75 0 -136 47q-60 45 -60 151v56h41z" />
    <glyph glyph-name="ij" unicode="&#x133;" horiz-adv-x="950" 
d="M345 -19h-42v554h42v-554zM345 691h-42v44h42v-44zM648 701h-42v44h42v-44zM648 -105q0 -20 -3 -38.5t-11 -33.5v1q-9 -15 -24 -24t-35 -9h-35v34h3q12 0 26 1t24 11q10 11 11.5 24.5t1.5 36.5v647h42v-650z" />
    <glyph glyph-name="kgreenlandic" unicode="&#x138;" horiz-adv-x="950" 
d="M289 -49h-40v564h40v-310q32 29 71 65.5t81 78.5q41 42 78 83.5t71 82.5h45q-54 -66 -107.5 -124.5t-104.5 -106.5q67 -83 136 -166.5t136 -166.5h-47l-252 307q-36 -33 -60 -57q-14 -14 -25.5 -24.5t-21.5 -18.5v-207z" />
    <glyph glyph-name="Ldot" unicode="&#x13f;" horiz-adv-x="950" 
d="M666 335q14 0 26 -12t12 -28t-12 -27.5t-26 -11.5t-26 11.5t-12 27.5t12 28t26 12zM279 735v-720h447v-34h-488v754h41z" />
    <glyph glyph-name="ldot" unicode="&#x140;" horiz-adv-x="950" 
d="M644 517q36 0 36 -38q0 -37 -35 -37q-38 0 -38 37q2 38 37 38zM426 735h41v-754h-41v754z" />
    <glyph glyph-name="Lslash" unicode="&#x141;" horiz-adv-x="950" 
d="M238 391v344h41v-307q32 29 67.5 59.5t68.5 59.5q5 -6 11 -12.5t11 -11.5l-158 -140v-368h447v-34h-488v365q-23 -20 -50.5 -44.5t-51.5 -45.5q-5 7 -11 13t-11 13z" />
    <glyph glyph-name="lslash" unicode="&#x142;" horiz-adv-x="950" 
d="M454 330q-40 -35 -82 -72t-82 -72q-6 8 -13.5 15.5t-13.5 15.5l191 166v352h42v-316q41 35 84.5 73t84.5 74q6 -8 13 -15t13 -15l-195 -170v-385h-42v349z" />
    <glyph glyph-name="napostrophe" unicode="&#x149;" horiz-adv-x="950" 
d="M254 525h41v-87q34 43 83 75q50 32 127 32q79 0 135 -56q54 -56 54 -144v-374h-41v365q0 39 -12 70.5t-33 54.5q-22 22 -51.5 34t-64.5 12q-84 0 -141 -60q-56 -59 -56 -113v-363h-41v554z" />
    <glyph glyph-name="Eng" unicode="&#x14a;" horiz-adv-x="950" 
d="M430 -10q45 5 82.5 25t64.5 54t42 80.5t15 103.5t-13 104t-38 84q-26 35 -61.5 54.5t-80.5 19.5q-90 0 -136 -79q-42 -77 -42 -173v-222h-42v704h42v-296l6 -1q9 22 25.5 41.5t38.5 34.5q22 14 49 22.5t57 8.5q109 0 176 -85q68 -85 68 -217q0 -133 -70 -215
q-69 -81 -183 -87v39z" />
    <glyph glyph-name="eng" unicode="&#x14b;" horiz-adv-x="950" 
d="M653 336q0 39 -12 70.5t-33 54.5q-22 22 -51.5 34t-64.5 12q-84 0 -141 -60q-56 -59 -56 -113v-363h-41v554h41v-87q34 43 83 75q50 32 127 32q79 0 135 -56q54 -56 54 -144v-434q0 -21 -5 -46.5t-14 -40.5q-8 -14 -28 -25.5t-35 -11.5h-54v34h10q6 0 11 1q4 0 7.5 0.5
t7.5 0.5q29 1 41 13q10 11 14 33.5t4 44.5v422z" />
    <glyph glyph-name="OE" unicode="&#x152;" horiz-adv-x="950" 
d="M371 755h509v-34h-403q73 -46 116 -131.5t48 -199.5h220v-34h-219q-1 -124 -44 -217t-120 -144h412v-34h-542q-137 0 -216 111q-79 112 -79 286t79 286q79 111 216 111h11q7 0 12 -1v1h-1l2 5zM348 715q-114 0 -184 -101q-33 -50 -51 -115t-18 -141q0 -155 69 -257
q67 -100 184 -100q116 0 183 100q69 102 69 257q0 76 -18 141t-51 115q-70 101 -183 101z" />
    <glyph glyph-name="oe" unicode="&#x153;" horiz-adv-x="950" 
d="M309 474q-65 0 -107 -71q-39 -69 -39 -168q0 -100 39 -169q40 -70 107 -70q65 0 106 71q39 69 39 168t-39 168q-41 71 -106 71zM785 273q0 90 -34.5 145.5t-105.5 55.5q-54 0 -98 -53q-43 -52 -49 -148h287zM480 373q23 65 64.5 104.5t100.5 39.5q88 0 137.5 -69.5
t49.5 -214.5h-334q-2 -113 46 -175q47 -62 99 -62q54 0 85 30.5t44 78.5h43q-15 -55 -54 -103q-40 -51 -116 -49q-58 1 -101 42.5t-67 110.5q-23 -69 -65.5 -111t-102.5 -42q-85 0 -136 83q-23 41 -36.5 91.5t-13.5 107.5q0 117 50 200q52 82 136 82q60 0 101.5 -39.5
t63.5 -104.5h6z" />
    <glyph glyph-name="Tbar" unicode="&#x166;" horiz-adv-x="950" 
d="M454 381h-261v34h261v286h-261v34h564v-34h-261v-286h261v-34h-261v-410h-42v410z" />
    <glyph glyph-name="tbar" unicode="&#x167;" horiz-adv-x="950" 
d="M425 349v153h-57v34h57v170h41v-170h67v-34h-67v-153h177v-34h-177v-226q0 -23 1.5 -36.5t11.5 -24.5q11 -10 25 -11t26 -1h3v-34h-42q-17 0 -31 10t-22 23q-9 14 -11 32.5t-2 38.5v229h-166v34h166z" />
    <glyph glyph-name="caron" unicode="&#x2c7;" horiz-adv-x="950" 
d="M475 715l-188 111l19 29l169 -98l169 98l19 -29z" />
    <glyph glyph-name="uni02D0" unicode="&#x2d0;" horiz-adv-x="950" 
d="M228 483q-16 29 -31 56t-31 56h122zM228 233q16 -29 30.5 -56.5t29.5 -55.5h-122z" />
    <glyph glyph-name="breve" unicode="&#x2d8;" horiz-adv-x="950" 
d="M304 852q27 -40 74 -66t97 -26q51 0 97.5 26t74.5 66q9 -7 16.5 -12.5t16.5 -12.5q-35 -48 -88.5 -77t-116.5 -29q-62 0 -116 29t-89 77z" />
    <glyph glyph-name="dotaccent" unicode="&#x2d9;" horiz-adv-x="950" 
d="M474 631q-81 0 -81 84q0 85 81 85t81 -85q0 -84 -81 -84z" />
    <glyph glyph-name="ring" unicode="&#x2da;" horiz-adv-x="950" 
d="M475 800q-32 0 -52.5 -21t-20.5 -56t20.5 -56t52.5 -21t52.5 21t20.5 56t-20.5 56t-52.5 21zM475 835q45 0 75 -33q31 -34 31 -79t-31 -79q-30 -33 -75 -33t-75 33q-31 34 -31 79t31 79q30 33 75 33z" />
    <glyph glyph-name="ogonek" unicode="&#x2db;" horiz-adv-x="950" 
d="M524 -78q-33 35 -65 68t-65 68l130 130v-37l-90 -93q21 -23 45 -49t45 -49v-38z" />
    <glyph glyph-name="hungarumlaut" unicode="&#x2dd;" horiz-adv-x="950" 
d="M323 586q2 1 3 2.5t3 3.5q-1 -3 -1 -8zM436 728q-32 -47 -61.5 -83t-45.5 -53q5 22 20 67t37 99q6 17 15.5 33.5t17.5 29.5q10 12 21 16t22 -3q22 -13 9 -44q-7 -17 -15.5 -32.5t-19.5 -29.5zM451 586l7 7q-2 -8 -2 -10zM564 728q-32 -46 -61 -82t-45 -53q6 23 20.5 67.5
t35.5 97.5q6 17 15.5 33.5t17.5 29.5q9 11 21 15t24 -2h-1q22 -13 8 -44q-7 -17 -15.5 -32.5t-19.5 -29.5z" />
    <glyph glyph-name="Alpha" unicode="&#x391;" horiz-adv-x="950" 
d="M604 705q7 11 14.5 12t8.5 -10q17 -157 33 -316.5t33 -316.5q2 -25 14 -36q6 -5 19.5 -6t33.5 -1q17 0 14 -11q-4 -13 -22 -13h-194q-15 0 -15 11q5 13 22 13q52 0 65 10q6 4 7.5 15.5t-0.5 26.5l-16 158h-272l-93 -151q-23 -39 -19 -49q6 -10 60 -10q18 0 15 -11
q-4 -13 -23 -13h-170q-14 0 -14 11q2 5 7.5 9t13.5 4q44 0 61 11q8 6 21.5 22.5t27.5 40.5zM617 269l-35 351l-216 -351h251z" />
    <glyph glyph-name="Beta" unicode="&#x392;" horiz-adv-x="950" 
d="M129 7q-18 0 -15 11q4 13 22 13q61 0 76 9h-1q18 11 27 45l136 535q8 35 -4 45q-13 10 -71 10q-15 0 -15 11q5 13 22 13h284q39 0 77 -5.5t64 -28.5q18 -15 29.5 -40t11.5 -54q0 -8 -1 -16.5t-3 -17.5q-18 -73 -76 -116q-58 -42 -126 -50v-6q68 -8 118 -46q37 -28 37 -79
q0 -21 -6 -45q-8 -27 -24.5 -58t-39.5 -51q-60 -54 -128 -66q-65 -13 -148 -13h-246zM362 375h60q53 0 90 3.5t64 14.5q20 8 40.5 21t40.5 30q42 34 53 79q7 24 7 47q0 26 -9 44.5t-24 29.5q-22 19 -64.5 25t-115.5 6q-45 0 -58 -9q-12 -9 -21 -43zM289 87q-5 -18 -6 -30
t4 -17q9 -9 55 -9q23 0 50.5 0.5t54.5 2.5q28 1 52.5 5.5t41.5 12.5q14 6 32 20t34 29q17 17 30 39.5t19 45.5q9 33 9 61q0 61 -47 78q-62 25 -160 25h-102z" />
    <glyph glyph-name="Gamma" unicode="&#x393;" horiz-adv-x="950" 
d="M363 620q8 35 -4 45q-11 10 -72 10q-17 0 -14 11q4 13 22 13h495q8 0 10.5 -2t0.5 -11q-11 -52 -21.5 -107t-21.5 -107q-4 -11 -13 -12.5t-9 9.5q3 24 4.5 46.5t1.5 39.5q0 74 -24 92q-37 28 -225 28q-45 0 -58 -9q-6 -4 -11 -15.5t-9 -27.5q-32 -126 -65 -256.5
t-65 -256.5q-6 -24 -8 -41t2 -24q8 -14 76 -14q18 0 15 -11q-3 -13 -23 -13h-230q-19 0 -16 11q4 13 23 13q67 0 81 14q14 13 28 63z" />
    <glyph glyph-name="uni0394" unicode="&#x394;" horiz-adv-x="950" 
d="M582 620q-37 -60 -78.5 -128t-84.5 -137q-43 -70 -85 -138t-79 -129q-22 -36 -17 -48q6 -11 63 -11h265q26 0 41.5 2.5t23.5 8.5q7 6 8.5 16t-0.5 25zM699 78q1 -11 1.5 -20.5t0.5 -17.5q0 -19 -6 -26t-25 -7h-444q-17 0 -25 3t-8 12q0 16 23 53l389 630q7 11 14 12
t8 -10z" />
    <glyph glyph-name="Epsilon" unicode="&#x395;" horiz-adv-x="950" 
d="M677 236q7 19 16.5 18t4.5 -18q-15 -52 -31.5 -107t-32.5 -107q-8 -15 -21 -15h-508q-18 0 -15 11q4 13 22 13q61 0 76 9h-1q18 11 27 45l136 535q8 35 -4 45q-13 10 -71 10q-15 0 -15 11q5 13 22 13h497q8 0 10.5 -2t0.5 -11q-11 -52 -21.5 -107t-21.5 -107
q-5 -16 -14.5 -18t-6.5 15q6 49 6 86q0 77 -26 94v-1q-39 27 -226 27q-45 0 -58 -9q-6 -4 -11 -15.5t-9 -27.5l-64 -250q121 0 153 17q34 20 68 108q7 21 15.5 21.5t4.5 -19.5q-17 -67 -35 -137t-35 -137q-5 -14 -13.5 -15t-6.5 13q3 28 3 49q0 48 -18 59v-1q-24 17 -142 17
q-16 -63 -33.5 -130.5t-33.5 -130.5q-5 -18 -6 -30t4 -17q9 -9 55 -9q201 0 251 29q53 30 108 176z" />
    <glyph glyph-name="Zeta" unicode="&#x396;" horiz-adv-x="950" 
d="M616 675q-154 0 -196 -27q-41 -26 -100 -178q-7 -18 -16 -17.5t-3 17.5q15 52 31.5 107t32.5 107q3 9 8 12t13 3h424q10 0 8.5 -6t-8.5 -15l-589 -647h166q155 0 197 27q41 26 100 178q6 18 15 17.5t3 -17.5q-15 -52 -31.5 -107t-32.5 -107q-8 -15 -21 -15h-458
q-10 0 -8.5 6t8.5 15l583 647h-126z" />
    <glyph glyph-name="Eta" unicode="&#x397;" horiz-adv-x="950" 
d="M659 378q14 54 28 109t28 109q6 24 8 41t-2 23q-9 15 -76 15q-17 0 -15 11q3 13 23 13h230q18 0 15 -11q-4 -13 -23 -13q-66 0 -80 -14q-15 -12 -29 -63l-124 -488q-12 -51 -4 -65v1q9 -15 74 -15q18 0 16 -11q-3 -13 -23 -13h-230q-18 0 -15 11q4 13 23 13q66 0 80 14
q8 7 15 23.5t13 39.5l62 242h-357l-62 -240q-13 -52 -5 -65v1q9 -15 76 -15q18 0 15 -11q-3 -13 -23 -13h-230q-18 0 -15 11q4 13 23 13q67 0 81 14q8 6 14.5 23t12.5 40q15 58 30.5 119.5t32.5 124.5q16 63 31.5 124.5t30.5 119.5q6 24 8 41t-3 24v-1q-9 15 -76 15
q-17 0 -15 11q3 13 23 13h230q18 0 15 -11q-4 -13 -23 -13q-66 0 -80 -14q-14 -13 -28 -63l-56 -220h356z" />
    <glyph glyph-name="Theta" unicode="&#x398;" horiz-adv-x="950" 
d="M565 714q135 0 194 -107q38 -67 38 -147q0 -50 -15 -107q-37 -147 -154 -255q-115 -107 -249 -107q-65 0 -114.5 28t-79.5 78q-18 34 -28 71t-10 77q0 48 14 106q20 72 59 138t94 118q57 50 121 78.5t130 28.5zM556 684q-118 0 -209 -97q-45 -48 -76.5 -108t-49.5 -126
q-8 -31 -12 -61t-4 -57q0 -66 22 -117q44 -98 161 -98q119 0 209 96q92 98 126 235q8 31 12 60t4 57q0 64 -23 118q-41 98 -160 98zM386 338q-16 0 -26.5 -10t-14.5 -21t-10.5 -23.5t-17.5 -12.5q-7 0 -5.5 10.5t4.5 25.5q7 24 14.5 49.5t14.5 49.5q5 14 10.5 25.5
t10.5 11.5q8 0 7 -15q-1 -9 -1.5 -17t0.5 -15t7 -13.5t22 -6.5h166q14 0 23 6t13 12h-1q5 6 7 11l4 10q5 11 10.5 20t12.5 9q6 0 5.5 -9.5t-5.5 -26.5q-7 -24 -14 -49.5t-14 -49.5q-5 -16 -9.5 -27.5t-12.5 -11.5t-9 12.5t0 23.5q0 10 -5 21t-21 11h-165z" />
    <glyph glyph-name="Iota" unicode="&#x399;" horiz-adv-x="950" 
d="M445 110q-6 -24 -8 -41t3 -24q8 -14 75 -14q18 0 15 -11q-4 -13 -23 -13h-231q-19 0 -16 11q4 13 24 13q67 0 81 14q14 13 28 63q14 55 29.5 117.5t32.5 126.5q16 64 31 126l30 118q5 23 7 39.5t-2 24.5q-9 15 -75 15q-18 0 -15 11q4 13 23 13h231q18 0 15 -11
q-4 -13 -23 -13q-67 0 -81 -14q-14 -13 -28 -63z" />
    <glyph glyph-name="Kappa" unicode="&#x39a;" horiz-adv-x="950" 
d="M274 226l-29 -116q-12 -49 -5 -65q8 -14 75 -14q18 0 16 -11q-3 -13 -23 -13h-230q-19 0 -16 11q4 13 23 13q67 0 81 14q8 7 15 23.5t13 39.5q15 58 30.5 119.5t31.5 124.5t31.5 124.5t30.5 119.5q5 23 7 39.5t-2 24.5q-9 15 -75 15q-16 0 -16 11q5 13 23 13h230
q19 0 16 -11q-4 -13 -23 -13q-67 0 -81 -14q-14 -13 -28 -63l-82 -326l396 349q30 27 30 37q0 11 -22.5 14t-71.5 3q-16 0 -13 11q4 13 21 13h243q18 0 15 -11q-4 -13 -22 -13q-51 0 -70 -6q-17 -4 -50 -32l-269 -236q40 -79 83.5 -164t83.5 -164q12 -24 30 -34q18 -8 64 -8
q15 0 12 -11q-3 -13 -20 -13h-253q-14 0 -14 11q5 13 22 13q34 0 55.5 1.5t31.5 6.5t10 14t-7 24l-141 287z" />
    <glyph glyph-name="Lambda" unicode="&#x39b;" horiz-adv-x="950" 
d="M582 620l-326 -530q-23 -39 -19 -49q6 -10 60 -10q18 0 15 -11q-4 -13 -23 -13h-170q-14 0 -14 11q2 5 7.5 9t13.5 4q44 0 61 11q8 6 21.5 22.5t27.5 40.5q88 145 183.5 299.5t184.5 300.5q7 11 14.5 12t8.5 -10q17 -157 33 -316.5t33 -316.5q2 -25 14 -36q6 -5 19.5 -6
t33.5 -1q17 0 14 -11q-4 -13 -22 -13h-194q-15 0 -15 11q5 13 22 13q52 0 65 10q6 4 7.5 15.5t-0.5 26.5z" />
    <glyph glyph-name="Mu" unicode="&#x39c;" horiz-adv-x="950" 
d="M163 106q-6 -23 -7.5 -39.5t2.5 -22.5q7 -13 65 -13q18 0 15 -11q-3 -13 -22 -13h-191q-19 0 -16 11q4 13 23 13q29 0 45.5 3.5t24.5 9.5q13 11 26 60q31 121 63.5 248t63.5 248q6 24 7 40.5t-4 22.5q-9 12 -63 12q-15 0 -15 11q5 13 22 13h156q6 0 7 -2.5t2 -12.5
l52 -577l333 577q3 6 7.5 10.5t9.5 4.5h156q17 0 14 -11q-3 -13 -21 -13q-62 0 -78 -9q-8 -5 -13.5 -16.5t-9.5 -27.5q-32 -125 -65.5 -256t-65.5 -256q-6 -24 -8 -41t3 -24q8 -14 75 -14q18 0 15 -11q-3 -13 -22 -13h-230q-19 0 -16 11q4 13 23 13q67 0 81 14q14 13 28 63
l139 549l-6 3l-374 -646q-7 -14 -15 -16t-10 9l-57 657l-6 1z" />
    <glyph glyph-name="Nu" unicode="&#x39d;" horiz-adv-x="950" 
d="M741 600q6 23 7.5 39.5t-2.5 22.5q-7 13 -65 13q-16 0 -16 11q5 13 24 13h191q18 0 15 -11q-4 -13 -23 -13q-56 0 -70 -13q-13 -11 -26 -60q-36 -145 -76 -299.5t-76 -299.5q-4 -8 -12 -9.5t-12 9.5l-257 641l-137 -538q-5 -24 -6.5 -41t3.5 -25q6 -9 63 -9q18 0 15 -11
q-3 -13 -23 -13h-191q-18 0 -15 11q4 13 23 13q29 0 45.5 3.5t24.5 9.5t14.5 22t11.5 38q15 59 31 121.5t32 126.5t32 126.5t31 121.5q14 49 4 63q-9 12 -64 12q-14 0 -14 11q5 13 22 13h128q11 0 15 -12l229 -574z" />
    <glyph glyph-name="Xi" unicode="&#x39e;" horiz-adv-x="950" 
d="M139 7q-14 0 -11 13l44 204q3 16 13 17q5 1 7 -4t2 -10q-3 -23 -4.5 -43.5t-1.5 -36.5q0 -62 22 -78q33 -21 107 -21h180q74 0 117 22q44 22 95 156q7 19 16 17.5t5 -17.5l-65 -204q-3 -9 -7.5 -12t-12.5 -3h-506zM794 699q8 0 11 -2.5t1 -10.5l-45 -204q-3 -15 -14 -17
q-8 -1 -7 14q3 22 4 40t1 34q0 64 -23 82q-34 23 -106 23h-123q-74 0 -117 -21q-45 -23 -94 -157q-3 -9 -8 -13.5t-8 -3.5q-4 0 -6 4.5t0 12.5l66 204q3 10 7 12.5t12 2.5h449zM371 333q-15 0 -25.5 -10t-15.5 -21t-12.5 -23.5t-15.5 -12.5t-7 9.5t6 26.5q7 24 14 49.5
t14 49.5q5 14 10.5 25.5t10.5 11.5q9 0 8 -15q-1 -9 -1.5 -17t0.5 -15t7.5 -13.5t20.5 -6.5h202q14 0 23 6t13 12l4 9q3 5 5 10q5 12 10.5 21.5t13.5 9.5q6 0 5.5 -9.5t-5.5 -26.5l-29 -99q-3 -17 -8 -28t-13 -11q-9 0 -10 12.5t0 23.5q0 10 -4.5 21t-20.5 11h-200z" />
    <glyph glyph-name="Omicron" unicode="&#x39f;" horiz-adv-x="950" 
d="M565 714q135 0 194 -107q38 -67 38 -147q0 -50 -15 -107q-37 -147 -154 -255q-115 -107 -249 -107q-65 0 -114.5 28t-79.5 78q-18 34 -28 71t-10 77q0 48 14 106q20 72 59 138t94 118q57 50 121 78.5t130 28.5zM556 684q-118 0 -209 -97q-45 -48 -76.5 -108t-49.5 -126
q-8 -31 -12 -61t-4 -57q0 -66 22 -117q44 -98 161 -98q119 0 209 96q92 98 126 235q8 31 12 60t4 57q0 64 -23 118q-41 98 -160 98z" />
    <glyph glyph-name="Pi" unicode="&#x3a0;" horiz-adv-x="950" 
d="M543 675q-92 0 -115 -10q-26 -11 -41 -67l-30 -118q-15 -62 -31.5 -126t-31.5 -126q-16 -63 -30 -118q-6 -24 -8 -41t3 -24q8 -14 75 -14q18 0 15 -11q-4 -13 -23 -13h-231q-18 0 -15 11q4 13 23 13q67 0 81 14q14 13 28 63q14 55 29.5 117.5t32.5 126.5q16 64 31 126
l30 118q5 23 7 39.5t-2 24.5q-9 15 -75 15q-18 0 -15 11q4 13 23 13h576q18 0 15 -11q-4 -13 -23 -13q-67 0 -81 -14q-14 -13 -28 -63l-30 -118q-15 -62 -31.5 -126t-31.5 -126q-16 -63 -30 -118q-6 -24 -8 -41t2 -24q8 -14 76 -14q18 0 15 -11q-4 -13 -23 -13h-231
q-19 0 -16 11q4 13 24 13q67 0 81 14q14 13 28 63q14 55 29.5 117.5t32.5 126.5q16 64 31 126l30 118q6 21 6 38q0 22 -14 30h1q-19 11 -130 11z" />
    <glyph glyph-name="Rho" unicode="&#x3a1;" horiz-adv-x="950" 
d="M488 675q-45 0 -58 -9q-6 -4 -11 -15.5t-9 -27.5l-71 -277h122q86 0 155 32q70 35 95 131q7 27 7 53q0 55 -34 84t-100 29h-96zM585 699q48 0 86.5 -12.5t65.5 -33.5q38 -33 38 -89q0 -11 -1.5 -25t-5.5 -28q-10 -39 -31.5 -70.5t-56.5 -60.5q-20 -17 -43.5 -28.5
t-46.5 -18.5q-24 -7 -47 -9.5t-42 -2.5h-168l-55 -211q-13 -52 -5 -65v1q9 -15 76 -15q18 0 15 -11q-3 -13 -23 -13h-230q-18 0 -15 11q4 13 23 13q67 0 81 14q8 6 14.5 23t12.5 40l132 512q9 33 -5 45q-11 10 -72 10q-17 0 -14 11q4 13 22 13h295z" />
    <glyph glyph-name="Sigma" unicode="&#x3a3;" horiz-adv-x="950" 
d="M164 7q-26 0 -26 5q0 3 6.5 12.5t14.5 20.5l281 305q-30 76 -63 156.5t-63 156.5q-7 22 -3.5 29t21.5 7h461q8 0 10.5 -2t0.5 -11q-11 -51 -21.5 -105t-21.5 -105q-4 -11 -12.5 -12.5t-9.5 9.5q2 17 2.5 33t0.5 30q0 93 -31 113q-23 12 -89.5 19t-175.5 7q-51 0 -60 -8
q-10 -9 2 -46l98 -235q2 -4 2 -5q3 -7 1.5 -15t-12.5 -21l-263 -278q-17 -18 -10 -27t32 -9q257 0 326 27q70 27 129 174q7 19 16.5 18t3.5 -18q-15 -51 -31.5 -105t-32.5 -105q-8 -15 -20 -15h-463z" />
    <glyph glyph-name="Tau" unicode="&#x3a4;" horiz-adv-x="950" 
d="M774 699q8 0 10.5 -2t0.5 -11q-11 -52 -22 -107t-22 -107q-5 -16 -14.5 -18.5t-6.5 15.5q9 66 9 108q0 52 -15 70q-26 31 -116 31q-37 0 -50 -7q-11 -7 -19 -35l-134 -526q-13 -52 -5 -65v1q9 -15 76 -15q18 0 15 -11q-3 -13 -23 -13h-231q-18 0 -15 11q4 13 23 13
q67 0 81 14q8 6 14.5 23t12.5 40q32 131 67 263t67 263q4 15 4.5 23.5t-4.5 13.5q-6 4 -17.5 5.5t-31.5 1.5q-89 0 -131 -31q-41 -33 -95 -177q-7 -19 -16 -18t-4 18l65 214q3 10 7.5 12.5t12.5 2.5h507z" />
    <glyph glyph-name="Upsilon" unicode="&#x3a5;" horiz-adv-x="950" 
d="M381 110q-12 -51 -8 -64q6 -15 64 -15q18 0 16 -11q-3 -13 -23 -13h-198q-19 0 -16 11q4 13 24 13q55 0 66 14q6 7 11.5 23.5t11.5 39.5q16 64 33.5 131.5t34.5 131.5q12 47 18.5 90t6.5 76q0 15 -1 28t-3 25q-15 82 -132 82q-29 0 -23.5 8t31.5 9q117 4 149 -59
q34 -66 27 -136l5 -1q46 85 119 147q72 61 141 60q29 0 43.5 -20t6.5 -51q-7 -26 -24.5 -39.5t-39.5 -13.5q-13 0 -23 11.5t-7 28.5q3 15 11 27.5t24 24.5q-85 -2 -170 -99t-106 -190z" />
    <glyph glyph-name="Phi" unicode="&#x3a6;" horiz-adv-x="950" 
d="M432 106q111 9 186 78q76 70 101 167q5 18 7.5 35t2.5 34q0 55 -26 99q-40 69 -146 80zM381 108l124 491q-112 -11 -187 -80t-101 -166q-5 -18 -7.5 -35.5t-2.5 -34.5q0 -55 26 -99q42 -68 145 -79zM371 86q-118 9 -181 86q-20 26 -30.5 57t-10.5 63q0 25 8 59
q14 51 45 97t81 84q99 78 227 87q5 17 2.5 29.5t-9.5 17.5q-12 9 -68 9q-16 0 -16 11q5 13 23 13h231q18 0 15 -11q-4 -13 -22 -13q-58 0 -74 -9q-8 -5 -16.5 -17.5t-13.5 -29.5q124 -11 183 -87q41 -53 41 -118q0 -14 -1.5 -29.5t-6.5 -31.5q-25 -103 -125 -180
q-99 -77 -226 -87q-5 -18 -4 -29t9 -17q8 -5 25 -7t46 -2q18 0 15 -11q-3 -13 -22 -13h-231q-19 0 -16 11q4 13 23 13q56 0 73 9q20 10 29 42z" />
    <glyph glyph-name="Chi" unicode="&#x3a7;" horiz-adv-x="950" 
d="M450 357q-24 66 -49.5 134t-49.5 134q-12 34 -27 43q-13 7 -66 7q-17 0 -14 11q4 13 22 13h236q18 0 15 -11q-4 -13 -23 -13q-63 0 -76 -7q-17 -9 -3 -45l79 -215q45 53 91.5 107t91.5 107q24 27 24 37q0 11 -17 13.5t-56 2.5q-14 0 -14 11q5 13 22 13h207q17 0 14 -11
q-4 -13 -21 -13q-54 0 -69 -7q-8 -3 -19.5 -14t-27.5 -28l-214 -250l99 -272q19 -49 34 -61t69 -12q17 0 14 -11q-3 -13 -21 -13h-247q-15 0 -15 11q5 13 22 13q70 0 84 11q7 5 5.5 23t-9.5 41l-80 219l-187 -218q-46 -53 -37 -65q8 -11 77 -11q17 0 14 -11q-4 -13 -22 -13
h-219q-8 0 -11 3.5t-3 7.5q5 12 22 13q55 2 73 12q10 5 24.5 19.5t37.5 40.5z" />
    <glyph glyph-name="Psi" unicode="&#x3a8;" horiz-adv-x="950" 
d="M427 236q32 5 85 18q50 14 81 52q19 26 33.5 65.5t22.5 92.5q8 52 22 92.5t33 71.5q6 10 13.5 21t16.5 21q9 9 21 15.5t27 8.5q19 3 34 3q43 0 47 -23q8 -30 -9 -41q-38 -26 -48 3q-5 17 -11.5 27.5t-14.5 11.5q-56 2 -66 -151q-5 -72 -25 -128.5t-50 -93.5
q-20 -22 -49.5 -39t-58.5 -26q-31 -8 -59 -12.5t-51 -6.5q-6 -26 -13 -54t-13 -54q-6 -24 -8 -41t2 -24q8 -14 76 -14q18 0 15 -11q-4 -13 -23 -13h-231q-19 0 -16 11q4 13 24 13q67 0 81 14q14 13 28 63l27 110q-22 2 -47 7.5t-51 13.5q-25 10 -43.5 26.5t-29.5 42.5
q-6 13 -8.5 27.5t-2.5 30.5q0 68 47 162q38 79 38 114q0 32 -31 32q-23 -2 -45 -42q-9 -18 -21 -18t-28 19q-9 11 10 40q16 24 61 24q15 0 35 -3q15 -2 24 -8.5t14 -15.5t7.5 -19.5t3.5 -20.5q8 -61 -35 -161q-15 -37 -23 -67t-8 -54q0 -17 5 -32q12 -40 54 -59
q39 -17 78 -21q23 89 46 180t46 180q6 23 8 40.5t-3 24.5q-8 14 -75 14q-16 0 -16 11q5 13 24 13h231q18 0 15 -11q-4 -13 -23 -13q-67 0 -81 -14q-14 -13 -28 -63z" />
    <glyph glyph-name="uni03A9" unicode="&#x3a9;" horiz-adv-x="950" 
d="M464 48h33q81 0 123 19q21 10 43.5 42t41.5 79q6 11 13 12t3 -10q-14 -42 -27 -84t-27 -84q-3 -7 -7 -11t-12 -4h-222q10 38 18.5 74.5t18.5 74.5q104 7 183 86q39 38 65.5 84t39.5 96q11 41 11 76q0 30 -8 59.5t-22 53.5q-48 80 -161 80q-112 0 -199 -80
q-88 -79 -115 -187q-5 -21 -8 -40.5t-3 -39.5q0 -26 6.5 -52.5t17.5 -48.5q21 -37 56 -59.5t84 -27.5q-10 -38 -18.5 -74.5t-18.5 -74.5h-230q-16 0 -13 13l33 168q3 17 11 19.5t6 -16.5q-3 -26 -3 -45q0 -62 25 -78q32 -20 115 -20h37l24 89q-106 20 -157 100
q-15 27 -23.5 56t-8.5 59q0 32 9 70q17 58 51.5 110.5t87.5 94.5q108 87 242 87q133 0 196 -87q44 -59 44 -133q0 -33 -9 -70q-27 -105 -116 -185q-87 -78 -207 -101z" />
    <glyph glyph-name="alpha" unicode="&#x3b1;" horiz-adv-x="950" 
d="M305 444q48 -25 50 -79q0 -8 0.5 -14t0.5 -11q1 -30 0 -33l4 -3q5 5 23 41q0 3 3 6q8 16 16 31t13 26q1 1 3 5q8 15 18 29t24 8q28 -16 -6 -66q-18 -27 -35 -55t-33 -56q-8 -14 -16.5 -31.5t-16.5 -32.5q-2 -4 -5.5 -11.5t-5.5 -11.5q-11 -21 -14.5 -44t-1.5 -45
q8 -61 57 -55q41 5 29 -15q-15 -26 -54 -21q-38 6 -57 25q-11 11 -16.5 28t-9.5 31q-13 -25 -77 -70q-34 -25 -67 -25q-30 0 -65 23q-67 42 -59 130t54 169v-1q41 70 107 117q37 27 77 27q31 0 60 -16zM286 427q-54 19 -110 -41q-28 -30 -48.5 -61.5t-34.5 -62.5
q-14 -28 -22.5 -61t-12.5 -67q-6 -70 41 -94q18 -9 38 -9q42 0 80 41q58 60 78 113q12 29 20.5 65t12.5 75q8 82 -42 102z" />
    <glyph glyph-name="beta" unicode="&#x3b2;" horiz-adv-x="950" 
d="M64 -44q-8 -49 -15.5 -72t-23.5 -20q-21 6 -18 32q3 15 6 28.5t6 27.5l48 216q20 89 47 187t62 207q30 95 90 122q27 13 56 13q34 0 70 -18q40 -19 63 -59t23 -91q0 -25 -8 -57q-9 -26 -25.5 -50.5t-36.5 -34.5q-21 -10 -35.5 -16t-19.5 -8q2 -2 8.5 -10t14.5 -19
q6 -9 15 -21q30 -40 25 -113q-2 -35 -13 -69t-32 -67q-42 -63 -110 -69q-45 -3 -77.5 10t-47.5 42q-8 15 -14 26.5t-11 19.5q-9 15 -9 18l-5 1q-2 -4 -13 -54q-5 -26 -10 -51l-10 -50v-1zM272 357q-23 5 -38 15.5t-14 21.5q4 22 38 12q25 -8 45 -12q4 -1 7.5 -2t7.5 -2
q26 -5 65 31q39 39 45 103q4 57 -16.5 92.5t-58.5 51.5q-22 8 -44 3t-42 -21q-21 -17 -38 -44t-28 -62q-32 -101 -66 -240q-33 -141 -27 -171q8 -33 47 -67q21 -17 43 -24.5t47 -5.5q72 7 98 77q26 68 27 121q2 48 -18 82q-18 33 -23 38q-5 0 -23 -0.5t-34 3.5z" />
    <glyph glyph-name="gamma" unicode="&#x3b3;" horiz-adv-x="950" 
d="M9 342q-14 9 19 70q33 62 103 55q50 -5 75 -45.5t27 -106.5q-1 -36 -1 -63v-45q0 -22 0.5 -32t5.5 -5t16 23q2 4 5.5 9.5t7.5 10.5q2 5 3 6.5t2 2.5q11 17 24.5 37t27.5 43q14 24 28 46.5t27 42.5h-1q6 8 12 17.5t11 17.5q35 51 60 29q11 -10 6 -27t-22 -40
q-20 -23 -42 -50t-43 -55q-28 -36 -49 -64t-28 -39q-8 -13 -19.5 -37t-26.5 -56q-13 -27 -22.5 -53.5t-17.5 -50.5l-12 -36q-15 -42 -34 -66t-42 -12h1q-14 9 -11 37q4 14 10 30t14 30t20 37l28 52q3 5 5.5 9t4.5 9v-1q23 39 25 45q1 5 1.5 41.5t0.5 104.5q1 135 -81 162
q-57 17 -84 -40q-24 -51 -34 -44v1z" />
    <glyph glyph-name="delta" unicode="&#x3b4;" horiz-adv-x="950" 
d="M274 426q-9 2 -17.5 3.5t-17.5 1.5q-48 0 -83 -41q-48 -54 -68 -129q-5 -22 -8 -43t-3 -43q0 -15 1.5 -31.5t4.5 -30.5q8 -35 28 -59t52 -34q9 -2 17.5 -3.5t17.5 -1.5q47 0 81 42q23 28 39.5 61t25.5 68q12 46 12 92q0 13 -1 27t-3 27q-12 74 -78 94zM352 403
q17 -17 31.5 -44.5t22.5 -56.5q8 -34 8 -62q0 -33 -9 -69q-11 -42 -34 -79t-57 -63q-48 -37 -101 -37q-23 0 -52 8q-41 12 -71.5 40t-47.5 66q-20 47 -20 99q0 34 9 70q11 39 32 74.5t50 60.5q59 52 146 41q-10 12 -25.5 33.5t-27.5 38.5h1q-11 17 -18.5 38t-7.5 42
q0 30 18 56q27 39 68 39q7 0 15.5 -2t16.5 -4q30 -11 57 -28t47 -40q23 -28 56 -79q28 -46 5 -63q-30 -22 -49 21q-10 23 -27.5 51t-38.5 57q-14 19 -32 31.5t-37 15.5q-39 6 -57 -21q-9 -18 -9 -35q0 -33 31 -75q23 -31 50 -62.5t57 -61.5z" />
    <glyph glyph-name="epsilon" unicode="&#x3b5;" horiz-adv-x="950" 
d="M355 420q-19 24 -48 30t-64 6q-46 0 -78 -26t-32 -72q0 -29 15 -47.5t36 -32.5q22 -14 47 -16.5t52 -1.5q15 1 30 0t15 -13q0 -13 -32 -11q-11 1 -18.5 1.5t-12.5 0.5h-6q-67 -4 -105 -31.5t-38 -79.5q0 -54 39.5 -85.5t112.5 -31.5q32 0 58 11.5t40 35.5v-1q5 8 7 20
t3 23q1 19 11 34.5t31 11.5q14 -2 20.5 -15.5t1.5 -29.5q-14 -57 -64 -84t-115 -27q-84 0 -145 35h1q-58 34 -58 100q0 50 39 82.5t101 38.5v6q-25 3 -47.5 11.5t-38.5 22.5q-17 13 -27 31.5t-10 43.5q0 48 45 82q47 34 122 34q65 0 119 -18q52 -17 66 -72q3 -14 -5 -24
t-20 -13q-18 -3 -27.5 8.5t-11.5 31.5q-1 8 -2.5 17t-6.5 14z" />
    <glyph glyph-name="zeta" unicode="&#x3b6;" horiz-adv-x="950" 
d="M224 694q10 -11 -1 -22.5t-31 -26.5l1 1q-2 -1 -2 -1.5t-2 -1.5q-25 -18 -37.5 -38.5t-12.5 -38.5q0 -14 9 -27t24 -21q17 -7 46.5 10t64.5 44q15 11 37 22.5t49 25.5q12 5 23 8.5t19 3.5q19 0 25 -14q9 -20 -24 -48q-32 -28 -72 -50q-51 -29 -92 -37q-20 -4 -30 -5.5
t-11 -1.5q-5 -6 -27.5 -39.5t-51.5 -79.5q-26 -41 -39.5 -79t-13.5 -72q0 -13 2 -24t5 -22q28 -93 132 -82q48 6 77 -16.5t39 -70.5q5 -29 -6 -52.5t-37 -39.5q-53 -35 -109 -35q-32 0 -66 8q-30 7 -30 24q0 11 13 19.5t45 5.5q5 -1 14.5 -1.5t20.5 -2.5q18 -3 42 -6
q63 -8 74 44q8 45 -51 53q-27 4 -50 8.5t-44 9.5q-28 8 -49.5 22.5t-32.5 34.5q-23 44 -23 85q0 54 17 106.5t48 99.5q34 48 53 75t21 30q-2 1 -13 7t-28 16q-33 19 -31 73q2 51 52 94q50 41 64 25z" />
    <glyph glyph-name="eta" unicode="&#x3b7;" horiz-adv-x="950" 
d="M132 372q-4 71 -57 63q-20 -4 -28.5 0.5t-3.5 15.5q5 9 18 13.5t32 2.5q38 -4 58 -27q12 -14 19 -31t11 -31q11 24 69 71q28 23 64 23q17 0 36.5 -6t39.5 -16q65 -34 53 -118q-5 -42 -16 -84.5t-27 -86.5q-23 -62 -39 -105q-5 -14 -11 -32.5t-12 -37.5q-3 -8 -5.5 -16.5
t-5.5 -17.5q-4 -13 -11 -29t-17 -35q-18 -34 -45 -22q-26 12 -12 42q15 31 33 69q10 20 23 52t30 76t31 84t24 75q7 24 12 86q2 31 -9.5 52.5t-31.5 32.5q-23 10 -44 10q-20 0 -39.5 -10.5t-36.5 -27.5q-52 -58 -72 -123q-9 -30 -20.5 -73.5t-25.5 -98.5q-29 -106 -62 -92
q-16 7 -16 28q0 31 37 93q32 54 46.5 112t10.5 119z" />
    <glyph glyph-name="theta" unicode="&#x3b8;" horiz-adv-x="950" 
d="M325 699q42 -11 69.5 -47.5t41.5 -95.5q12 -53 12 -108q0 -36 -4.5 -74t-15.5 -79q-36 -143 -117 -231q-32 -33 -64.5 -51t-64.5 -18q-15 0 -33 5q-82 26 -111 142q-12 51 -12 108q0 36 4.5 74t15.5 79q37 145 117 231q67 70 130 70q14 0 32 -5zM380 371q7 36 10 69.5
t3 65.5q0 18 -1.5 35t-3.5 33q-14 86 -65 100q-63 17 -122 -66q-29 -42 -52.5 -97t-41.5 -123q0 -1 -0.5 -2t-0.5 -2l-2 -8l2 -5h274zM97 349q-18 -84 -18 -158q0 -16 1 -30.5t3 -28.5q13 -93 68 -108q61 -16 121 67q29 41 53 98.5t41 123.5l3 9q1 5 2 9t3 18h-277z" />
    <glyph glyph-name="iota" unicode="&#x3b9;" horiz-adv-x="950" 
d="M264 466q22 -5 18 -33q-5 -30 -18 -64q-2 -4 -4 -10.5t-6 -14.5q-4 -10 -9.5 -23t-12.5 -29q-12 -29 -22.5 -59t-20.5 -57q-6 -15 -10.5 -34.5t-8.5 -42.5q-6 -48 47 -57q51 -8 74 21q20 25 26 7q7 -17 -34 -51q-20 -17 -40 -23.5t-38 -3.5q-60 14 -68 57
q-3 20 -4.5 38.5t0.5 27.5q6 34 33 131q10 32 16.5 56.5t11.5 41.5q5 14 7 23q1 4 2 7t2 7q5 20 9.5 36.5t9.5 28.5q9 28 40 20z" />
    <glyph glyph-name="kappa" unicode="&#x3ba;" horiz-adv-x="950" 
d="M177 461q26 -4 26 -23q0 -9 -4.5 -24.5t-11.5 -33.5q-5 -11 -12 -29.5t-13 -37.5q-6 -17 -10 -31.5t-1 -14.5h46q34 0 55 27.5t44 74.5q26 48 55 73.5t64 18.5q21 -4 37 -17.5t15 -39.5q-1 -17 -13 -24t-28 -8q-19 -1 -30 16v-1q-12 23 -42 7q-25 -13 -39 -49
q-14 -37 -25 -50q-18 -25 -41 -35.5t-34 -13.5q6 -2 16 -8.5t21 -16.5q22 -22 22 -55q0 -59 6 -85.5t31 -31.5q46 -7 67 40q18 41 34 34q13 -6 -3 -42t-38 -55q-17 -15 -42.5 -23.5t-54.5 -2.5q-36 11 -42 48q-6 39 -6 82q0 11 -1 26.5t-3 32.5q-3 38 -39 38h-51
q0 -4 -3 -14q-2 -6 -4.5 -15.5t-6.5 -22.5q-6 -23 -11.5 -47t-10.5 -48q-9 -38 -18 -63q-7 -23 -34 -11q-12 4 -12 23q0 14 7 34q9 25 21 62.5t26 85.5q2 7 7 23t11 36q0 4 2 8q16 49 27 99q4 25 12 57q8 31 32 27z" />
    <glyph glyph-name="lambda" unicode="&#x3bb;" horiz-adv-x="950" 
d="M189 686q11 11 25 11q19 0 47 -20q24 -17 40 -37.5t23 -40.5q8 -29 12.5 -57t2.5 -48q-2 -14 -2.5 -25.5t-1.5 -19.5q0 -4 -0.5 -8.5t-0.5 -6.5q-1 -8 -1 -23v-33q0 -12 -0.5 -26t-0.5 -31q0 -85 31 -158q14 -34 26 -60.5t22 -43.5q21 -36 3 -54q-22 -25 -45 13v-1
q-23 42 -41 104q-10 34 -15.5 78.5t-6.5 92.5q-1 51 -1 84v37q-2 -4 -24.5 -39.5t-59.5 -93.5q-36 -57 -59.5 -107t-34.5 -92q-6 -21 -14 -38.5t-17 -29.5t-19.5 -17.5t-20.5 -2.5q-17 4 -17 24q0 16 12 42q13 28 25 51t24 41q25 39 56 85.5t69 100.5q14 20 25 35t20 28
q14 20 22 31.5t10 14.5q1 3 2.5 18t3.5 38q2 25 -5.5 47.5t-22.5 36.5q-14 12 -29 22.5t-26 15.5l-27 15q-12 9 -14.5 22.5t5.5 24.5z" />
    <glyph glyph-name="uni03BC" unicode="&#x3bc;" horiz-adv-x="950" 
d="M146 329q4 17 12.5 40.5t21.5 52.5q24 54 56 36q12 -6 12 -24q0 -22 -21 -64q-18 -36 -32.5 -66t-24.5 -52q-14 -32 -23.5 -60.5t-14.5 -49.5q-6 -22 -8.5 -35t-2.5 -14t2 -4q1 -2 3 -5t4 -7t4.5 -8t5.5 -9q18 -33 76 -28q25 3 43.5 12t32.5 23q13 13 21.5 28.5
t14.5 30.5q11 29 24 94q8 33 14.5 62t13.5 52q5 17 12.5 37t17.5 45q19 46 46 36q14 -6 14 -28q0 -21 -14 -60q-14 -40 -27 -73t-26 -61q-9 -20 -18 -41.5t-17 -44.5q-17 -49 -4 -69q16 -25 42 -25q25 0 47 22q8 8 10.5 5t0.5 -11q-6 -29 -31 -48q-24 -18 -47 -12
q-25 8 -37.5 29t-14.5 40q-8 -9 -19 -19l-24 -25q-29 -29 -87 -29q-42 0 -64 22q-20 19 -33 42q-2 -6 -4 -13.5t-4 -15.5q-5 -16 -11.5 -43t-13.5 -67q-5 -40 -18.5 -53.5t-25.5 -10.5q-16 6 -16 27q0 11 4.5 27.5t11.5 35.5q6 14 13 28.5t14 27.5q12 25 22 47.5t14 45.5
q1 2 3 11.5t4 20.5t5.5 25t7.5 31q9 40 17 75t16 64z" />
    <glyph glyph-name="nu" unicode="&#x3bd;" horiz-adv-x="950" 
d="M135 461q21 7 37 -30q18 -40 16 -96q0 -70 -42 -172q-17 -41 -28 -66q-10 -24 -12 -34q-6 -6 0 -4q0 -3 4 0h-1q16 6 68 31q35 16 69 45t63 66q38 48 59 95t22 88q2 78 20 74q8 -1 8 -31q0 -14 -2 -35t-6 -47q-9 -51 -27.5 -101t-46.5 -85q-69 -93 -169 -135
q-94 -41 -108 -24q-7 11 12 48q10 18 21 47t23 71q24 81 22 125q-2 43 -9 74q-4 17 -6 31.5t-4 28.5q-3 29 17 36zM106 59v3l3 -3h-3z" />
    <glyph glyph-name="xi" unicode="&#x3be;" horiz-adv-x="950" 
d="M250 338q-79 11 -131 -47q-54 -58 -45 -130q12 -92 122 -87q51 2 80 -20.5t35 -66.5q6 -73 -70 -101q-35 -13 -55 -13q-21 0 -26 17q1 11 12.5 18t34.5 6q58 -2 59 48q2 38 -47 44q-22 3 -42.5 7.5t-40.5 11.5q-56 20 -77 60.5t-20 84.5q2 88 50 131q23 21 41 35t29 21
l-18 18q-4 3 -9.5 9t-9.5 10q-17 20 -17 49q0 14 5 36q11 40 34 54h1q22 12 34 26q2 5 6 55q5 48 66 73q13 5 28.5 8t29.5 2q30 0 31 -25q2 -23 -64 -20q-72 3 -69 -50q2 -24 38 -21q17 2 39.5 2.5t51.5 1.5q34 2 67 -9q29 -10 25 -31q-6 -22 -38 -22q-16 0 -33 4
q-68 15 -118 14q-41 -1 -78 -26v1q-37 -23 -32 -70q7 -61 64 -59h15q22 1 41.5 1.5t35.5 0.5q40 0 79 -10q40 -8 35 -38q-5 -27 -53 -19q-17 3 -33 6t-32 5q-8 2 -15 2.5t-15 2.5h-1z" />
    <glyph glyph-name="omicron" unicode="&#x3bf;" horiz-adv-x="950" 
d="M297 459q85 -24 122 -107q25 -51 25 -108q0 -34 -9 -70q-13 -46 -38.5 -84t-60.5 -64q-24 -17 -50 -26t-54 -9q-23 0 -52 8q-39 11 -71.5 39.5t-51.5 66.5q-11 26 -17.5 53.5t-6.5 54.5q0 33 9 71q12 48 37 85t60 63q49 35 105 35q24 0 53 -8zM292 437q-9 3 -17.5 4
t-17.5 1q-46 0 -85 -39q-25 -25 -43.5 -60t-28.5 -72q-6 -22 -8.5 -43.5t-2.5 -43.5q0 -38 7 -69q18 -75 89 -95q9 -2 17.5 -3.5t17.5 -1.5q48 0 84 41q24 26 42 61t28 73q12 45 12 89q0 36 -7 65q-15 73 -87 93z" />
    <glyph glyph-name="pi" unicode="&#x3c0;" horiz-adv-x="950" 
d="M14 355q-10 10 17 53q13 21 43 31.5t62 10.5q12 -1 35.5 -1.5t50.5 -1.5q15 -1 30 -1h57q15 0 27 1q32 1 59 4.5t45 9.5q33 12 30 -29q-3 -31 -18 -34q-6 -1 -19.5 -1.5t-20.5 -0.5q-11 1 -24 1h-28q-32 0 -37 -10q-3 -11 -10 -51.5t-15 -94.5q-12 -78 -12 -120
q0 -22 3 -32q18 -61 58 -36h-1q30 17 27 -9q-5 -26 -33 -35q-28 -10 -47 -4q-41 14 -44 46q-1 14 -1 30t1 26q2 37 21 146q19 107 19 136q0 12 -56 10q-55 0 -58 -8q-5 -15 -12 -46.5t-16 -76.5q-18 -92 -38 -162q-8 -23 -18.5 -44t-22.5 -37q-11 -16 -23.5 -19t-23.5 5
q-2 3 -4 8.5t-1 14.5q0 9 4.5 22.5t15.5 31.5q3 5 6 11t8 13q14 22 31 51t31 65q5 16 11 39t12 55q12 65 7 70q-6 6 -34 5q-31 0 -48 -10h1q-24 -15 -31 -28q-4 -10 -16 -4z" />
    <glyph glyph-name="rho" unicode="&#x3c1;" horiz-adv-x="950" 
d="M324 439q-17 5 -31 5q-43 0 -81 -38q-49 -49 -69 -125q-9 -39 -9 -78q0 -35 8 -72q9 -34 30.5 -57.5t50.5 -33.5q13 -4 31 -4q45 0 81 38q23 25 41.5 58.5t27.5 68.5q10 37 10 77q0 36 -9 71q-10 32 -30.5 56.5t-50.5 33.5zM85 163q-2 -15 -4.5 -38t-5.5 -53
q-3 -29 -4.5 -59t-0.5 -59q1 -20 0.5 -40.5t-2.5 -42.5q-3 -40 -29 -38q-11 1 -15.5 14.5t-4.5 37.5q0 29 5 72t13 97q7 45 14.5 89t18.5 83q5 20 9 35.5t7 26.5q3 10 4.5 17.5t2.5 11.5q12 37 37 67.5t58 52.5q23 14 47.5 22t47.5 8q11 0 22.5 -2t23.5 -5q39 -12 70 -37.5
t49 -64.5q23 -49 23 -105q0 -16 -1.5 -32.5t-6.5 -33.5q-24 -90 -95 -141q-48 -34 -101 -34q-24 0 -48 7q-50 14 -82.5 54t-45.5 91z" />
    <glyph glyph-name="sigma" unicode="&#x3c3;" horiz-adv-x="950" 
d="M246 407q4 1 12 1h23q26 1 53 -11q76 -36 90 -120q2 -11 3 -22t1 -22q0 -61 -30 -121q-19 -38 -49 -65t-66 -43q-36 -14 -67 -14q-41 0 -79 22q-63 35 -85 111q-9 30 -9 62q0 41 17 87q3 7 10 20.5t18 33.5q11 19 31.5 42.5t48.5 49.5q56 48 141 50q9 0 17 0.5t16 0.5
q57 0 78 -9q23 -9 19 -26q-5 -17 -28 -10q-20 5 -44 8t-52 2q-56 -1 -72 -22zM148 34q22 -14 50 -14q30 0 60 21q54 37 89 103q34 64 33 132q0 69 -54 99q-25 13 -51 13q-15 0 -32 -5t-31 -14q-53 -35 -90 -101q-17 -35 -24 -68t-6 -67q2 -70 57 -99h-1z" />
    <glyph glyph-name="tau" unicode="&#x3c4;" horiz-adv-x="950" 
d="M254 391q-4 -8 -13 -35t-24 -74t-23.5 -74.5t-10.5 -36.5q-10 -38 -12.5 -61.5t3.5 -35.5q12 -23 31 -29q13 -4 30 -4q11 0 22 2.5t21 6.5q13 5 22 4.5t8 -7.5q-2 -23 -43 -39q-42 -17 -65 -15q-58 5 -69 39q-7 17 -7.5 35t2.5 35q5 25 18 66t31 95q18 52 28 87t8 43
q-1 5 -17.5 6.5t-42.5 0.5t-46 -4t-28 -8h1q-22 -12 -30 -29q-6 -9 -16 -2q-11 9 16 53q15 20 42 31t63 9q3 0 8.5 -0.5t9.5 -0.5q23 -1 54.5 -1.5t66.5 -0.5h34q67 1 100 14q28 12 25 -29q-3 -31 -18 -34q-8 -1 -18.5 -1.5t-21.5 0.5q-21 1 -77 3q-57 2 -62 -9z" />
    <glyph glyph-name="upsilon" unicode="&#x3c5;" horiz-adv-x="950" 
d="M118 463q38 -2 32 -46q-2 -23 -7 -44t-12 -38q-14 -35 -29.5 -76.5t-30.5 -85.5q-10 -29 -10 -56q0 -53 40 -81q22 -16 48 -16q32 0 69 22q67 41 105 116q36 74 51.5 130t6.5 90q-2 11 -3 19.5t-1 14.5q0 30 21 29q22 -2 33 -36q9 -21 9 -44q0 -15 -5 -38
q-14 -63 -63 -155q-50 -93 -122 -142q-20 -14 -43.5 -22t-47.5 -8q-34 0 -66 20q-35 22 -50.5 51t-12.5 62q9 69 36 159q17 60 17 120q0 57 35 55z" />
    <glyph glyph-name="phi" unicode="&#x3c6;" horiz-adv-x="950" 
d="M45 299q26 91 89 132q66 42 126 36q18 -2 15 -10t-22 -10q-21 -1 -43.5 -12.5t-41.5 -32.5q-20 -21 -36.5 -51t-25.5 -68q-5 -22 -7.5 -42.5t-2.5 -40.5q0 -49 18 -87t57 -61q10 39 19.5 78.5t18.5 77.5q1 5 2 11t2 11q8 35 13 60.5t6 30.5q8 29 21.5 55t30.5 43
q21 21 43 21q14 0 33 -11v1q44 -33 71 -100q7 -19 11 -39.5t4 -39.5q0 -14 -1.5 -29.5t-6.5 -32.5q-23 -88 -89 -135q-53 -36 -111 -36q-7 0 -14 0.5t-18 2.5q-5 -24 -10 -50.5t-10 -50.5q-16 -71 -46 -56q-14 7 -14 17.5t6 30.5q2 5 4 12.5t4 15.5q3 10 6 22t6 25
q2 10 5.5 21t6.5 22q-26 10 -51.5 35t-47.5 62q-14 25 -21.5 52.5t-7.5 54.5q0 32 9 65zM208 40q66 -3 110 45q21 23 36.5 53.5t24.5 64.5q6 21 8.5 41t2.5 40q0 38 -11 70.5t-34 61.5q-41 32 -68 -48q-12 -38 -20 -67.5t-12 -49.5z" />
    <glyph glyph-name="chi" unicode="&#x3c7;" horiz-adv-x="950" 
d="M215 221q-5 29 -9.5 58t-7.5 59q-3 31 -13 51t-24 28q-13 6 -26.5 2.5t-24.5 -17.5q-20 -26 -26 -19q-8 11 17 49q28 40 63 37q34 -3 51 -36q10 -18 14 -31t5 -22q1 -11 3 -48q2 -21 4 -39.5t6 -35.5q14 19 31 41.5t33 44.5t26.5 36.5t14.5 19.5q1 1 1.5 2t1.5 2
q13 17 22.5 30t19.5 23q18 20 43 -5q20 -20 -6 -44q-5 -5 -10 -9.5t-10 -9.5q-8 -7 -14.5 -13t-12.5 -12q-4 -4 -9 -8.5t-11 -10.5l-46 -46q-22 -23 -38.5 -42.5t-29.5 -36.5q4 -19 9 -43t13 -53q8 -30 19 -47.5t25 -25.5q37 -18 58 16q18 28 24 19q9 -11 -16 -50
q-25 -40 -50 -43q-19 -2 -40.5 12.5t-39.5 53.5q-9 19 -15 50t-12 59q-1 2 -2 6.5t-2 6.5q-2 -3 -6.5 -8t-7.5 -9l-44 -55q-16 -19 -25 -30t-11 -14q-17 -23 -45 -51q-26 -26 -43 -7q-17 18 4 39q11 11 24 23.5t28 26.5q6 6 18 17.5t28 28.5q15 16 33.5 36t36.5 41z" />
    <glyph glyph-name="psi" unicode="&#x3c8;" horiz-adv-x="950" 
d="M118 56q11 27 17.5 51.5t10.5 37.5q2 6 2 7v2q1 2 2 6q1 3 2 7t3 9q3 13 10 35q8 26 15 61.5t12 74.5q3 20 7.5 40.5t9.5 43.5q5 19 15 28.5t24 5.5t18 -16t-1 -30q-5 -20 -12.5 -42t-15.5 -43q-14 -35 -25 -68.5t-19 -60.5q-2 -9 -4 -16.5t-4 -13.5q-4 -13 -5 -19t-2 -7
q-3 -3 -10 -32q-2 -6 -3.5 -12.5t-3.5 -13.5q-2 -9 -5.5 -20.5t-5.5 -21.5q30 0 63.5 19.5t59.5 46.5q46 52 53 140q4 43 14.5 79.5t27.5 65.5q6 10 14 21.5t18 21.5t22 16.5t27 7.5q22 2 16 -4q-5 -5 -11.5 -10t-17.5 -11q-43 -25 -51 -144q-7 -112 -66 -183
q-18 -20 -40 -34.5t-45 -24.5t-45.5 -16t-41.5 -7q-2 -10 -4.5 -21.5t-5.5 -22.5q-2 -9 -4.5 -20t-4.5 -19q-6 -38 -19.5 -63.5t-33.5 -19.5q-13 4 -16.5 13t-0.5 21q5 14 12 31.5t16 35.5q6 13 14 36q2 7 5.5 15.5t5.5 14.5q-30 8 -56.5 25t-40.5 55q-9 25 -9 54
q0 56 31 131q14 33 21 58.5t7 45.5q0 30 -18 43q-5 4 -8 8.5t-3 8.5q0 3 3.5 4.5t13.5 -0.5q25 -5 34.5 -24t11.5 -39q7 -56 -25 -147q-11 -32 -17 -58.5t-6 -49.5q0 -17 3 -30q6 -25 23 -41t38 -24z" />
    <glyph glyph-name="omega" unicode="&#x3c9;" horiz-adv-x="950" 
d="M189 445q3 -9 -45 -41q-49 -34 -75 -138q-12 -47 -12 -100q0 -27 3 -54q9 -84 68 -72q31 8 50.5 33.5t23.5 67.5t9.5 79.5t13.5 71.5q5 18 11.5 35t15.5 30q18 25 35 22q9 -5 15.5 -13.5t6.5 -22.5q0 -7 -1 -15.5t-4 -19.5q-17 -65 -32 -94q-21 -43 -33 -101
q-2 -9 -3 -16.5t-1 -14.5q0 -33 21 -48q19 -13 36 -13q16 0 32 11.5t30 31.5q43 66 52 132q4 29 6 54.5t2 47.5q0 52 -11 85q-8 25 -10.5 45t2.5 25q22 20 53 -79q19 -57 19 -113q0 -21 -3 -41.5t-8 -41.5q-12 -42 -28.5 -76.5t-36.5 -58.5q-21 -24 -44.5 -37t-49.5 -13
q-39 2 -62 32q-23 31 -28 59q-14 -29 -62 -61q-23 -15 -44 -15q-22 0 -46 19q-51 46 -49 145q3 100 39 172q28 59 84 95q52 35 60 6z" />
    <glyph glyph-name="uni0401" unicode="&#x401;" horiz-adv-x="950" 
d="M222 725h507v-34h-466v-311h447v-34h-447v-341h475v-34h-516v754zM376 890q17 0 28.5 -12.5t11.5 -29.5t-11.5 -29.5t-28.5 -12.5q-16 0 -27.5 12.5t-11.5 29.5t11.5 29.5t27.5 12.5zM574 890q16 0 28 -12.5t12 -29.5t-12 -29.5t-28 -12.5t-28 12.5t-12 29.5t12 29.5
t28 12.5z" />
    <glyph glyph-name="uni0410" unicode="&#x410;" horiz-adv-x="950" 
d="M679 201h-406q-23 -54 -46 -110t-46 -110h-42q79 191 157 377t157 377h46q78 -190 157 -377t157 -377h-42zM287 235h378l-189 455z" />
    <glyph glyph-name="uni0411" unicode="&#x411;" horiz-adv-x="950" 
d="M272 15h273q41 0 75 12.5t58 36.5q24 23 37.5 56t13.5 74q0 75 -54 120t-127 45h-276v-344zM719 701h-447v-308h265q16 0 45.5 -2.5t59.5 -13.5q36 -14 84 -59q51 -47 44 -142q-7 -89 -70 -142t-181 -53h-288v754h488v-34z" />
    <glyph glyph-name="uni0412" unicode="&#x412;" horiz-adv-x="950" 
d="M231 -19v754h297q94 0 148 -46q53 -46 61 -113q2 -10 2 -19v-17q0 -62 -28 -99q-19 -24 -38 -40t-41 -23q17 -5 40 -19.5t50 -39.5q55 -49 48 -143q-7 -89 -70 -142t-181 -53h-288zM272 15h273q41 0 75 12.5t58 36.5q24 23 37.5 56t13.5 74q0 75 -54 120t-127 45h-276
v-344zM272 393h265q92 0 127 47q37 47 37 104q0 58 -39 108q-37 49 -124 49h-266v-308z" />
    <glyph glyph-name="uni0413" unicode="&#x413;" horiz-adv-x="950" 
d="M230 745h507v-34h-465v-740h-42v774z" />
    <glyph glyph-name="uni0414" unicode="&#x414;" horiz-adv-x="950" 
d="M220 55q32 63 51 146.5t26 187.5q7 103 10 191t3 165h409v-690h76v-254h-42v220h-557v-220h-41v254h65zM677 55v656h-326q0 -48 -3 -126.5t-8 -184.5t-25 -191.5t-53 -153.5h415z" />
    <glyph glyph-name="uni0415" unicode="&#x415;" horiz-adv-x="950" 
d="M222 735h507v-34h-466v-311h447v-34h-447v-341h475v-34h-516v754z" />
    <glyph glyph-name="uni0416" unicode="&#x416;" horiz-adv-x="950" 
d="M454 745h42v-486q80 118 165.5 243t166.5 243h49l-244 -358q75 -104 151 -208t151 -208h-52l-276 376l-111 -162v-214h-42v215l-117 166q-65 -91 -137.5 -190.5t-138.5 -190.5h-52l305 416q-62 89 -123 179t-123 179h48l338 -486v486z" />
    <glyph glyph-name="uni0417" unicode="&#x417;" horiz-adv-x="950" 
d="M263 162q0 -60 50 -110q51 -50 162 -50q86 0 142 50q57 50 58 130q1 72 -51 115q-24 19 -49.5 32.5t-45.5 16.5q-23 3 -49 3.5t-47 0.5h-9v42h5q21 0 48.5 1t52.5 7q49 15 82.5 52t36.5 99q3 72 -48 118q-25 20 -59 33t-72 13q-89 0 -133 -43q-21 -21 -32.5 -43
t-12.5 -45h-41q2 61 56 115q56 56 167 56q92 0 156 -59q63 -57 61 -142q-1 -79 -39 -123q-17 -18 -37.5 -33.5t-38.5 -22.5q56 -24 98 -71q45 -46 43 -123q-1 -99 -68 -159q-67 -61 -178 -61t-182 56q-69 54 -69 145h43z" />
    <glyph glyph-name="uni0418" unicode="&#x418;" horiz-adv-x="950" 
d="M198 -19v754h41v-702q112 170 230.5 350.5t230.5 351.5h52v-754h-41v704q-113 -173 -230.5 -352t-230.5 -352h-52z" />
    <glyph glyph-name="uni0419" unicode="&#x419;" horiz-adv-x="950" 
d="M192 -25v766h53v-686q112 171 225.5 343t225.5 343h62v-766h-53v688q-112 -172 -225.5 -344t-225.5 -344h-62zM643 896q-8 -28 -24 -51.5t-38 -40.5q-23 -18 -50 -27.5t-56 -9.5q-60 0 -105.5 36.5t-62.5 92.5h37q17 -39 51.5 -66.5t79.5 -27.5q22 0 42.5 8t37.5 21
t30 30t20 35h38z" />
    <glyph glyph-name="uni041A" unicode="&#x41a;" horiz-adv-x="950" 
d="M229 -19h-41v754h41v-432q43 38 97.5 89.5t117.5 111.5q62 60 114.5 118t96.5 113h50q-71 -89 -144 -167.5t-139 -141.5q90 -111 181.5 -222.5t181.5 -222.5h-52l-341 417q-52 -49 -95 -87.5t-68 -59.5v-270z" />
    <glyph glyph-name="uni041B" unicode="&#x41b;" horiz-adv-x="950" 
d="M329 711v-553q0 -76 -24 -137q-23 -60 -103 -60v44q57 2 71 47q14 47 14 76v617h460v-774h-41v740h-377z" />
    <glyph glyph-name="uni041C" unicode="&#x41c;" horiz-adv-x="950" 
d="M502 -19h-53l-261 675l-6 -1v-674h-41v754h59l276 -713q69 177 138 356.5t138 356.5h59v-754h-41v674l-6 1z" />
    <glyph glyph-name="uni041D" unicode="&#x41d;" horiz-adv-x="950" 
d="M712 361h-472v-380h-41v754h41v-340h472v340h41v-754h-41v380z" />
    <glyph glyph-name="uni041E" unicode="&#x41e;" horiz-adv-x="950" 
d="M471 755q148 0 234 -111q87 -111 87 -286t-87 -286q-86 -111 -234 -111q-73 0 -132 28.5t-103 82.5q-41 55 -63.5 127.5t-22.5 158.5t22.5 158.5t63.5 127.5q44 54 103 82.5t132 28.5zM471 715q-127 0 -201 -101q-75 -101 -75 -256t75 -257q76 -100 201 -100
q62 0 112.5 26t87.5 74q76 103 76 257t-76 256q-37 46 -88.5 73.5t-111.5 27.5z" />
    <glyph glyph-name="uni041F" unicode="&#x41f;" horiz-adv-x="950" 
d="M244 711v-740h-41v774h545v-774h-41v740h-463z" />
    <glyph glyph-name="uni0420" unicode="&#x420;" horiz-adv-x="950" 
d="M209 735h301q107 0 175 -62q69 -60 69 -165q0 -51 -18 -91.5t-51 -69.5q-34 -27 -78 -41.5t-97 -14.5h-259v-310h-42v754zM251 325h261q79 0 139 45q60 46 60 138q0 97 -60 145t-139 48h-261v-376z" />
    <glyph glyph-name="uni0421" unicode="&#x421;" horiz-adv-x="950" 
d="M782 191q-8 -34 -29 -69.5t-55 -76.5q-69 -84 -215 -84q-149 0 -234 111q-86 112 -86 286t86 286q85 111 234 111q140 0 214 -86q71 -83 87 -144h-45q-10 29 -30.5 60.5t-49.5 63.5q-30 31 -75 48.5t-101 17.5q-60 0 -111.5 -27.5t-88.5 -73.5q-37 -51 -56 -114.5
t-19 -141.5q0 -157 75 -257q73 -100 200 -100q117 0 177 66q60 67 76 124h46z" />
    <glyph glyph-name="uni0422" unicode="&#x422;" horiz-adv-x="950" 
d="M454 701h-261v34h564v-34h-261v-730h-42v730z" />
    <glyph glyph-name="uni0423" unicode="&#x423;" horiz-adv-x="950" 
d="M475 229q48 125 98 253t98 253h44l-262 -672q-10 -26 -20.5 -46.5t-27.5 -31.5q-14 -8 -27.5 -11t-34.5 -3h-24v35h30q25 0 36.5 16t21.5 39l45 112q-55 140 -110 281t-110 281h44z" />
    <glyph glyph-name="uni0424" unicode="&#x424;" horiz-adv-x="950" 
d="M491 73q133 6 214 81q82 73 82 204t-82 204q-41 37 -94.5 57.5t-119.5 22.5v-569zM459 643q-133 -6 -214 -81q-82 -73 -82 -204t83 -205t213 -80v570zM459 36q-150 6 -244 95q-93 90 -93 227q0 136 93 226t244 96v75h32v-75q151 -6 244 -96t93 -226t-93 -226
q-91 -90 -244 -96v-75h-32v75z" />
    <glyph glyph-name="uni0425" unicode="&#x425;" horiz-adv-x="950" 
d="M474 338q-60 -86 -125 -178.5t-125 -178.5h-46l272 390q-63 91 -126.5 182t-126.5 182h45l231 -332q56 80 116.5 166t116.5 166h46l-255 -364q68 -98 136.5 -195t136.5 -195h-46z" />
    <glyph glyph-name="uni0426" unicode="&#x426;" horiz-adv-x="950" 
d="M253 26h443v720h42v-721h76v-164h-42v131h-561v754h42v-720z" />
    <glyph glyph-name="uni0427" unicode="&#x427;" horiz-adv-x="950" 
d="M764 -29h-42v381l-5 1q-16 -35 -42.5 -61.5t-60.5 -44.5t-73.5 -27t-82.5 -7q-82 3 -177 55q-44 26 -67.5 69t-23.5 100v308h42v-268q0 -133 86 -181q72 -39 156 -39h15q8 0 16 1q42 4 80.5 22.5t70.5 49.5q66 66 66 130v285h42v-774z" />
    <glyph glyph-name="uni0428" unicode="&#x428;" horiz-adv-x="950" 
d="M769 5v740h41v-774h-670v774h41v-740h273v740h42v-740h273z" />
    <glyph glyph-name="uni0429" unicode="&#x429;" horiz-adv-x="950" 
d="M140 -29v774h41v-740h273v740h42v-740h273v740h41v-740h76v-164h-41v130h-705z" />
    <glyph glyph-name="uni042A" unicode="&#x42a;" horiz-adv-x="950" 
d="M348 401v-396h250q45 0 82.5 16t63.5 45q55 63 55 137t-55 137q-26 29 -63.5 45t-82.5 16h-250zM307 711h-209v34h250v-310h250q106 0 175 -64q69 -63 69 -168t-69 -168q-69 -64 -175 -64h-291v740z" />
    <glyph glyph-name="uni042B" unicode="&#x42b;" horiz-adv-x="950" 
d="M163 15h273q41 0 75 12.5t58 36.5q24 23 37.5 56t13.5 74q0 75 -54 120t-128 45h-275v-344zM163 393h265q7 0 19 -1t27 -2q14 -2 29 -5.5t29 -7.5q18 -7 39.5 -22t45.5 -37q51 -47 44 -142q-7 -89 -70 -142t-181 -53h-289v754h42v-342zM768 735h42v-754h-42v754z" />
    <glyph glyph-name="uni042C" unicode="&#x42c;" horiz-adv-x="950" 
d="M255 15h273q41 0 75 12.5t58 36.5q24 23 37.5 56t13.5 74q0 75 -54 120t-127 45h-276v-344zM255 393h265q16 0 45.5 -2.5t59.5 -13.5q36 -14 84 -59q51 -47 44 -142q-7 -89 -70 -142t-181 -53h-288v754h41v-342z" />
    <glyph glyph-name="uni042D" unicode="&#x42d;" horiz-adv-x="950" 
d="M344 340v36h410q-3 156 -79 248q-74 92 -195 92q-90 0 -158 -44q-68 -45 -84 -111h-46q15 44 39.5 77.5t59.5 62.5q70 57 188 57q150 0 233 -110q84 -108 84 -289q0 -180 -85 -289t-231 -109q-115 0 -191.5 49.5t-105.5 144.5h48q23 -76 90 -114.5t158 -38.5
q113 0 190 85q39 44 60.5 106t25.5 147h-411z" />
    <glyph glyph-name="uni042E" unicode="&#x42e;" horiz-adv-x="950" 
d="M566 715q-114 0 -179 -101h1q-67 -100 -67 -256q0 -157 66 -257q67 -100 179 -100q55 0 99.5 25.5t78.5 74.5q33 51 50.5 116t17.5 141q0 157 -68 256h1q-65 101 -179 101zM141 375h137q4 170 81 275q78 105 207 105q133 0 211 -111t78 -286t-78 -286t-211 -111
q-129 0 -207 105q-77 105 -81 275h-137v-360h-42v754h42v-360z" />
    <glyph glyph-name="uni042F" unicode="&#x42f;" horiz-adv-x="950" 
d="M351 308q-66 15 -119 68q-53 55 -53 142q0 91 63 154t174 63h308v-754h-41v320h-289q-52 -79 -105.5 -160t-105.5 -160h-46zM683 335v366h-262q-72 0 -134 -41t-62 -142q0 -95 62 -139t134 -44h262z" />
    <glyph glyph-name="uni0430" unicode="&#x430;" horiz-adv-x="950" 
d="M709 78q0 -28 5 -52t7 -33h-42q-4 11 -8 37.5t-4 58.5q-32 -40 -97 -76q-61 -35 -130 -40q-82 -4 -141 33q-58 36 -62 103q-5 67 32 108q17 20 41.5 35t49.5 23q50 14 106 20q30 3 57 6.5t50 8.5q14 2 29.5 8t29.5 14q16 8 25.5 23t9.5 33q0 26 -12 51t-34 46
q-23 20 -56 32t-75 12q-75 0 -129 -39q-52 -37 -52 -103h-42q-2 38 14 70.5t48 57.5q67 52 161 52q91 0 155 -50q64 -49 64 -137v-302zM667 313q-14 -14 -29.5 -20t-31.5 -11q-3 -1 -5.5 -1.5t-5.5 -1.5q-17 -5 -42 -9t-60 -8q-72 -8 -95 -12q-32 -7 -55 -20.5t-37 -30.5
q-14 -18 -20.5 -38.5t-6.5 -41.5q2 -57 48 -85.5t121 -21.5q65 6 140 54q79 49 79 110v137z" />
    <glyph glyph-name="uni0431" unicode="&#x431;" horiz-adv-x="950" 
d="M474 522q-89 0 -146 -75q-56 -74 -56 -181q0 -108 56 -182t146 -74q89 0 145 74q57 75 57 182q0 106 -57 181t-145 75zM339 664q64 55 150 55q11 0 23 -1t24 -3q22 -3 41 -3q82 0 99 62h40q-6 -29 -23.5 -50.5t-52.5 -32.5q-94 -26 -153 -19q-64 8 -136 -57
q-18 -17 -38 -58q-9 -20 -14.5 -41.5t-6.5 -45.5q35 42 80.5 66t101.5 24q113 0 178 -86t65 -208t-65 -208t-178 -86q-114 0 -179 86q-64 87 -64 208q0 57 4 112.5t12 110.5q17 109 92 175z" />
    <glyph glyph-name="uni0432" unicode="&#x432;" horiz-adv-x="950" 
d="M269 -19v564h210q70 0 115 -36q24 -18 37 -40.5t17 -47.5q3 -29 -3.5 -55.5t-19.5 -43.5q-14 -17 -33 -30.5t-37 -20.5q33 -8 75 -37q46 -30 41 -104q-2 -34 -16 -61.5t-38 -47.5q-25 -19 -58 -29.5t-72 -10.5h-218zM310 290h153q74 0 109 35q36 36 36 73q0 38 -30 76
q-28 37 -115 37h-153v-221zM310 15h153q93 0 128 38q37 37 38 84q2 36 -40 78q-38 41 -124 41h-155v-241z" />
    <glyph glyph-name="uni0433" unicode="&#x433;" horiz-adv-x="950" 
d="M288 545h374v-34h-333v-530h-41v564z" />
    <glyph glyph-name="uni0434" unicode="&#x434;" horiz-adv-x="950" 
d="M295 177q22 47 34.5 107.5t16.5 132.5q9 144 9 250h297v-490h56v-196h-41v162h-383v-162h-41v196h52zM611 177v456h-216q0 -32 -2 -88.5t-6 -129.5q-4 -74 -17 -134t-36 -104h277z" />
    <glyph glyph-name="uni0435" unicode="&#x435;" horiz-adv-x="950" 
d="M475 567q99 0 176 -80q74 -77 71 -214h-450q-1 -122 65 -193q66 -69 138 -69q75 0 119.5 35t60.5 87h45q-20 -59 -71 -108q-54 -54 -154 -52q-115 2 -180 87q-66 87 -66 210t66 210t180 87zM677 307q-6 106 -66 163q-59 59 -136 59q-75 0 -134 -59q-60 -58 -67 -163h403z
" />
    <glyph glyph-name="uni0436" unicode="&#x436;" horiz-adv-x="950" 
d="M454 -19v191l-85 99q-54 -72 -111 -145t-111 -145h-52l246 319q-53 61 -105.5 122.5t-105.5 122.5h49l275 -313v313h42v-313q66 75 137.5 156.5t137.5 156.5h49l-211 -245q60 -79 122.5 -159.5t123.5 -159.5h-52l-221 290l-86 -99v-191h-42z" />
    <glyph glyph-name="uni0437" unicode="&#x437;" horiz-adv-x="950" 
d="M324 149q-1 -25 8.5 -49t27.5 -45q19 -22 48.5 -34t69.5 -12q63 0 103.5 35.5t41.5 95.5q2 54 -37 85q-37 31 -69 36q-16 2 -34.5 2.5t-33.5 0.5h-8q0 11 -0.5 20.5t-0.5 20.5h8q15 0 34 0.5t36 5.5q35 10 59 37t26 73q3 54 -33.5 87t-95.5 33q-66 0 -97 -37
q-30 -35 -32 -77h-38q0 27 11 52t31 49q21 23 53.5 36t74.5 13q71 0 119 -45q25 -22 36 -49t10 -59q-2 -62 -30 -93q-14 -15 -29 -26t-30 -18q23 -11 41.5 -24t35.5 -31q34 -35 32 -94q-1 -38 -13.5 -68t-38.5 -53q-51 -46 -135 -46t-139 52q-27 26 -40.5 57t-12.5 69h41z
" />
    <glyph glyph-name="uni0438" unicode="&#x438;" horiz-adv-x="950" 
d="M317 -19h-46v564h41v-497q77 120 160 248.5t161 248.5h46v-564h-41v498z" />
    <glyph glyph-name="uni0439" unicode="&#x439;" horiz-adv-x="950" 
d="M634 703q-16 -54 -59.5 -88t-99.5 -34t-99.5 34t-59.5 88h33q17 -37 50.5 -63t75.5 -26t76 26.5t49 62.5h34zM317 -19h-46v564h41v-497q77 120 160 248.5t161 248.5h46v-564h-41v498z" />
    <glyph glyph-name="uni043A" unicode="&#x43a;" horiz-adv-x="950" 
d="M310 151v-170h-41v564h41v-345q79 85 161 172.5t161 172.5h46l-240 -259q67 -75 134 -152t134 -153h-47l-249 276z" />
    <glyph glyph-name="uni043B" unicode="&#x43b;" horiz-adv-x="950" 
d="M371 511v-395q0 -43 -17 -94q-8 -24 -28.5 -36t-57.5 -12v36q38 1 51 32q10 29 10 59v444h333v-564h-41v530h-250z" />
    <glyph glyph-name="uni043C" unicode="&#x43c;" horiz-adv-x="950" 
d="M678 545h38v-564h-39v434l-6 1q-46 -109 -92 -217.5t-92 -217.5h-24l-184 435l-6 -1v-434h-39v564h38l203 -499z" />
    <glyph glyph-name="uni043D" unicode="&#x43d;" horiz-adv-x="950" 
d="M633 261h-316v-280h-41v564h41v-250h316v250h41v-564h-41v280z" />
    <glyph glyph-name="uni043E" unicode="&#x43e;" horiz-adv-x="950" 
d="M474 565q115 0 180 -87q66 -86 66 -210q0 -123 -66 -210q-65 -87 -180 -87t-181 87q-65 88 -65 210q0 124 65 210q66 87 181 87zM474 527q-43 0 -81.5 -20.5t-65.5 -55.5q-27 -37 -41.5 -83.5t-14.5 -99.5q0 -108 56 -183q55 -76 147 -76q91 0 146 76q57 76 57 183
q0 108 -57 183q-55 76 -146 76z" />
    <glyph glyph-name="uni043F" unicode="&#x43f;" horiz-adv-x="950" 
d="M315 511v-530h-41v564h401v-564h-41v530h-319z" />
    <glyph glyph-name="uni0440" unicode="&#x440;" horiz-adv-x="950" 
d="M281 -141h-41v754h41v-108l5 -1q31 60 80.5 94.5t117.5 34.5q109 0 171 -87q62 -86 62 -210q0 -123 -63 -210q-62 -87 -170 -87q-68 0 -117.5 34.5t-80.5 94.5l-5 -1v-308zM477 596q-45 0 -80.5 -20t-62.5 -57q-53 -77 -53 -183q0 -107 53 -184q52 -76 143 -76
q90 0 142 76q54 78 54 184q0 54 -14 99.5t-40 83.5q-27 37 -62.5 57t-79.5 20z" />
    <glyph glyph-name="uni0441" unicode="&#x441;" horiz-adv-x="950" 
d="M713 141q-8 -32 -26.5 -60.5t-45.5 -54.5q-57 -55 -156 -55q-115 0 -181 87t-66 210q0 124 66 210q66 87 181 87q101 0 161 -63q29 -29 46 -59.5t22 -58.5h-44q-11 41 -53 91q-44 52 -132 52q-90 0 -148 -75q-57 -75 -57 -184q0 -110 57 -185q56 -74 148 -74
q69 0 116.5 37t66.5 95h45z" />
    <glyph glyph-name="uni0442" unicode="&#x442;" horiz-adv-x="950" 
d="M454 511h-192v34h427v-34h-193v-530h-42v530z" />
    <glyph glyph-name="uni0443" unicode="&#x443;" horiz-adv-x="950" 
d="M476 118q49 122 99 248t99 249h44l-262 -662q-10 -26 -20.5 -46.5t-27.5 -31.5q-14 -8 -27.5 -11t-34.5 -3h-24v34h30q25 0 37 16.5t21 39.5l43 111q-54 138 -109.5 276.5t-109.5 276.5h45z" />
    <glyph glyph-name="uni0444" unicode="&#x444;" horiz-adv-x="950" 
d="M279 601q-82 0 -128 -73q-46 -71 -46 -176t46 -176q46 -73 128 -73t128 73q46 71 46 176t-46 176q-46 73 -128 73zM671 601q-82 0 -128 -73q-46 -71 -46 -176t46 -176q46 -73 128 -73t128 73q46 71 46 176t-46 176q-46 73 -128 73zM454 855h42v-328l5 -1q26 47 69.5 78
t100.5 31q98 0 157 -83q60 -81 60 -200q0 -118 -60 -200q-59 -83 -157 -83q-56 0 -100.5 33.5t-74.5 84.5v-326h-42v317q-32 -50 -76.5 -79.5t-98.5 -29.5q-100 0 -159 92q-58 92 -58 191q0 45 15 93.5t42 94.5q29 46 69 70.5t91 24.5q56 0 99.5 -29.5t75.5 -80.5v330z" />
    <glyph glyph-name="uni0445" unicode="&#x445;" horiz-adv-x="950" 
d="M475 232q-45 -60 -93 -125t-93 -125h-50l210 283q-50 67 -100.5 135.5t-100.5 135.5h50l177 -238q43 58 88.5 119t88.5 119h50l-203 -271q53 -70 106 -141.5t106 -141.5h-50z" />
    <glyph glyph-name="uni0446" unicode="&#x446;" horiz-adv-x="950" 
d="M320 114h310v530h41v-531h67v-131h-42v98h-418v564h42v-530z" />
    <glyph glyph-name="uni0447" unicode="&#x447;" horiz-adv-x="950" 
d="M689 -19h-42v260q-26 -45 -74.5 -74.5t-126.5 -26.5q-29 1 -60 13.5t-60 32.5q-60 46 -60 138v221h42v-202q0 -99 53 -134t122 -32q33 2 61 15t53 36q50 47 50 96v221h42v-564z" />
    <glyph glyph-name="uni0448" unicode="&#x448;" horiz-adv-x="950" 
d="M677 15v530h42v-564h-488v564h41v-530h181v530h43v-530h181z" />
    <glyph glyph-name="uni0449" unicode="&#x449;" horiz-adv-x="950" 
d="M255 77v564h40v-529h183v529h41v-529h182v529h42v-529h57v-130h-42v95h-503z" />
    <glyph glyph-name="uni044A" unicode="&#x44a;" horiz-adv-x="950" 
d="M377 15h167q67 0 117 34v-1q52 31 52 111q0 75 -53 109q-53 33 -115 33h-168v-286zM334 -19v530h-151v34h194v-210h172q107 0 158 -57q52 -56 47 -133q-2 -39 -17 -69t-44 -52q-58 -43 -136 -43h-223z" />
    <glyph glyph-name="uni044B" unicode="&#x44b;" horiz-adv-x="950" 
d="M225 15h173q40 0 71.5 11.5t53.5 30.5q21 20 32 46t11 56q0 59 -46 100q-47 42 -121 42h-174v-286zM225 545v-210h178q107 0 158 -57q52 -56 47 -133q-2 -39 -17 -69t-44 -52q-57 -43 -135 -43h-228v564h41zM702 545h41v-564h-41v564z" />
    <glyph glyph-name="uni044C" unicode="&#x44c;" horiz-adv-x="950" 
d="M311 15h173q40 0 71 11.5t53 30.5q21 20 32 46t11 56q0 29 -12.5 54.5t-33.5 45.5q-47 42 -120 42h-174v-286zM311 545v-210h178q107 0 158 -57q52 -56 47 -133q-2 -39 -17 -69t-44 -52q-58 -43 -136 -43h-228v564h42z" />
    <glyph glyph-name="uni044D" unicode="&#x44d;" horiz-adv-x="950" 
d="M459 256v34h215q-9 111 -61 181t-144 70q-62 0 -115 -43q-26 -22 -44 -47.5t-29 -55.5h-43q25 81 85 130.5t145 49.5q115 0 182 -85t67 -217t-67 -217t-182 -85q-86 0 -146 48t-84 132h49q8 -32 25 -59t43 -44t54 -26t58 -9q94 0 146 67q54 68 60 176h-214z" />
    <glyph glyph-name="uni044E" unicode="&#x44e;" horiz-adv-x="950" 
d="M569 521q-44 0 -82.5 -20.5t-65.5 -55.5q-27 -37 -41.5 -83.5t-14.5 -99.5q0 -108 56 -183q55 -76 148 -76q91 0 146 76q57 76 57 183q0 108 -57 183q-55 76 -146 76zM201 285h123q7 117 71 196q64 78 174 78q115 0 180 -87q66 -86 66 -210q0 -123 -66 -210
q-65 -87 -180 -87q-111 0 -176 83q-65 82 -70 203h-122v-270h-42v564h42v-260z" />
    <glyph glyph-name="uni044F" unicode="&#x44f;" horiz-adv-x="950" 
d="M390 227q-57 14 -92 55t-35 101q0 74 51 118q52 44 128 44h211v-564h-42v240h-182q-36 -58 -76 -120t-76 -120h-45zM611 254v257h-146q-75 0 -118 -31t-43 -98q0 -75 48 -102q47 -26 113 -26h146z" />
    <glyph glyph-name="uni0451" unicode="&#x451;" horiz-adv-x="950" 
d="M376 711q16 0 28 -12.5t12 -29.5t-12 -29.5t-28 -12.5t-27.5 12.5t-11.5 29.5t11.5 29.5t27.5 12.5zM574 711q16 0 28 -12.5t12 -29.5t-12 -29.5t-28 -12.5t-28 12.5t-12 29.5t12 29.5t28 12.5zM475 572q103 0 180 -82q77 -80 73 -224h-450q-1 -114 63 -183
q64 -67 134 -67q74 0 117 35t59 87h57q-11 -32 -29 -62t-46 -56q-56 -56 -158 -54q-115 2 -184 90q-33 44 -50.5 98t-17.5 115q0 125 68 214t184 89zM671 312q-8 97 -64 153q-57 57 -132 57q-73 0 -130 -57q-29 -27 -45 -66t-20 -87h391z" />
    <glyph glyph-name="uni2015" unicode="&#x2015;" horiz-adv-x="950" 
d="M947 375v-34h-944v34h944z" />
    <glyph glyph-name="quoteleft" unicode="&#x2018;" horiz-adv-x="240" 
d="M165 800q-23 -20 -37.5 -45t-12.5 -65q8 8 18.5 12.5t21.5 3.5q19 -2 29.5 -15t10.5 -31q-2 -21 -15 -31t-34 -10q-19 -2 -36 16.5t-17 54.5q0 78 72 129v-19z" />
    <glyph glyph-name="quoteright" unicode="&#x2019;" horiz-adv-x="240" 
d="M74 627q23 20 37.5 45t12.5 65q-8 -8 -18.5 -12.5t-21.5 -3.5q-19 2 -29.5 15t-10.5 31q2 21 15 31t34 10q19 2 36 -16.5t17 -54.5q0 -78 -72 -129v19z" />
    <glyph glyph-name="quotedblleft" unicode="&#x201c;" horiz-adv-x="330" 
d="M136 800q-23 -20 -37.5 -45t-12.5 -65q8 8 18.5 12.5t21.5 3.5q19 -2 29.5 -15t10.5 -31q-2 -21 -15 -31t-34 -10q-19 -2 -36 16.5t-17 54.5q0 78 72 129v-19zM269 800q-23 -20 -37.5 -45t-12.5 -65q8 8 18.5 12.5t21.5 3.5q19 -2 29.5 -15t10.5 -31q-2 -21 -15 -31
t-34 -10q-19 -2 -36 16.5t-17 54.5q0 78 72 129v-19z" />
    <glyph glyph-name="quotedblright" unicode="&#x201d;" horiz-adv-x="330" 
d="M59 627q23 20 37.5 45t12.5 65q-8 -8 -18.5 -12.5t-21.5 -3.5q-19 2 -29.5 15t-10.5 31q2 21 15 31t34 10q19 2 36 -16.5t17 -54.5q0 -78 -72 -129v19zM189 627q23 20 37.5 45t12.5 65q-8 -8 -18.5 -12.5t-21.5 -3.5q-19 2 -29.5 15t-10.5 31q2 21 15 31t34 10
q19 2 36 -16.5t17 -54.5q0 -78 -72 -129v19z" />
    <glyph glyph-name="dagger" unicode="&#x2020;" horiz-adv-x="950" 
d="M494 611q15 -1 41.5 4.5t48.5 11.5q34 11 67 5t33 -36q0 -15 -9 -24t-24 -13q-34 -6 -67 4q-11 3 -24.5 6.5t-25.5 6.5q-13 3 -24.5 4t-18.5 0q0 -26 4.5 -53t17.5 -45q5 -7 8.5 -11.5t5.5 -7.5q3 -4 5 -7q-5 -4 -20 -44q-23 -63 -22 -246q1 -32 1 -60v-52
q0 -42 -0.5 -74t-2.5 -50q-5 -43 -13 -43q-10 0 -13 43q-3 34 -3 121q0 25 0.5 54t0.5 62v39q0 152 -22 206q-16 42 -21 44q2 2 5 6q2 3 6 8t9 12q13 18 18.5 46.5t4.5 51.5q-16 2 -44 -4t-50 -13q-16 -5 -34 -6t-34 2q-32 8 -32 37q0 30 32 36q33 6 68 -5q23 -6 50 -11.5
t43 -4.5q1 10 -0.5 22.5t-3.5 29.5q-4 34 -11 57q-6 22 -6 45v15q0 7 2 15q7 40 35 40t34 -39t-5 -76q0 -1 -0.5 -2t-0.5 -3q-4 -20 -9 -53t-3 -48z" />
    <glyph glyph-name="daggerdbl" unicode="&#x2021;" horiz-adv-x="950" 
d="M459 590q-15 3 -42.5 -3.5t-48.5 -12.5q-32 -10 -66 -4q-32 7 -32 36t32 35q35 5 66 -5q10 -3 23 -6t26 -5t24 -3.5t18 -1.5q0 9 -1 21.5t-3 27.5q-2 14 -4.5 28t-5.5 25q-6 21 -6 44v15q0 7 2 15q7 39 34 39t33 -38q6 -39 -5 -75q-3 -11 -5 -26l-4 -29
q-2 -14 -2.5 -26.5t-0.5 -20.5q7 0 18 1.5t24 3.5t25.5 5t23.5 6q31 10 66 5q32 -6 32 -35t-32 -36q-34 -6 -66 4q-21 6 -48.5 12.5t-42.5 3.5v-111q7 0 18 1.5t24 3.5t25.5 5t23.5 6q31 10 66 5q32 -6 32 -35t-32 -36q-34 -6 -66 4q-21 6 -48.5 12.5t-42.5 3.5
q0 -25 4 -51.5t17 -44.5q17 -21 17 -26q-3 -2 -6.5 -12.5t-11.5 -29.5q-11 -32 -17 -77t-5 -105v-125q0 -29 -1 -48q-3 -43 -13 -43q-5 0 -8.5 10.5t-4.5 32.5q-1 20 -1.5 49t-0.5 66v58q1 119 -21 182q-7 18 -12.5 29t-8.5 14q3 4 7 9q3 5 8 10.5t10 12.5q9 14 13 40t3 49
q-15 3 -42.5 -3.5t-48.5 -12.5q-32 -10 -66 -4q-32 7 -32 36t32 35q35 5 66 -5q10 -3 23 -6t26 -5t24 -3.5t18 -1.5v111z" />
    <glyph glyph-name="twodotenleader" unicode="&#x2025;" horiz-adv-x="950" 
d="M753 398v-80h-78v80h78zM275 398v-80h-78v80h78z" />
    <glyph glyph-name="ellipsis" unicode="&#x2026;" horiz-adv-x="950" 
d="M808 398v-80h-76v80h76zM514 398v-80h-77v80h77zM218 398v-80h-76v80h76z" />
    <glyph glyph-name="perthousand" unicode="&#x2030;" horiz-adv-x="950" 
d="M635 740h37q-134 -189 -271.5 -383t-271.5 -383h-35zM548 287q39 -29 38 -91q-2 -64 -41 -124q-20 -31 -44 -51t-53 -31q-24 -10 -46 -10q-26 0 -47 15q-39 27 -39 92q2 63 42 124t96 82q24 10 45 10q27 0 49 -16zM530 261q-14 11 -30 11q-8 0 -18.5 -3.5t-20.5 -8.5
q-20 -11 -39.5 -29t-34.5 -42h1q-35 -50 -39 -98q-5 -50 23 -70q6 -5 14 -7t16 -2q26 0 57 22.5t57 60.5q14 23 24.5 48t12.5 49q5 49 -23 69zM828 287q39 -28 37 -92q0 -63 -40 -124h1q-20 -30 -45.5 -50.5t-53.5 -31.5q-12 -5 -23 -7.5t-21 -2.5q-28 0 -50 16
q-38 29 -38 91q2 63 42 124h-1q40 59 97 82q24 10 46 10q28 0 49 -15zM810 260q-13 10 -31 10q-26 0 -57 -22t-56 -60h1q-34 -49 -40 -98q-5 -50 23 -70q6 -5 14 -7t16 -2q26 0 56.5 21.5t57.5 61.5q34 50 38 97q5 50 -22 69zM337 720q40 -27 38 -92q-2 -64 -41 -124
q-39 -59 -96 -82q-12 -5 -24 -7.5t-21 -2.5q-27 0 -49 16q-39 27 -39 91q2 63 42 124t96 83q12 5 23 7.5t21 2.5q28 0 50 -16zM319 693q-14 11 -30 11q-8 0 -18.5 -3.5t-20.5 -8.5q-20 -11 -39.5 -29t-34.5 -42h1q-35 -50 -39 -98q-2 -23 4 -41.5t19 -27.5q13 -10 30 -10
q26 0 57 23t57 61q14 23 24.5 48t12.5 49q5 48 -23 68z" />
    <glyph glyph-name="minute" unicode="&#x2032;" horiz-adv-x="950" 
d="M189 825q-41 -64 -79.5 -125t-79.5 -125q12 34 22.5 64.5t20.5 60.5l21 60q11 30 23 65h72z" />
    <glyph glyph-name="second" unicode="&#x2033;" horiz-adv-x="950" 
d="M189 825q-41 -64 -80 -125t-80 -125q12 34 22.5 64.5t20.5 60.5l21 60q11 30 23 65h73zM294 825q-41 -64 -80 -125t-80 -125q12 34 22.5 64.5t20.5 60.5l21 60q11 30 23 65h73z" />
    <glyph glyph-name="uni203B" unicode="&#x203b;" horiz-adv-x="950" 
d="M701 405q19 0 32.5 -13.5t13.5 -33.5t-13 -33.5t-33 -13.5q-17 0 -30.5 13.5t-13.5 32.5t12.5 33.5t31.5 14.5zM249 405q17 0 30.5 -13.5t13.5 -33.5t-12.5 -33.5t-31.5 -13.5t-32.5 13.5t-13.5 32.5t13 33.5t33 14.5zM475 644q17 0 31 -14t14 -33q0 -20 -12.5 -34
t-32.5 -14q-17 0 -31 14t-14 34q0 19 12.5 33t32.5 14zM475 166q17 0 31 -13.5t14 -32.5q0 -20 -12.5 -34t-32.5 -14q-17 0 -31 13.5t-14 33.5q0 19 12.5 33t32.5 14zM755 625l-253 -267q63 -66 126.5 -133.5t126.5 -133.5q-8 -8 -13 -14t-13 -14l-254 266
q-63 -66 -127 -133t-127 -133q-8 8 -13 14t-13 14l253 267q-63 66 -126.5 133.5t-126.5 133.5q8 8 13 14t13 14l254 -266q63 66 127 133t127 133z" />
    <glyph glyph-name="uni2074" unicode="&#x2074;" horiz-adv-x="950" 
d="M136 593v36q33 47 67.5 93t67.5 93h31v-196h44v-26h-44v-53h-29v53h-137zM273 769l-111 -150h111v150z" />
    <glyph glyph-name="uni207F" unicode="&#x207f;" horiz-adv-x="969" 
d="M129 813h22v-40l5 -1q8 15 32 34q23 20 70 16q39 -3 58 -33q20 -31 20 -58v-190h-23v170q0 37 -13 62q-16 28 -64 28q-16 0 -31 -7.5t-26 -20.5q-12 -13 -19 -30t-7 -36v-166h-24v272z" />
    <glyph glyph-name="uni2081" unicode="&#x2081;" horiz-adv-x="950" 
d="M220 -69v202h-62v23q13 0 26.5 3.5t23.5 11.5q6 5 12 14.5t7 20.5h21v-275h-28z" />
    <glyph glyph-name="uni2082" unicode="&#x2082;" horiz-adv-x="950" 
d="M222 12q-12 -8 -27.5 -22t-20.5 -32h153v-27h-191q1 29 16.5 54t55.5 51q11 8 23.5 16.5t23.5 16.5q17 11 27.5 27t10.5 35q0 26 -14 41t-43 15q-33 0 -46 -18t-14 -40h-31q2 30 22 55q23 29 70 29q46 0 67 -25t21 -57q0 -17 -5.5 -30t-13.5 -23q-8 -11 -17.5 -19
t-18.5 -14z" />
    <glyph glyph-name="uni2083" unicode="&#x2083;" horiz-adv-x="950" 
d="M171 12q0 -20 16 -38.5t50 -18.5q29 0 45.5 16t16.5 41q0 19 -12 32t-29 17q-10 2 -19 2.5t-17 0.5h-3v26h2q8 0 18.5 0.5t18.5 3.5q33 15 33 49q0 20 -15 34t-41 14q-30 0 -43.5 -16t-14.5 -34h-30q1 35 27 55.5t62 20.5q18 0 33.5 -6t27.5 -16t19 -23.5t7 -28.5
q0 -16 -5 -27t-11 -18q-7 -8 -14.5 -12.5t-12.5 -6.5q24 -11 38 -27.5t14 -41.5q0 -35 -25.5 -58.5t-69.5 -23.5q-42 0 -69.5 25t-28.5 59h32z" />
    <glyph glyph-name="uni2084" unicode="&#x2084;" horiz-adv-x="950" 
d="M137 -16v36q33 47 67.5 93t67.5 93h31v-196h44v-26h-44v-53h-29v53h-137zM274 160l-111 -150h111v150z" />
    <glyph glyph-name="Euro" unicode="&#x20ac;" horiz-adv-x="950" 
d="M394 550h-118v68l209 73h29q28 2 38 -6q7 -3 8.5 -11.5t0.5 -16.5v-505q0 -22 11.5 -33.5t30.5 -13.5q29 -4 44 -10t15 -28v-44h-370v44q0 22 15.5 28.5t43.5 9.5q19 2 31 13.5t12 33.5v398zM787 -91q22 0 44 7.5t35 20.5q20 18 28 44.5t8 53.5v649q0 21 -7 46.5
t-18 39.5q-17 22 -43 29.5t-51 7.5h-616q-26 0 -51.5 -7.5t-42.5 -29.5q-11 -14 -18 -39.5t-7 -46.5v-649q0 -27 8 -53.5t27 -44.5q15 -13 36.5 -20.5t43.5 -7.5h624zM770 835q9 0 24 -1.5t36 -5.5q42 -6 67 -37q20 -24 25.5 -54t5.5 -50v-640q0 -22 -7 -63q-6 -44 -36 -68
q-23 -20 -51 -27.5t-49 -7.5h-620q-21 0 -49 7.5t-51 27.5q-29 25 -37 68q-2 20 -4 37t-2 26v640q0 20 5.5 50t25.5 54q25 31 65 37q41 7 62 7h590z" />
    <glyph glyph-name="uni2103" unicode="&#x2103;" horiz-adv-x="950" 
d="M849 175q-17 -78 -82 -149q-67 -76 -195 -76q-137 0 -217 101q-79 100 -79 257q0 158 79 258q82 100 217 100q130 0 196 -75q65 -71 80 -132h-45q-10 29 -30 58t-47 55q-60 55 -158 55q-111 0 -179 -88q-33 -43 -51 -101.5t-18 -129.5q0 -143 69 -231q67 -88 179 -88
q47 0 86.5 16t72.5 45q30 29 50.5 61t26.5 64h45zM194 785q45 0 75 -33q32 -34 32 -79t-32 -79q-30 -33 -75 -33q-44 0 -75 33q-31 34 -31 79t31 79q31 33 75 33zM194 749q-31 0 -51.5 -21t-20.5 -55q0 -32 20.5 -54t51.5 -22q32 0 52.5 22t20.5 54q0 34 -20.5 55t-52.5 21z
" />
    <glyph glyph-name="uni2109" unicode="&#x2109;" horiz-adv-x="950" 
d="M195 785q45 0 75 -33q31 -34 31 -79t-31 -79q-30 -33 -75 -33q-44 0 -75 33q-31 34 -31 79t31 79q31 33 75 33zM195 747q-29 0 -49.5 -21t-20.5 -53t20.5 -53t49.5 -21q31 0 51 21t20 53t-20 53t-51 21zM359 655h446v-34h-405v-290h359v-30h-359v-322h-41v676z" />
    <glyph glyph-name="uni2113" unicode="&#x2113;" horiz-adv-x="950" 
d="M248 718q-87 -128 -83 -319q6 -192 48 -297q42 32 73.5 93.5t51.5 143.5q11 43 16 87.5t5 87.5q0 39 -5.5 80t-13.5 78q-8 31 -24 49.5t-32 18.5q-20 0 -36 -22zM383 633q6 -37 8.5 -72t2.5 -69q0 -58 -8.5 -112t-25.5 -103q-54 -156 -128 -209q43 -73 85 -73q17 0 31 10
v-1q28 17 45.5 39t26.5 53q8 -8 14 -13.5t14 -13.5q-39 -91 -116 -108q-75 -16 -136 91q-11 -5 -24.5 -8.5t-30.5 -7.5q-31 -7 -55 -7q-3 10 -4.5 19t-4.5 19q16 0 46 4t56 16q-52 134 -52 286q0 35 3 73q8 95 30 167.5t56 118.5q42 53 74 53q18 0 33 -15q47 -45 60 -137z
" />
    <glyph glyph-name="uni2116" unicode="&#x2116;" horiz-adv-x="950" 
d="M404 10l-338 644l-5 -1v-643h-29v698h39l338 -642l5 1v641h29v-698h-39zM662 481q86 0 135 -70t49 -170q0 -49 -13 -92t-36 -78q-24 -34 -58 -52t-77 -18q-42 0 -76.5 18t-58.5 52q-23 35 -36 78t-13 92q0 100 49 170t135 70zM662 451q-69 0 -110 -62q-43 -61 -43 -148
t43 -149q43 -61 110 -61q71 0 111 61q42 63 42 149t-42 148h1q-41 62 -112 62zM874 83q17 0 30.5 -14.5t13.5 -31.5t-13.5 -30.5t-30.5 -13.5t-30.5 13.5t-13.5 30.5t13.5 31.5t30.5 14.5z" />
    <glyph glyph-name="uni2121" unicode="&#x2121;" horiz-adv-x="950" 
d="M252 674h-214v30h461v-30h-212v-664h-35v664zM576 483q84 0 147 -66q64 -65 62 -183h-369q0 -93 51 -147t109 -54q59 0 94 28.5t48 70.5h50q-18 -53 -63 -96q-23 -22 -55 -33.5t-74 -11.5q-93 1 -151 73q-57 72 -57 173q0 102 57 174q58 72 151 72zM734 273
q-4 78 -52 123q-48 46 -106 46q-59 0 -105 -45q-46 -46 -52 -124h315zM865 705h36v-694h-36v694z" />
    <glyph glyph-name="trademark" unicode="&#x2122;" horiz-adv-x="950" 
d="M188 686h-88v30h206v-30h-90v-314h-28v314zM495 722h55v-356h-40v238q-14 -58 -28 -119.5t-27 -118.5h-40l-55 238v-238h-40v356h56l59 -264z" />
    <glyph glyph-name="Omega" unicode="&#x2126;" horiz-adv-x="950" 
d="M419 116q0 11 2.5 16.5t5.5 8.5q3 2 6 2h3q83 15 130 95v-1q46 77 46 189q0 124 -67 206t-170 82q-98 0 -166 -83t-68 -206q0 -111 44 -188q45 -78 140 -94q1 0 9.5 -3.5t6.5 -22.5v-100q0 -14 -5 -25t-22 -11h-131v33h126v96q-94 24 -149 109q-56 85 -56 205
q0 135 80 229q82 94 191 94q115 0 195 -92q79 -91 79 -229q0 -114 -58 -202q-59 -89 -140 -113v-97h125v-33h-128q-18 0 -23.5 10t-5.5 24v101z" />
    <glyph glyph-name="uni212B" unicode="&#x212b;" horiz-adv-x="950" 
d="M475 796q-29 0 -49 -20.5t-20 -52.5t20 -52.5t49 -20.5q31 0 50.5 20.5t19.5 52.5t-19.5 52.5t-50.5 20.5zM475 835q45 0 75 -33q31 -34 31 -79t-31 -79q-30 -33 -75 -33t-75 33q-31 34 -31 79t31 79q30 33 75 33zM636 145h-319q-17 -44 -35.5 -87t-35.5 -87h-41
q64 155 127 304.5t127 304.5h35q63 -153 126.5 -304.5t126.5 -304.5h-40zM331 181h290l-145 351z" />
    <glyph glyph-name="onethird" unicode="&#x2153;" horiz-adv-x="950" 
d="M136 375h678v-34h-678v34zM468 411v310h-93v34q20 1 40 6t34 14q13 8 22 22.5t10 31.5h29v-418h-42zM367 -7q0 -34 24 -64q28 -33 84 -33q49 0 76.5 27t27.5 69q0 31 -20.5 52.5t-49.5 28.5q-12 3 -26.5 3t-25.5 -1h-13v31h2q14 0 32 1.5t29 6.5q28 13 43 32.5t15 47.5
q0 34 -24 56.5t-68 22.5q-27 0 -45 -7.5t-29 -19.5q-12 -12 -16.5 -27t-4.5 -31q-11 0 -21.5 -0.5t-21.5 -0.5q-1 58 40 89q43 31 100 31q60 0 99 -34q39 -33 39 -81q0 -43 -23 -66q-21 -21 -42 -33q32 -14 55 -40.5t23 -61.5q0 -57 -40.5 -93t-109.5 -36q-66 0 -111 40
q-21 20 -31.5 42.5t-9.5 49.5z" />
    <glyph glyph-name="twothirds" unicode="&#x2154;" horiz-adv-x="950" 
d="M136 375h678v-34h-678v34zM448 536q-14 -8 -42 -37q-25 -28 -25 -53h233v-35h-288q2 38 29 85q28 49 77 77l75 44q28 19 46 44.5t18 58.5q0 42 -23.5 65.5t-69.5 23.5q-53 0 -77 -32q-11 -14 -16.5 -31t-6.5 -33h-42q2 44 35 87q34 45 108 45q34 0 59.5 -10t42.5 -27
q16 -18 24.5 -41t8.5 -49q0 -51 -27 -81q-28 -31 -58 -52v1zM367 -7q0 -34 24 -64q28 -33 84 -33q49 0 76.5 27t27.5 69q0 31 -20.5 52.5t-49.5 28.5q-12 3 -26.5 3t-25.5 -1h-13v31h2q14 0 32 1.5t29 6.5q28 13 43 32.5t15 47.5q0 34 -24 56.5t-68 22.5q-27 0 -45 -7.5
t-29 -19.5q-12 -12 -16.5 -27t-4.5 -31q-11 0 -21.5 -0.5t-21.5 -0.5q-1 58 40 89q43 31 100 31q60 0 99 -34q39 -33 39 -81q0 -43 -23 -66q-21 -21 -42 -33q32 -14 55 -40.5t23 -61.5q0 -57 -40.5 -93t-109.5 -36q-66 0 -111 40q-21 20 -31.5 42.5t-9.5 49.5z" />
    <glyph glyph-name="oneeighth" unicode="&#x215b;" horiz-adv-x="950" 
d="M136 375h678v-34h-678v34zM566 99q33 -17 52 -43t19 -65q0 -60 -45.5 -94t-115.5 -34q-34 0 -63 9t-50 25q-22 17 -34.5 41t-12.5 53q0 38 20 66t58 42q-29 15 -46 41.5t-17 53.5q0 55 40 85.5t105 30.5q64 0 104.5 -30.5t40.5 -85.5q0 -27 -14.5 -51t-40.5 -38v-6z
M476 85q-55 0 -85.5 -26.5t-30.5 -67.5q0 -38 30.5 -65t85.5 -27q56 0 86 27t30 65q0 41 -30 67.5t-86 26.5zM476 275q-51 0 -75 -22.5t-24 -56.5q0 -32 24 -55.5t75 -23.5q50 0 75 23.5t25 55.5q0 34 -25 56.5t-75 22.5zM468 411v310h-93v34q20 1 40 6t34 14q13 8 22 22.5
t10 31.5h29v-418h-42z" />
    <glyph glyph-name="threeeighths" unicode="&#x215c;" horiz-adv-x="950" 
d="M136 375h678v-34h-678v34zM566 99q33 -17 52 -43t19 -65q0 -60 -45.5 -94t-115.5 -34q-34 0 -63 9t-50 25q-22 17 -34.5 41t-12.5 53q0 38 20 66t58 42q-29 15 -46 41.5t-17 53.5q0 55 40 85.5t105 30.5q64 0 104.5 -30.5t40.5 -85.5q0 -27 -14.5 -51t-40.5 -38v-6z
M476 85q-55 0 -85.5 -26.5t-30.5 -67.5q0 -38 30.5 -65t85.5 -27q56 0 86 27t30 65q0 41 -30 67.5t-86 26.5zM476 275q-51 0 -75 -22.5t-24 -56.5q0 -32 24 -55.5t75 -23.5q50 0 75 23.5t25 55.5q0 34 -25 56.5t-75 22.5zM367 538q0 -34 25 -65q26 -32 82 -32q49 0 75.5 27
t26.5 69q0 30 -20 52t-49 29q-12 3 -26.5 3t-25.5 -1h-11v31h2q12 0 30 1.5t29 6.5q28 13 43 32.5t15 47.5q0 34 -24 56.5t-67 22.5q-55 0 -74 -28q-20 -26 -19 -57q-11 0 -21 -0.5t-21 -0.5q0 30 11 52.5t30 37.5q18 15 43 22.5t53 7.5q58 0 97 -34q38 -35 38 -81
q0 -43 -23 -66q-20 -20 -41 -33q32 -14 54.5 -40.5t22.5 -61.5q0 -57 -40 -93t-107 -36t-109 39q-40 39 -40 93z" />
    <glyph glyph-name="fiveeighths" unicode="&#x215d;" horiz-adv-x="950" 
d="M136 375h678v-34h-678v34zM566 99q33 -17 52 -43t19 -65q0 -60 -45.5 -94t-115.5 -34q-34 0 -63 9t-50 25q-22 17 -34.5 41t-12.5 53q0 38 20 66t58 42q-29 15 -46 41.5t-17 53.5q0 55 40 85.5t105 30.5q64 0 104.5 -30.5t40.5 -85.5q0 -27 -14.5 -51t-40.5 -38v-6z
M476 85q-55 0 -85.5 -26.5t-30.5 -67.5q0 -38 30.5 -65t85.5 -27q56 0 86 27t30 65q0 41 -30 67.5t-86 26.5zM476 275q-51 0 -75 -22.5t-24 -56.5q0 -32 24 -55.5t75 -23.5q50 0 75 23.5t25 55.5q0 34 -25 56.5t-75 22.5zM329 616q8 57 17.5 110.5t17.5 110.5h229v-34h-197
l-23 -144q25 23 55.5 31t54.5 6q37 -1 82 -34q45 -32 45 -108q0 -34 -12.5 -61.5t-33.5 -47.5q-23 -17 -47.5 -27t-51.5 -10q-69 0 -105 36t-42 78q12 -2 23.5 -2t23.5 -2q3 -32 29.5 -55.5t72.5 -23.5q44 0 72.5 30.5t28.5 79.5q0 48 -26.5 80.5t-72.5 32.5
q-32 0 -55.5 -12.5t-36.5 -31.5z" />
    <glyph glyph-name="seveneighths" unicode="&#x215e;" horiz-adv-x="950" 
d="M136 375h678v-34h-678v34zM566 99q33 -17 52 -43t19 -65q0 -60 -45.5 -94t-115.5 -34q-34 0 -63 9t-50 25q-22 17 -34.5 41t-12.5 53q0 38 20 66t58 42q-29 15 -46 41.5t-17 53.5q0 55 40 85.5t105 30.5q64 0 104.5 -30.5t40.5 -85.5q0 -27 -14.5 -51t-40.5 -38v-6z
M476 85q-55 0 -85.5 -26.5t-30.5 -67.5q0 -38 30.5 -65t85.5 -27q56 0 86 27t30 65q0 41 -30 67.5t-86 26.5zM476 275q-51 0 -75 -22.5t-24 -56.5q0 -32 24 -55.5t75 -23.5q50 0 75 23.5t25 55.5q0 34 -25 56.5t-75 22.5zM332 829h289v-36q-8 -10 -19.5 -25t-28.5 -38
t-32 -50t-28 -55q-13 -29 -23.5 -60t-18.5 -61q-13 -58 -12 -93h-42q3 29 17 82t37 113q12 29 28.5 60t32.5 56q19 27 31 45t21 28h-252v34z" />
    <glyph glyph-name="uni2160" unicode="&#x2160;" horiz-adv-x="950" 
d="M454 735h42v-754h-42v754z" />
    <glyph glyph-name="uni2161" unicode="&#x2161;" horiz-adv-x="950" 
d="M331 735h41v-754h-41v754zM578 735h41v-754h-41v754z" />
    <glyph glyph-name="uni2162" unicode="&#x2162;" horiz-adv-x="950" 
d="M283 735h42v-754h-42v754zM625 735h42v-754h-42v754zM455 735h42v-754h-42v754z" />
    <glyph glyph-name="uni2163" unicode="&#x2163;" horiz-adv-x="950" 
d="M188 735h42v-754h-42v754zM568 -19h-45q-57 189 -115 377t-115 377h43l209 -712q52 176 104.5 355.5t104.5 356.5h44z" />
    <glyph glyph-name="uni2164" unicode="&#x2164;" horiz-adv-x="950" 
d="M502 -19h-46q-72 190 -143.5 377t-143.5 377h44l266 -710q66 177 133 355t133 355h42z" />
    <glyph glyph-name="uni2165" unicode="&#x2165;" horiz-adv-x="950" 
d="M753 735v-754h-42v754h42zM373 -19q-57 189 -115 377t-115 377h44l209 -712q52 176 104.5 355.5t104.5 356.5h43q-58 -190 -115 -377t-115 -377h-45z" />
    <glyph glyph-name="uni2166" unicode="&#x2166;" horiz-adv-x="950" 
d="M658 735v-754h-42v754h42zM302 -19q-51 189 -100.5 377t-100.5 377h42l179 -703h6q45 177 89 351.5t89 351.5h43q-51 -190 -101 -377t-101 -377h-45zM800 735v-754h-41v754h41z" />
    <glyph glyph-name="uni2167" unicode="&#x2167;" horiz-adv-x="950" 
d="M853 735v-754h-42v754h42zM586 735v-754h-41v754h41zM254 -19q-48 189 -96.5 377t-96.5 377h42l170 -703h6q42 177 84.5 351.5t84.5 351.5h42q-48 -191 -96.5 -377t-96.5 -377h-43zM720 735v-754h-42v754h42z" />
    <glyph glyph-name="uni2168" unicode="&#x2168;" horiz-adv-x="950" 
d="M563 370q63 -97 126 -194.5t126 -194.5h-44l-231 356q-56 -86 -115.5 -178t-115.5 -178h-44l253 389q-59 91 -118.5 182.5t-118.5 182.5h44l215 -332q52 80 107.5 165.5t107.5 166.5h44zM159 735h42v-754h-42v754z" />
    <glyph glyph-name="uni2169" unicode="&#x2169;" horiz-adv-x="950" 
d="M497 370q63 -97 126 -194.5t126 -194.5h-44l-231 356q-56 -86 -115.5 -178t-115.5 -178h-44l252 389q-59 91 -118 182.5t-118 182.5h44l215 -332q52 80 107.5 165.5t107.5 166.5h44z" />
    <glyph glyph-name="uni2170" unicode="&#x2170;" horiz-adv-x="950" 
d="M495 -19h-42v554h42v-554zM498 686h-51v54h51v-54z" />
    <glyph glyph-name="uni2171" unicode="&#x2171;" horiz-adv-x="950" 
d="M372 -19h-41v554h41v-554zM376 687h-49v52h49v-52zM620 -19h-41v554h41v-554zM624 687h-49v52h49v-52z" />
    <glyph glyph-name="uni2172" unicode="&#x2172;" horiz-adv-x="950" 
d="M325 -19h-42v554h42v-554zM329 687h-50v52h50v-52zM668 -19h-42v554h42v-554zM672 687h-50v52h50v-52zM497 -19h-42v554h42v-554zM501 687h-50v52h50v-52z" />
    <glyph glyph-name="uni2173" unicode="&#x2173;" horiz-adv-x="950" 
d="M240 -19h-42v554h42v-554zM244 686h-51v54h51v-54zM581 -19h-44q-57 139 -114.5 277t-114.5 277h45l206 -497q51 123 103 248t103 249h46z" />
    <glyph glyph-name="uni2174" unicode="&#x2174;" horiz-adv-x="950" 
d="M497 -19h-44q-58 140 -115 277t-115 277h46l206 -497q51 123 103 248t103 249h45z" />
    <glyph glyph-name="uni2175" unicode="&#x2175;" horiz-adv-x="950" 
d="M415 -19h-44q-57 139 -114.5 277t-114.5 277h45l206 -497q51 123 103 248t103 249h46zM764 -19h-42v554h42v-554zM768 686h-51v54h51v-54z" />
    <glyph glyph-name="uni2176" unicode="&#x2176;" horiz-adv-x="950" 
d="M348 -19h-43q-51 140 -101 277t-101 277h46l178 -498q44 123 88.5 248.5t88.5 249.5h47zM659 -19h-42v554h42v-554zM663 687h-49v52h49v-52zM801 -19h-42v554h42v-554zM804 687h-49v52h49v-52z" />
    <glyph glyph-name="uni2177" unicode="&#x2177;" horiz-adv-x="950" 
d="M292 -19h-44q-49 140 -96.5 277t-96.5 277h47l168 -499q42 123 84 249t84 250h46zM586 -19h-42v554h42v-554zM590 687h-49v52h49v-52zM719 -19h-42v554h42v-554zM723 687h-49v52h49v-52zM853 -19h-42v554h42v-554zM857 687h-49v52h49v-52z" />
    <glyph glyph-name="uni2178" unicode="&#x2178;" horiz-adv-x="950" 
d="M258 -19h-42v554h42v-554zM262 686h-51v54h51v-54zM550 231q-45 -60 -93 -125t-93 -125h-50l211 283q-50 67 -100.5 135.5t-100.5 135.5h50l176 -238q43 58 88.5 119t88.5 119h50l-201 -271q53 -70 105.5 -141.5t105.5 -141.5h-50z" />
    <glyph glyph-name="uni2179" unicode="&#x2179;" horiz-adv-x="950" 
d="M475 231q-45 -60 -93 -125t-93 -125h-50l210 283q-50 67 -100.5 135.5t-100.5 135.5h50l177 -238q43 58 88.5 119t88.5 119h50l-203 -271q53 -70 106 -141.5t106 -141.5h-50z" />
    <glyph glyph-name="arrowleft" unicode="&#x2190;" horiz-adv-x="950" 
d="M927 341h-718q20 -18 43.5 -38.5t45.5 -39.5q-71 25 -137 48t-136 47q69 24 135.5 46.5t135.5 46.5l-88 -76h719v-34z" />
    <glyph glyph-name="arrowup" unicode="&#x2191;" horiz-adv-x="950" 
d="M458 -117v756q-17 -22 -36.5 -47.5t-37.5 -48.5q23 76 45 144t45 143q23 -75 45.5 -143.5t45.5 -143.5l-75 95v-755h-32z" />
    <glyph glyph-name="arrowright" unicode="&#x2192;" horiz-adv-x="950" 
d="M22 375h718q-21 18 -44.5 38t-45.5 39q70 -24 137.5 -47t136.5 -47q-69 -23 -137 -47.5t-136 -47.5l89 78h-718v34z" />
    <glyph glyph-name="arrowdown" unicode="&#x2193;" horiz-adv-x="950" 
d="M565 175q-23 -76 -45.5 -144t-45.5 -143q-23 75 -45 143.5t-45 143.5l74 -97v757h32v-755z" />
    <glyph glyph-name="arrowboth" unicode="&#x2194;" horiz-adv-x="950" 
d="M295 256q-69 26 -137.5 51.5t-135.5 50.5q71 27 137.5 51.5t137.5 50.5l-96 -85h548q-22 20 -47 42t-48 43q69 -26 138.5 -51.5t136.5 -50.5q-69 -26 -136.5 -51t-136.5 -51l93 85h-548z" />
    <glyph glyph-name="arrowupdn" unicode="&#x2195;" horiz-adv-x="950" 
d="M379 554q25 74 48 143.5t48 141.5q25 -73 48 -142.5t48 -142.5l-80 97v-586q18 23 39.5 49t40.5 49q-25 -74 -48 -144t-48 -142q-25 74 -48 143t-48 142l80 -97v586z" />
    <glyph glyph-name="uni2196" unicode="&#x2196;" horiz-adv-x="950" 
d="M893 -107l-745 784v-159q-32 82 -61 156t-61 156q75 -33 145.5 -66t145.5 -66h-143q186 -194 371 -389t371 -390z" />
    <glyph glyph-name="uni2197" unicode="&#x2197;" horiz-adv-x="950" 
d="M26 -92l745 784h-153q78 33 148.5 64.5t148.5 64.5q-32 -78 -62.5 -153.5t-62.5 -153.5v150q-185 -195 -370 -390.5t-370 -390.5z" />
    <glyph glyph-name="uni2198" unicode="&#x2198;" horiz-adv-x="950" 
d="M53 828l745 -784v159q32 -82 61 -156t61 -156q-75 33 -145.5 66t-145.5 66h143q-186 194 -371 389t-371 390z" />
    <glyph glyph-name="uni2199" unicode="&#x2199;" horiz-adv-x="950" 
d="M915 798l-745 -784h153q-78 -33 -148.5 -64.5t-148.5 -64.5q32 78 62.5 153t62.5 153v-149q185 195 370 390.5t370 390.5z" />
    <glyph glyph-name="arrowdblright" unicode="&#x21d2;" horiz-adv-x="950" 
d="M747 455q-35 26 -74 54t-74 54q5 8 11 15t11 14q82 -60 162.5 -117.5t162.5 -117.5q-82 -60 -162.5 -117.5t-162.5 -117.5q-5 8 -11 14.5t-11 14.5l151 110h-747v34h794l86 62l-89 64h-791v34h744z" />
    <glyph glyph-name="arrowdblboth" unicode="&#x21d4;" horiz-adv-x="950" 
d="M748 455q-36 26 -74.5 54.5t-74.5 54.5q5 8 11 15t11 14q82 -60 162.5 -117.5t162.5 -117.5q-82 -60 -162.5 -117.5t-162.5 -117.5q-5 8 -11 14.5t-11 14.5l149 109h-546q36 -26 75 -54.5t75 -54.5q-5 -8 -11 -15t-11 -14q-82 60 -162.5 117.5t-162.5 117.5
q82 60 162.5 117.5t162.5 117.5q5 -8 11 -14.5t11 -14.5l-150 -109h546zM796 295l87 63l-87 63h-641l-87 -63l87 -63h641z" />
    <glyph glyph-name="universal" unicode="&#x2200;" horiz-adv-x="950" 
d="M291 516h405q23 55 46.5 110t46.5 110h42q-79 -191 -157 -377.5t-157 -376.5h-46q-78 190 -157 377t-157 377h42zM682 482h-378l189 -455z" />
    <glyph glyph-name="partialdiff" unicode="&#x2202;" horiz-adv-x="950" 
d="M581 363q-33 0 -76 -7.5t-89 -41.5q-22 -17 -36.5 -36.5t-19.5 -41.5q-5 -20 -2 -37.5t12 -29.5q25 -28 64 -13q40 16 71 47q17 18 30.5 39t23.5 42t16 40.5t9 34.5zM453 521q-51 -9 -77 -41q-24 -30 -34 -22q1 -1 38 47q40 50 123 46q76 -3 108 -68q20 -36 20 -84
q0 -36 -12 -78q-19 -68 -60 -113t-100 -66q-35 -11 -59 -11q-67 0 -84 74q-2 12 2.5 33t17.5 47q26 55 123 82q34 9 66 10.5t49 1.5h11q2 24 -2.5 50t-15.5 52q-11 20 -30 32t-46 12q-19 0 -38 -4z" />
    <glyph glyph-name="existential" unicode="&#x2203;" horiz-adv-x="950" 
d="M728 735v-754h-516v34h475v341h-447v34h447v311h-466v34h507z" />
    <glyph glyph-name="gradient" unicode="&#x2207;" horiz-adv-x="950" 
d="M475 32q-89 161 -177 318t-177 318h710zM180 635l298 -529l287 529h-585z" />
    <glyph glyph-name="element" unicode="&#x2208;" horiz-adv-x="950" 
d="M163 341q2 -40 18 -77.5t44 -75.5q55 -73 177 -73h403v-34h-392q-133 0 -210 80q-76 81 -76 197t76 197q77 80 210 80h392v-34h-403q-121 0 -177 -74q-28 -38 -44 -75.5t-18 -76.5h641v-34h-641z" />
    <glyph glyph-name="suchthat" unicode="&#x220b;" horiz-adv-x="950" 
d="M147 341v34h641q-4 76 -62 152q-56 74 -177 74h-403v34h392q132 0 209 -80t77 -197t-77 -197t-209 -80h-392v34h403q121 0 177 73q27 36 43.5 74.5t18.5 78.5h-641z" />
    <glyph glyph-name="product" unicode="&#x220f;" horiz-adv-x="950" 
d="M795 695v-34h-171v-640h-32v640h-234v-640h-32v640h-171v34h640z" />
    <glyph glyph-name="summation" unicode="&#x2211;" horiz-adv-x="950" 
d="M744 695v-221h-34v187h-479q69 -75 139.5 -151.5t139.5 -151.5l-279 -303h487v188h34v-222h-546q-8 0 -14.5 4t-8.5 14q1 11 9.5 22.5t17.5 19.5l253 277q-63 70 -129 142t-129 142v53h539z" />
    <glyph glyph-name="radical" unicode="&#x221a;" horiz-adv-x="950" 
d="M93 216q20 15 39 29t39 29l90 -180q23 136 46.5 275t46.5 276h488v-35h-462l-103 -603q-1 -3 -4 -3t-5 2l-110 218q-11 -8 -24.5 -18.5t-24.5 -19.5z" />
    <glyph glyph-name="proportional" unicode="&#x221d;" horiz-adv-x="950" 
d="M813 505q-18 14 -37.5 19t-49.5 5q-107 0 -145 -83q-37 -79 -39 -88q2 -9 39 -88q38 -83 145 -83q29 0 50 6.5t37 17.5l20 -28q-24 -16 -48 -24t-59 -8q-54 0 -92 19.5t-61 56.5q-21 35 -35 60q-12 24 -15 31q-3 -8 -15 -30q-13 -22 -37 -61q-46 -76 -152 -76
q-82 0 -139 60t-57 147q0 86 57 146q58 61 139 61q105 0 151 -76q49 -77 50 -83h6q1 3 13.5 24.5t35.5 58.5q24 37 62 56.5t89 19.5q34 0 60 -8.5t46 -23.5zM156 358q0 -70 48 -121q47 -50 115 -50q97 0 141 83q20 40 31 61.5t13 26.5q-2 5 -13 26.5t-31 61.5
q-44 83 -141 83q-67 0 -115 -50q-23 -25 -35.5 -55.5t-12.5 -65.5z" />
    <glyph glyph-name="infinity" unicode="&#x221e;" horiz-adv-x="950" 
d="M478 401q-1 -2 6 10t21 34q4 6 7.5 12.5t8.5 13.5q20 30 53 47.5t77 17.5q68 0 120 -52q50 -52 50 -126t-50 -126q-52 -52 -120 -52q-44 0 -77 17.5t-53 47.5q-4 6 -9 13l-7 13l-20 31q-6 11 -7 13h-6q1 2 -6 -10t-21 -34q-4 -6 -7.5 -12t-8.5 -14q-41 -65 -130 -65
q-68 0 -120 52q-50 52 -50 126t50 126q52 52 120 52q44 0 77 -17.5t53 -47.5q4 -6 8 -14l8 -12l19 -32q7 -10 8 -12h6zM784 358q0 58 -40 99q-38 41 -93 41q-77 0 -113 -68q-17 -32 -26 -50.5t-10 -21.5q1 -4 10 -22t26 -50q36 -68 113 -68q55 0 93 41q40 41 40 99zM167 358
q0 -57 39 -99q38 -41 93 -41q77 0 113 68q33 64 36 72q-2 3 -10.5 21.5t-25.5 50.5q-36 68 -113 68q-55 0 -93 -41q-39 -42 -39 -99z" />
    <glyph glyph-name="angle" unicode="&#x2220;" horiz-adv-x="950" 
d="M213 75h601v-34h-652q-11 0 -16 9q1 5 7.5 13.5t10.5 12.5q143 152 283 301t283 301l27 -27z" />
    <glyph glyph-name="uni2225" unicode="&#x2225;" horiz-adv-x="950" 
d="M373 835h32v-954h-32v954zM544 835h32v-954h-32v954z" />
    <glyph glyph-name="logicaland" unicode="&#x2227;" horiz-adv-x="950" 
d="M475 638q-71 -153 -143 -307.5t-143 -307.5q-8 5 -13.5 8t-13.5 8q74 159 148.5 320t148.5 320q3 5 8 11.5t8 6.5q5 0 9 -5t7 -13q75 -161 148.5 -320t148.5 -320q-8 -5 -13.5 -8t-13.5 -8z" />
    <glyph glyph-name="logicalor" unicode="&#x2228;" horiz-adv-x="950" 
d="M475 80q71 153 143 307.5t143 307.5q8 -5 13.5 -8t13.5 -8q-74 -159 -148.5 -320t-148.5 -320l-8 -12q-4 -6 -8 -6q-3 0 -8 6.5t-8 11.5q-75 161 -148.5 320t-148.5 320q8 5 13.5 8t13.5 8z" />
    <glyph glyph-name="intersection" unicode="&#x2229;" horiz-adv-x="950" 
d="M470 688q-72 0 -150 -60q-76 -58 -76 -193v-424h-32v413q0 139 76 220q75 81 187 81t187 -81q76 -81 76 -220v-413h-32v424q0 66 -20 114.5t-57 78.5q-37 28 -75.5 44t-73.5 16h-10z" />
    <glyph glyph-name="union" unicode="&#x222a;" horiz-adv-x="950" 
d="M467 28q35 0 73.5 15.5t75.5 43.5q37 30 57 79t20 115v424h32v-413q0 -139 -76 -221q-77 -80 -187 -80t-187 80q-76 82 -76 221v413h32v-424q0 -136 76 -194q77 -59 150 -59h10z" />
    <glyph glyph-name="integral" unicode="&#x222b;" horiz-adv-x="950" 
d="M458 484q6 60 17 109.5t27 86.5t37.5 59.5t47.5 28.5q26 7 42 -15q13 -20 3 -36q-15 -27 -32 -14q-21 15 -37 10q-45 -16 -48 -95q-1 -37 -3 -73.5t-4 -71.5q-2 -30 -3 -54.5t-2 -42.5q-1 -16 -2 -26.5t-1 -18.5q-1 -15 -2.5 -39.5t-5.5 -58.5q-13 -120 -44.5 -196.5
t-84.5 -87.5q-28 -7 -44 14q-5 8 -5.5 18.5t3.5 18.5q18 26 35 15v1q24 -16 35 -12q21 11 33.5 35t14.5 60q2 37 3.5 73.5t3.5 71.5q2 42 3.5 72t2.5 49q0 6 0.5 11t0.5 9q1 30 9 99z" />
    <glyph glyph-name="uni222C" unicode="&#x222c;" horiz-adv-x="950" 
d="M585 484q13 121 44.5 197t84.5 87q28 7 41 -15q13 -21 5 -36q-15 -25 -33 -13v-1q-21 15 -37 10q-45 -16 -48 -95q-1 -37 -3 -73.5t-4 -71.5q-2 -38 -3.5 -68.5t-2.5 -50.5q-1 -6 -1 -13v-10q-2 -31 -9 -98q-13 -120 -44.5 -196.5t-84.5 -87.5q-28 -7 -43 14
q-14 20 -3 37q18 28 35 16q24 -16 35 -12q21 11 34 35t14 60q2 37 3.5 73.5t3.5 71.5q2 42 3.5 72t2.5 49q0 5 0.5 10.5t0.5 9.5q3 30 9 99zM328 484q6 60 17 109.5t27 86.5t37.5 59.5t47.5 28.5q26 7 42 -15q13 -20 3 -36q-15 -25 -33 -13v-1q-21 15 -36 10
q-47 -19 -48 -95q-1 -37 -3 -73.5t-4 -71.5q-2 -30 -3 -54.5t-2 -42.5q-1 -16 -2 -26.5t-1 -18.5q-1 -15 -2.5 -40.5t-5.5 -57.5q-7 -58 -18.5 -107.5t-27.5 -87.5q-16 -37 -36.5 -60t-46.5 -29q-28 -7 -44 14q-5 8 -5.5 18.5t3.5 18.5q18 26 35 15v1q22 -16 34 -12
q21 11 34 35t15 60q2 37 3.5 73.5t3.5 71.5q4 111 6 141v-1q1 4 1 9t1 10q2 15 3.5 35t4.5 46z" />
    <glyph glyph-name="uni222E" unicode="&#x222e;" horiz-adv-x="950" 
d="M415 217q-30 18 -50 49.5t-20 70.5q0 56 38 96q41 41 92 41q6 0 10.5 -0.5t9.5 -1.5q33 97 59 144q20 32 42.5 45.5t45.5 8.5q20 -4 30 -12t12 -23q4 -28 -13 -37q-11 -6 -22 -3.5t-19 16.5q-4 10 -4 14t-1 7t-6 5h1q-14 8 -27 -12.5t-27 -57.5q-2 -5 -3.5 -11t-3.5 -11
q-7 -21 -14.5 -42.5t-12.5 -43.5q33 -19 53 -51.5t20 -70.5q0 -57 -39 -96q-40 -40 -91 -40h-11q-5 0 -10 1q-15 -48 -30 -85t-29 -62v1q-21 -35 -43.5 -47t-45.5 -8h1q-39 8 -42 35q-3 26 14 37h-1q10 5 22 2t19 -15q4 -10 4 -14t1 -7t6 -5h-1q14 -8 27.5 13.5t26.5 56.5
q2 5 2.5 8.5t2.5 8.5q8 23 15 46t13 46zM429 254q3 11 6 21.5t7 21.5t7.5 23.5t6.5 23.5q5 13 8.5 25t7.5 24q3 11 7 23t7 22h-11q-40 0 -68 -29t-28 -72q0 -28 12 -50t33 -35zM521 420q-3 -14 -9 -34.5t-13 -43.5q-1 -2 -2 -6t-2 -7q-7 -22 -13.5 -44t-17.5 -48h11
q41 0 68.5 29t27.5 71q0 28 -12 50.5t-33 35.5z" />
    <glyph glyph-name="therefore" unicode="&#x2234;" horiz-adv-x="950" 
d="M715 159q17 0 30.5 -13.5t13.5 -32.5t-13.5 -32.5t-30.5 -13.5t-30 13.5t-13 32.5t13 32.5t30 13.5zM235 159q17 0 30 -13.5t13 -32.5t-13 -32.5t-30 -13.5t-30.5 13.5t-13.5 32.5t13.5 32.5t30.5 13.5zM475 637q17 0 30.5 -13.5t13.5 -32.5t-13.5 -32.5t-30.5 -13.5
t-30.5 13.5t-13.5 32.5t13.5 32.5t30.5 13.5z" />
    <glyph glyph-name="uni2235" unicode="&#x2235;" horiz-adv-x="950" 
d="M715 556q-17 0 -30 13.5t-13 32.5t13 32.5t30 13.5t30.5 -13.5t13.5 -32.5t-13.5 -32.5t-30.5 -13.5zM235 556q-17 0 -30.5 13.5t-13.5 32.5t13.5 32.5t30.5 13.5t30 -13.5t13 -32.5t-13 -32.5t-30 -13.5zM475 78q-17 0 -30.5 13.5t-13.5 32.5t13.5 32.5t30.5 13.5
t30.5 -13.5t13.5 -32.5t-13.5 -32.5t-30.5 -13.5z" />
    <glyph glyph-name="similar" unicode="&#x223c;" horiz-adv-x="950" 
d="M79 307q5 87 67 156q62 70 158 59q99 -12 151 -109q57 -101 150 -107q84 -5 125 51q43 56 58 131h34q-8 -44 -25.5 -82.5t-43.5 -73.5q-45 -60 -128 -60q-7 0 -15.5 0.5t-16.5 1.5q-48 8 -88 35.5t-69 75.5v-1q-58 100 -139 108q-46 3 -81.5 -12t-56.5 -49
q-19 -31 -31.5 -63t-15.5 -61h-33z" />
    <glyph glyph-name="uni223D" unicode="&#x223d;" horiz-adv-x="950" 
d="M692 579q35 -1 66.5 -14.5t60.5 -39.5q59 -53 56 -155q-1 -77 -52 -134q-50 -56 -134 -56q-26 0 -47 4.5t-36 12.5q-5 3 -9.5 5.5t-8.5 4.5l-10 5q4 8 8 17t8 17q1 -1 3.5 -2t9.5 -5q3 -2 7 -4l8 -4q14 -7 32.5 -11t39.5 -4q61 0 103 45q41 44 43 102q2 76 -39 126
q-41 51 -111 55q-91 5 -134 -64q-43 -66 -66 -115q-9 -21 -27 -49t-44 -66q-53 -76 -157 -68q-67 5 -127 57q-27 26 -42 65t-14 87q1 71 52 131q50 59 134 59q52 0 83 -17l19 -11q7 -3 9 -5q-5 -8 -7.5 -14.5t-7.5 -14.5q-3 2 -9.5 5.5t-17.5 8.5q-28 14 -73 14
q-59 0 -103 -43q-45 -43 -46 -108q-1 -78 40 -128t113 -54q89 -5 137 72q24 38 39 64t22 38q14 26 33 56t42 65q49 73 154 70z" />
    <glyph glyph-name="uni2252" unicode="&#x2252;" horiz-adv-x="950" 
d="M136 463h678v-40h-678v40zM136 293h678v-40h-678v40zM282 675q20 0 33.5 -15t13.5 -35t-13.5 -35t-33.5 -15t-33.5 15t-13.5 35t13.5 35t33.5 15zM669 142q19 0 33 -15t14 -35t-14 -35t-33 -15t-33.5 15t-14.5 35t14.5 35t33.5 15z" />
    <glyph glyph-name="notequal" unicode="&#x2260;" horiz-adv-x="950" 
d="M485 479q19 59 38 118.5t38 118.5q9 -2 18.5 -5t18.5 -5l-70 -227h296v-38h-310l-53 -171h363v-39h-377q-20 -58 -40 -116.5t-40 -116.5q-10 3 -20 5.5t-20 4.5l77 223h-258v39h272l54 171h-326v38h339z" />
    <glyph glyph-name="equivalence" unicode="&#x2261;" horiz-adv-x="950" 
d="M136 535h678v-34h-678v34zM136 375h678v-34h-678v34zM136 215h678v-34h-678v34z" />
    <glyph glyph-name="lessequal" unicode="&#x2264;" horiz-adv-x="950" 
d="M226 458q141 -63 285 -126.5t285 -126.5q-5 -10 -8.5 -18.5t-8.5 -18.5q-149 66 -308.5 136.5t-308.5 136.5q-5 3 -11 8t-6 9q0 5 6 9l12 8h-1q156 69 309.5 136.5t309.5 136.5q4 -10 7.5 -18.5t7.5 -18.5zM126 93h697v-40h-697v40z" />
    <glyph glyph-name="greaterequal" unicode="&#x2265;" horiz-adv-x="950" 
d="M734 458q-141 63 -285 126.5t-285 126.5q4 10 7.5 18.5t7.5 18.5q150 -66 309 -136.5t309 -136.5q7 -4 12 -8t5 -9q0 -4 -6 -9t-11 -8q-155 -69 -308 -136.5t-308 -136.5q-5 10 -8.5 18.5t-8.5 18.5zM833 93v-40h-697v40h697z" />
    <glyph glyph-name="uni226A" unicode="&#x226a;" horiz-adv-x="950" 
d="M596 715q5 -7 9.5 -13.5t9.5 -13.5l-452 -330q114 -83 227 -166t227 -166q-6 -8 -10.5 -13t-10.5 -12q-115 85 -230.5 169.5t-230.5 169.5l-4 2q-2 1 -3 3q-11 7 -11 13q0 5 6 9t11 8zM824 715q5 -7 9.5 -13.5t9.5 -13.5l-452 -330q114 -83 227 -166t227 -166
q-6 -8 -10.5 -13t-10.5 -12q-115 85 -230.5 169.5t-230.5 169.5l-4 2q-2 1 -3 3q-11 7 -11 13q0 5 6 9t11 8z" />
    <glyph glyph-name="uni226B" unicode="&#x226b;" horiz-adv-x="950" 
d="M815 376q5 -4 11.5 -9.5t6.5 -8.5q0 -4 -3.5 -7t-7.5 -6q-1 -1 -3.5 -2.5t-3.5 -2.5q-116 -85 -230.5 -169.5t-230.5 -169.5q-5 6 -10.5 12.5t-10.5 12.5l454 332q-113 82 -226 165t-226 165q5 8 9.5 13.5t9.5 13.5zM587 376q5 -4 11.5 -9.5t6.5 -8.5q0 -4 -3.5 -7
t-7.5 -6q-1 -1 -3.5 -2.5t-3.5 -2.5q-116 -85 -230.5 -169.5t-230.5 -169.5q-5 6 -10.5 12.5t-10.5 12.5l454 332q-113 82 -226 165t-226 165q5 8 9.5 13.5t9.5 13.5z" />
    <glyph glyph-name="propersubset" unicode="&#x2282;" horiz-adv-x="950" 
d="M162 353q0 -78 56 -158t184 -80h403v-34h-392q-133 0 -210 80q-76 81 -76 197t76 197q77 80 210 80h392v-34h-403q-127 0 -184 -81q-56 -80 -56 -157v-10z" />
    <glyph glyph-name="propersuperset" unicode="&#x2283;" horiz-adv-x="950" 
d="M789 363q0 76 -57 157t-183 81h-403v34h392q132 0 209 -80t77 -197t-77 -197t-209 -80h-392v34h403q127 0 183 80q57 81 57 158v10z" />
    <glyph glyph-name="reflexsubset" unicode="&#x2286;" horiz-adv-x="950" 
d="M126 75h697v-34h-697v34zM160 438q0 -77 57 -140t184 -63h403v-34h-392q-147 0 -217 70q-69 69 -69 167t69 167q70 70 217 70h392v-34h-403q-129 0 -185 -64q-56 -62 -56 -139z" />
    <glyph glyph-name="reflexsuperset" unicode="&#x2287;" horiz-adv-x="950" 
d="M823 75v-34h-697v34h697zM790 438q0 76 -57 139q-56 64 -184 64h-404v34h393q146 0 216 -70q69 -69 69 -167q0 -97 -68 -167q-70 -70 -217 -70h-393v34h404q127 0 184 63t57 140z" />
    <glyph glyph-name="uni2299" unicode="&#x2299;" horiz-adv-x="950" 
d="M476 763q160 0 273 -119q113 -118 113 -287q0 -168 -113 -287q-115 -118 -273 -118q-161 0 -275 117q-113 118 -113 288t113 288q115 118 275 118zM476 722q-145 0 -248 -106q-102 -107 -102 -259q0 -151 102 -259q103 -106 248 -106t245 106q103 107 103 259
q0 75 -26.5 139.5t-76.5 118.5q-51 51 -112.5 79t-132.5 28zM476 517q62 0 107 -48t45 -113q0 -64 -45 -112q-44 -47 -107 -47t-107 47q-45 48 -45 112q0 65 45 113t107 48z" />
    <glyph glyph-name="perpendicular" unicode="&#x22a5;" horiz-adv-x="950" 
d="M155 75h301v580h38v-580h301v-34h-640v34z" />
    <glyph glyph-name="uni2312" unicode="&#x2312;" horiz-adv-x="950" 
d="M137 381q20 128 114 214q97 88 224 88q128 0 224 -88q96 -87 115 -214h-40q-10 56 -36 104t-67 85q-85 76 -196 76q-110 0 -195 -76q-39 -37 -66.5 -85t-37.5 -104h-39z" />
    <glyph glyph-name="uni2460" unicode="&#x2460;" horiz-adv-x="1000" 
d="M63 358q0 90 34 169.5t94 139.5q59 59 138.5 93t170.5 34t170.5 -34t138.5 -93q59 -60 93 -139.5t34 -169.5t-34 -170t-93 -139t-138.5 -93.5t-170.5 -34.5t-170.5 34.5t-138.5 93.5q-60 59 -94 139t-34 170zM92 358q0 -84 32.5 -158t88.5 -129q55 -56 129 -88.5
t158 -32.5t158 32.5t130 88.5q55 55 87.5 129t32.5 158t-32.5 158t-87.5 130q-56 55 -130 87.5t-158 32.5t-158 -32.5t-129 -87.5q-56 -56 -88.5 -130t-32.5 -158zM497 57q1 19 1.5 35.5t0.5 36.5v489q-26 -25 -56 -49l-65 -52q-4 5 -9 11.5t-10 13.5q39 29 69 53t67 55h43
q-2 -17 -2 -33.5v-38.5v-449q0 -20 0.5 -36.5t1.5 -35.5h-41z" />
    <glyph glyph-name="uni2461" unicode="&#x2461;" horiz-adv-x="1000" 
d="M63 358q0 90 34 169.5t94 139.5q59 59 138.5 93t170.5 34t170.5 -34t138.5 -93q59 -60 93 -139.5t34 -169.5t-34 -170t-93 -139t-138.5 -93.5t-170.5 -34.5t-170.5 34.5t-138.5 93.5q-60 59 -94 139t-34 170zM92 358q0 -84 32.5 -158t88.5 -129q55 -56 129 -88.5
t158 -32.5t158 32.5t130 88.5q55 55 87.5 129t32.5 158t-32.5 158t-87.5 130q-56 55 -130 87.5t-158 32.5t-158 -32.5t-129 -87.5q-56 -56 -88.5 -130t-32.5 -158zM327 108q20 16 50.5 41.5t65.5 56.5t70 67t64 75q28 39 45.5 79t17.5 79q0 27 -12 49.5t-33 39.5
q-21 16 -49 25.5t-61 9.5q-36 0 -70 -8.5t-62 -18.5q-1 10 -1.5 16t-2.5 14q35 14 73.5 20.5t74.5 6.5q37 0 70 -10t58 -30q24 -20 38 -49.5t14 -69.5q0 -60 -33 -118t-81 -111t-101.5 -98.5t-94.5 -79.5l3 -6h267q13 0 25 1l24 2v-34q-12 2 -25 1t-19 -1h-315v51z" />
    <glyph glyph-name="uni2462" unicode="&#x2462;" horiz-adv-x="1000" 
d="M63 358q0 90 34 169.5t94 139.5q59 59 138.5 93t170.5 34t170.5 -34t138.5 -93q59 -60 93 -139.5t34 -169.5t-34 -170t-93 -139t-138.5 -93.5t-170.5 -34.5t-170.5 34.5t-138.5 93.5q-60 59 -94 139t-34 170zM92 358q0 -84 32.5 -158t88.5 -129q55 -56 129 -88.5
t158 -32.5t158 32.5t130 88.5q55 55 87.5 129t32.5 158t-32.5 158t-87.5 130q-56 55 -130 87.5t-158 32.5t-158 -32.5t-129 -87.5q-56 -56 -88.5 -130t-32.5 -158zM443 357h-17t-15 -1v33h38q29 0 62.5 6t62.5 20q28 14 46.5 38t18.5 61q0 35 -12 58t-33 37t-50 20t-63 6
q-38 0 -68.5 -5t-57.5 -16q-1 8 -1.5 15.5t-1.5 15.5q31 9 69.5 15t71.5 6q37 0 70 -8.5t58 -26.5q24 -19 38.5 -47.5t14.5 -67.5q0 -31 -11 -54t-28 -39q-17 -17 -38.5 -28t-43.5 -18l-16 -5v-3q5 0 12.5 -1t13.5 -3q25 -6 46.5 -20t38.5 -34q16 -20 25.5 -45.5t9.5 -54.5
q0 -46 -20.5 -76.5t-53.5 -48.5q-34 -19 -76 -26.5t-85 -7.5q-29 0 -61 5.5t-58 11.5q0 9 0.5 16.5t0.5 18.5q25 -9 55 -15t62 -6q38 0 74 5.5t64 20.5q28 14 45 39.5t17 65.5q0 42 -18.5 69.5t-47.5 44.5q-30 16 -66 22.5t-72 6.5z" />
    <glyph glyph-name="uni2463" unicode="&#x2463;" horiz-adv-x="1000" 
d="M63 358q0 90 34 169.5t94 139.5q59 59 138.5 93t170.5 34t170.5 -34t138.5 -93q59 -60 93 -139.5t34 -169.5t-34 -170t-93 -139t-138.5 -93.5t-170.5 -34.5t-170.5 34.5t-138.5 93.5q-60 59 -94 139t-34 170zM92 358q0 -84 32.5 -158t88.5 -129q55 -56 129 -88.5
t158 -32.5t158 32.5t130 88.5q55 55 87.5 129t32.5 158t-32.5 158t-87.5 130q-56 55 -130 87.5t-158 32.5t-158 -32.5t-129 -87.5q-56 -56 -88.5 -130t-32.5 -158zM272 202v48q72 94 148 195t142 204h56q-1 -12 -1 -20.5v-15.5v-381h60q7 0 12.5 0.5t10.5 1.5v-34
q-6 2 -12 2h-14h-57v-73q0 -16 0.5 -36.5t1.5 -35.5h-38q1 12 1.5 20t0.5 16v109h-311zM583 617l-3 2q-23 -39 -56.5 -87.5t-71.5 -100.5q-39 -52 -79.5 -103.5t-76.5 -95.5h287v385z" />
    <glyph glyph-name="uni2464" unicode="&#x2464;" horiz-adv-x="1000" 
d="M63 358q0 90 34 169.5t94 139.5q59 59 138.5 93t170.5 34t170.5 -34t138.5 -93q59 -60 93 -139.5t34 -169.5t-34 -170t-93 -139t-138.5 -93.5t-170.5 -34.5t-170.5 34.5t-138.5 93.5q-60 59 -94 139t-34 170zM92 358q0 -84 32.5 -158t88.5 -129q55 -56 129 -88.5
t158 -32.5t158 32.5t130 88.5q55 55 87.5 129t32.5 158t-32.5 158t-87.5 130q-56 55 -130 87.5t-158 32.5t-158 -32.5t-129 -87.5q-56 -56 -88.5 -130t-32.5 -158zM447 391q-29 0 -53 -3.5t-44 -9.5q4 71 7 139t5 138h250q13 0 25.5 0.5t23.5 1.5v-31h-269q-1 -20 -2.5 -46
t-2.5 -53t-2.5 -52.5t-2.5 -46.5q0 -5 -1 -11.5t-1 -10.5q24 7 56 11t57 4q40 0 74 -13t59 -36q25 -24 39.5 -56.5t14.5 -70.5q0 -47 -17.5 -83t-47.5 -60q-30 -25 -71 -37.5t-87 -12.5q-38 0 -68 4.5t-50 9.5q1 13 1.5 20t1.5 15q23 -10 50 -14t61 -4q37 0 71 8.5t61 26.5
q26 18 42 46t16 67q0 45 -14.5 75.5t-40.5 49.5q-27 18 -63 26.5t-78 8.5z" />
    <glyph glyph-name="uni2465" unicode="&#x2465;" horiz-adv-x="1000" 
d="M63 358q0 90 34 169.5t94 139.5q59 59 138.5 93t170.5 34t170.5 -34t138.5 -93q59 -60 93 -139.5t34 -169.5t-34 -170t-93 -139t-138.5 -93.5t-170.5 -34.5t-170.5 34.5t-138.5 93.5q-60 59 -94 139t-34 170zM92 358q0 -84 32.5 -158t88.5 -129q55 -56 129 -88.5
t158 -32.5t158 32.5t130 88.5q55 55 87.5 129t32.5 158t-32.5 158t-87.5 130q-56 55 -130 87.5t-158 32.5t-158 -32.5t-129 -87.5q-56 -56 -88.5 -130t-32.5 -158zM647 617q-23 8 -49.5 13t-51.5 5q-51 0 -89 -25.5t-63 -68.5q-25 -44 -37.5 -100.5t-13.5 -117.5
q19 30 42 49t46 30q23 10 44.5 14t38.5 4q40 0 72 -14t54 -38t34 -56.5t12 -69.5q0 -45 -14.5 -80.5t-38.5 -59.5q-25 -24 -59 -37t-73 -13q-59 0 -96 25.5t-58 66.5q-22 40 -30 91t-8 101q0 61 10.5 120t37.5 106q26 46 71 75t113 29q11 0 26 -1.5t31 -3.5q15 -3 29.5 -5.5
t26.5 -5.5zM649 239q0 26 -9 53t-27 49q-18 21 -45.5 34.5t-65.5 13.5q-35 0 -62.5 -12t-46.5 -32q-19 -21 -29.5 -48t-10.5 -58q0 -27 9.5 -55t27.5 -50q18 -23 44.5 -37t61.5 -14q38 0 66.5 13.5t48.5 35.5q19 21 28.5 49t9.5 58z" />
    <glyph glyph-name="uni2466" unicode="&#x2466;" horiz-adv-x="1000" 
d="M63 358q0 90 34 169.5t94 139.5q59 59 138.5 93t170.5 34t170.5 -34t138.5 -93q59 -60 93 -139.5t34 -169.5t-34 -170t-93 -139t-138.5 -93.5t-170.5 -34.5t-170.5 34.5t-138.5 93.5q-60 59 -94 139t-34 170zM92 358q0 -84 32.5 -158t88.5 -129q55 -56 129 -88.5
t158 -32.5t158 32.5t130 88.5q55 55 87.5 129t32.5 158t-32.5 158t-87.5 130q-56 55 -130 87.5t-158 32.5t-158 -32.5t-129 -87.5q-56 -56 -88.5 -130t-32.5 -158zM693 591q-59 -139 -118 -273.5t-119 -272.5h-39l248 563h-287h-22t-23 -2v33q11 -1 26 -1.5t23 -0.5h311v-46
z" />
    <glyph glyph-name="uni2467" unicode="&#x2467;" horiz-adv-x="1000" 
d="M63 358q0 90 34 169.5t94 139.5q59 59 138.5 93t170.5 34t170.5 -34t138.5 -93q59 -60 93 -139.5t34 -169.5t-34 -170t-93 -139t-138.5 -93.5t-170.5 -34.5t-170.5 34.5t-138.5 93.5q-60 59 -94 139t-34 170zM92 358q0 -84 32.5 -158t88.5 -129q55 -56 129 -88.5
t158 -32.5t158 32.5t130 88.5q55 55 87.5 129t32.5 158t-32.5 158t-87.5 130q-56 55 -130 87.5t-158 32.5t-158 -32.5t-129 -87.5q-56 -56 -88.5 -130t-32.5 -158zM505 52q-35 0 -69.5 9.5t-61.5 29.5q-28 19 -45 48t-17 68q0 27 13 51.5t37 46.5q23 21 54.5 39t67.5 32
q-45 18 -75 37t-48 40q-18 20 -25.5 41t-7.5 42q0 26 12.5 49.5t36.5 41.5q23 18 56.5 28.5t76.5 10.5q41 0 73 -11t55 -28q22 -17 33.5 -39t11.5 -44q0 -47 -32.5 -86.5t-112.5 -82.5q35 -12 65 -28.5t52 -37.5q21 -21 33.5 -45.5t12.5 -52.5q0 -42 -15.5 -72t-41.5 -49
q-27 -20 -63 -29t-76 -9zM664 202q1 31 -10 53.5t-28 38.5t-38.5 27.5t-42.5 20.5q-13 6 -26.5 11.5t-28.5 13.5q-11 -8 -24 -16.5t-28 -16.5q-16 -11 -32 -22.5t-28 -25.5q-13 -14 -21 -32t-8 -42q0 -32 15 -56.5t39 -40.5q23 -16 52 -24t58 -8q28 0 54.5 7t47.5 22
t34.5 37.5t14.5 52.5zM361 523q0 -41 43.5 -73t124.5 -70q34 25 56.5 45.5t35.5 38.5q13 17 18 33.5t5 34.5q0 29 -14 49t-35 32q-22 12 -46.5 17t-45.5 5q-19 0 -43.5 -7t-46.5 -20q-22 -14 -37 -35.5t-15 -49.5z" />
    <glyph glyph-name="uni2468" unicode="&#x2468;" horiz-adv-x="1000" 
d="M63 358q0 90 34 169.5t94 139.5q59 59 138.5 93t170.5 34t170.5 -34t138.5 -93q59 -60 93 -139.5t34 -169.5t-34 -170t-93 -139t-138.5 -93.5t-170.5 -34.5t-170.5 34.5t-138.5 93.5q-60 59 -94 139t-34 170zM92 358q0 -84 32.5 -158t88.5 -129q55 -56 129 -88.5
t158 -32.5t158 32.5t130 88.5q55 55 87.5 129t32.5 158t-32.5 158t-87.5 130q-56 55 -130 87.5t-158 32.5t-158 -32.5t-129 -87.5q-56 -56 -88.5 -130t-32.5 -158zM359 101q23 -8 49.5 -13t51.5 -5q51 0 89 21.5t63 62.5q25 40 37.5 97.5t12.5 129.5q-17 -30 -39 -49
t-45 -29q-24 -11 -46.5 -14.5t-39.5 -3.5q-40 0 -72 13.5t-54 37.5t-34 56.5t-12 70.5q0 45 14.5 80.5t39.5 59.5q24 24 58 37t73 13q61 0 99 -24.5t59 -64.5q20 -40 27 -91t7 -104q0 -62 -10.5 -121t-36.5 -105q-27 -47 -72 -75.5t-113 -28.5q-11 0 -26 1.5t-30 3.5
q-16 3 -30.5 5.5t-26.5 5.5zM357 479q0 -26 9 -53t27 -48q18 -22 45.5 -35.5t65.5 -13.5q34 0 62 12t47 33q19 20 29.5 47t10.5 58q0 29 -9 57t-27 50t-45 35.5t-62 13.5q-38 0 -66.5 -13.5t-47.5 -34.5q-20 -22 -29.5 -50t-9.5 -58z" />
    <glyph glyph-name="uni2469" unicode="&#x2469;" horiz-adv-x="1000" 
d="M63 358q0 90 34 169.5t94 139.5q59 59 138.5 93t170.5 34t170.5 -34t138.5 -93q59 -60 93 -139.5t34 -169.5t-34 -170t-93 -139t-138.5 -93.5t-170.5 -34.5t-170.5 34.5t-138.5 93.5q-60 59 -94 139t-34 170zM92 358q0 -84 32.5 -158t88.5 -129q55 -56 129 -88.5
t158 -32.5t158 32.5t130 88.5q55 55 87.5 129t32.5 158t-32.5 158t-87.5 130q-56 55 -130 87.5t-158 32.5t-158 -32.5t-129 -87.5q-56 -56 -88.5 -130t-32.5 -158zM436 355q0 48 8 101t28 98q20 44 54 73t86 29t85.5 -29t53.5 -73q20 -45 28 -98t8 -101q0 -47 -8 -100
t-28 -97q-20 -45 -53.5 -74t-85.5 -29t-86 29t-54 74q-20 44 -28 97t-8 100zM472 356q0 -32 5 -77.5t20 -87.5q15 -43 42.5 -73t72.5 -30t72.5 30t42.5 73q15 42 20 87.5t5 77.5t-5.5 78t-20.5 89q-16 42 -43.5 72t-70.5 30t-70.5 -30t-42.5 -72q-16 -43 -21.5 -89t-5.5 -78
zM322 57q1 19 1.5 35.5t0.5 36.5v489q-23 -25 -50.5 -49t-58.5 -52q-3 5 -8 11.5t-9 13.5q35 29 62 53t60 55h39q-2 -17 -2 -33.5v-38.5v-449q0 -20 0.5 -36.5t1.5 -35.5h-37z" />
    <glyph glyph-name="uni246A" unicode="&#x246a;" horiz-adv-x="1000" 
d="M63 358q0 90 34 169.5t94 139.5q59 59 138.5 93t170.5 34t170.5 -34t138.5 -93q59 -60 93 -139.5t34 -169.5t-34 -170t-93 -139t-138.5 -93.5t-170.5 -34.5t-170.5 34.5t-138.5 93.5q-60 59 -94 139t-34 170zM92 358q0 -84 32.5 -158t88.5 -129q55 -56 129 -88.5
t158 -32.5t158 32.5t130 88.5q55 55 87.5 129t32.5 158t-32.5 158t-87.5 130q-56 55 -130 87.5t-158 32.5t-158 -32.5t-129 -87.5q-56 -56 -88.5 -130t-32.5 -158zM362 57q1 19 1.5 35.5t0.5 36.5v489q-23 -25 -50.5 -49t-58.5 -52q-3 5 -8 11.5t-9 13.5q35 29 62 53t60 55
h39q-2 -17 -2 -33.5v-38.5v-449q0 -20 0.5 -36.5t1.5 -35.5h-37zM652 57q1 19 1.5 35.5t0.5 36.5v489q-23 -25 -50.5 -49t-58.5 -52q-3 5 -8 11.5t-9 13.5q35 29 62 53t60 55h39q-2 -17 -2 -33.5v-38.5v-449q0 -20 0.5 -36.5t1.5 -35.5h-37z" />
    <glyph glyph-name="uni246B" unicode="&#x246b;" horiz-adv-x="1000" 
d="M63 358q0 90 34 169.5t94 139.5q59 59 138.5 93t170.5 34t170.5 -34t138.5 -93q59 -60 93 -139.5t34 -169.5t-34 -170t-93 -139t-138.5 -93.5t-170.5 -34.5t-170.5 34.5t-138.5 93.5q-60 59 -94 139t-34 170zM92 358q0 -84 32.5 -158t88.5 -129q55 -56 129 -88.5
t158 -32.5t158 32.5t130 88.5q55 55 87.5 129t32.5 158t-32.5 158t-87.5 130q-56 55 -130 87.5t-158 32.5t-158 -32.5t-129 -87.5q-56 -56 -88.5 -130t-32.5 -158zM322 57q1 19 1.5 35.5t0.5 36.5v489q-23 -25 -50.5 -49t-58.5 -52q-3 5 -8 11.5t-9 13.5q35 29 62 53t60 55
h39q-2 -17 -2 -33.5v-38.5v-449q0 -20 0.5 -36.5t1.5 -35.5h-37zM445 108q18 16 45.5 41.5t59.5 56.5q31 31 62.5 67t57.5 75q25 39 41 79t16 79q0 27 -11 49.5t-30 39.5q-19 16 -44.5 25.5t-54.5 9.5q-32 0 -62.5 -8.5t-56.5 -18.5q-1 10 -1 16t-2 14q32 14 66.5 20.5
t66.5 6.5q34 0 63.5 -10t51.5 -30t34.5 -49.5t12.5 -69.5q0 -60 -30 -118t-73 -111t-91 -98.5t-85 -79.5l3 -6h240q11 0 22 1l22 2v-34q-11 2 -22.5 1t-17.5 -1h-283v51z" />
    <glyph glyph-name="uni246C" unicode="&#x246c;" horiz-adv-x="1000" 
d="M63 358q0 90 34 169.5t94 139.5q59 59 138.5 93t170.5 34t170.5 -34t138.5 -93q59 -60 93 -139.5t34 -169.5t-34 -170t-93 -139t-138.5 -93.5t-170.5 -34.5t-170.5 34.5t-138.5 93.5q-60 59 -94 139t-34 170zM92 358q0 -84 32.5 -158t88.5 -129q55 -56 129 -88.5
t158 -32.5t158 32.5t130 88.5q55 55 87.5 129t32.5 158t-32.5 158t-87.5 130q-56 55 -130 87.5t-158 32.5t-158 -32.5t-129 -87.5q-56 -56 -88.5 -130t-32.5 -158zM322 57q1 19 1.5 35.5t0.5 36.5v489q-23 -25 -50.5 -49t-58.5 -52q-3 5 -8 11.5t-9 13.5q35 29 62 53t60 55
h39q-2 -17 -2 -33.5v-38.5v-449q0 -20 0.5 -36.5t1.5 -35.5h-37zM559 357h-15t-14 -1v33h35q26 0 56 6t56 20q25 14 42 38t17 61q0 35 -11 58t-30 37t-45.5 20t-56.5 6q-65 0 -113 -21q-1 8 -1.5 15.5t-1.5 15.5q28 9 63 15t64 6q33 0 63 -8.5t52 -26.5q22 -19 35 -47.5
t13 -67.5q0 -31 -9.5 -54t-25.5 -39q-16 -17 -35.5 -28t-38.5 -18l-14 -5v-3q5 0 11.5 -1t11.5 -3q22 -6 42 -20t35 -34q14 -20 22.5 -45.5t8.5 -54.5q0 -46 -18.5 -76.5t-48.5 -48.5q-30 -19 -67.5 -26.5t-76.5 -7.5q-26 0 -55 5.5t-52 11.5q0 9 0.5 16.5t0.5 18.5
q22 -9 49 -15t56 -6q34 0 66.5 5.5t58.5 20.5q25 14 40 39.5t15 65.5q0 42 -16.5 69.5t-42.5 44.5q-27 16 -60 22.5t-65 6.5z" />
    <glyph glyph-name="uni246D" unicode="&#x246d;" horiz-adv-x="1000" 
d="M63 358q0 90 34 169.5t94 139.5q59 59 138.5 93t170.5 34t170.5 -34t138.5 -93q59 -60 93 -139.5t34 -169.5t-34 -170t-93 -139t-138.5 -93.5t-170.5 -34.5t-170.5 34.5t-138.5 93.5q-60 59 -94 139t-34 170zM92 358q0 -84 32.5 -158t88.5 -129q55 -56 129 -88.5
t158 -32.5t158 32.5t130 88.5q55 55 87.5 129t32.5 158t-32.5 158t-87.5 130q-56 55 -130 87.5t-158 32.5t-158 -32.5t-129 -87.5q-56 -56 -88.5 -130t-32.5 -158zM322 57q1 19 1.5 35.5t0.5 36.5v489q-23 -25 -50.5 -49t-58.5 -52q-3 5 -8 11.5t-9 13.5q35 29 62 53t60 55
h39q-2 -17 -2 -33.5v-38.5v-449q0 -20 0.5 -36.5t1.5 -35.5h-37zM413 202v48q66 94 134 195t127 204h51q-1 -12 -1 -20.5v-15.5v-381h54q6 0 11 0.5t10 1.5v-34q-6 2 -11.5 2h-12.5h-51v-73q0 -16 0.5 -36.5t1.5 -35.5h-35q1 12 1.5 20t0.5 16v109h-280zM693 617l-2 2
q-21 -39 -51.5 -87.5t-64.5 -100.5q-35 -52 -71.5 -103.5t-68.5 -95.5h258v385z" />
    <glyph glyph-name="uni246E" unicode="&#x246e;" horiz-adv-x="1000" 
d="M63 358q0 90 34 169.5t94 139.5q59 59 138.5 93t170.5 34t170.5 -34t138.5 -93q59 -60 93 -139.5t34 -169.5t-34 -170t-93 -139t-138.5 -93.5t-170.5 -34.5t-170.5 34.5t-138.5 93.5q-60 59 -94 139t-34 170zM92 358q0 -84 32.5 -158t88.5 -129q55 -56 129 -88.5
t158 -32.5t158 32.5t130 88.5q55 55 87.5 129t32.5 158t-32.5 158t-87.5 130q-56 55 -130 87.5t-158 32.5t-158 -32.5t-129 -87.5q-56 -56 -88.5 -130t-32.5 -158zM553 386q-26 0 -47.5 -3.5t-39.5 -9.5q3 71 6 139t5 138h225q11 0 22 0.5t22 1.5v-31h-242q-1 -20 -2.5 -46
t-2.5 -53t-2 -52.5t-2 -46.5q0 -5 -1 -11.5t-1 -10.5q22 7 50.5 11t51.5 4q36 0 66.5 -13t53.5 -36q22 -24 35 -56.5t13 -70.5q0 -47 -15.5 -83t-42.5 -60q-28 -25 -64.5 -37.5t-78.5 -12.5q-34 0 -61 4.5t-45 9.5q1 13 1.5 20t1.5 15q21 -10 45 -14t55 -4q33 0 64 8.5
t55 26.5q23 18 37.5 46t14.5 67q0 45 -13.5 75.5t-36.5 49.5q-24 18 -56.5 26.5t-70.5 8.5zM322 57q1 19 1.5 35.5t0.5 36.5v489q-23 -25 -50.5 -49t-58.5 -52q-3 5 -8 11.5t-9 13.5q35 29 62 53t60 55h39q-2 -17 -2 -33.5v-38.5v-449q0 -20 0.5 -36.5t1.5 -35.5h-37z" />
    <glyph glyph-name="uni2474" unicode="&#x2474;" horiz-adv-x="1000" 
d="M189 -42q-55 91 -92 189t-37 211q0 57 10 109.5t27 101.5t41 96t51 93h35q-23 -46 -45 -94.5t-39 -98.5q-17 -51 -27 -103t-10 -104q0 -53 10 -105t27 -102q16 -50 38 -98.5t46 -94.5h-35zM778 -42q24 46 46 94.5t39 98.5q16 50 26 102t10 105q0 52 -10 104t-27 103
q-17 50 -39 98.5t-45 94.5h35q27 -46 51 -93t41 -96t27 -101.5t10 -109.5q0 -113 -37 -211t-92 -189h-35zM508 52q1 19 2 36.5t1 38.5v505q-26 -26 -58 -51t-67 -54q-4 5 -9.5 12t-10.5 14q40 30 71.5 55t69.5 57h44q-2 -17 -2 -34.5v-40.5v-463q0 -21 0.5 -38.5t1.5 -36.5
h-43z" />
    <glyph glyph-name="uni2475" unicode="&#x2475;" horiz-adv-x="1000" 
d="M189 -42q-55 91 -92 189t-37 211q0 57 10 109.5t27 101.5t41 96t51 93h35q-23 -46 -45 -94.5t-39 -98.5q-17 -51 -27 -103t-10 -104q0 -53 10 -105t27 -102q16 -50 38 -98.5t46 -94.5h-35zM778 -42q24 46 46 94.5t39 98.5q16 50 26 102t10 105q0 52 -10 104t-27 103
q-17 50 -39 98.5t-45 94.5h35q27 -46 51 -93t41 -96t27 -101.5t10 -109.5q0 -113 -37 -211t-92 -189h-35zM317 105q20 17 52 43t68 58t72.5 69.5t65.5 77.5t47.5 81.5t18.5 81.5q0 28 -12.5 51.5t-34.5 40.5t-51 26.5t-63 9.5q-37 0 -72 -8.5t-64 -19.5q-1 10 -1.5 16.5
t-2.5 14.5q36 14 75.5 21t77.5 7q39 0 73 -10.5t59 -30.5q25 -21 39.5 -51.5t14.5 -71.5t-16 -82t-42 -80t-60 -75.5t-69 -69.5q-36 -34 -71 -63t-63 -52l4 -5h275q14 0 26.5 1t24.5 2v-35q-13 1 -26 0.5t-20 -0.5h-325v53z" />
    <glyph glyph-name="uni2476" unicode="&#x2476;" horiz-adv-x="1000" 
d="M189 -42q-55 91 -92 189t-37 211q0 57 10 109.5t27 101.5t41 96t51 93h35q-23 -46 -45 -94.5t-39 -98.5q-17 -51 -27 -103t-10 -104q0 -53 10 -105t27 -102q16 -50 38 -98.5t46 -94.5h-35zM778 -42q24 46 46 94.5t39 98.5q16 50 26 102t10 105q0 52 -10 104t-27 103
q-17 50 -39 98.5t-45 94.5h35q27 -46 51 -93t41 -96t27 -101.5t10 -109.5q0 -113 -37 -211t-92 -189h-35zM440 362h-17.5t-15.5 -1v34h39q30 0 65 6t64 21t48.5 39.5t19.5 62.5q0 36 -12.5 60t-34.5 39q-22 14 -52 20t-65 6q-74 0 -131 -21q-1 8 -1 15.5t-1 16.5
q32 9 71.5 15.5t73.5 6.5q39 0 73 -9t60 -28q25 -19 40 -48.5t15 -69.5q0 -32 -11 -56t-29 -41t-40.5 -28.5t-44.5 -18.5l-17 -6v-2q12 -2 26 -5q26 -6 49 -20.5t40 -35.5t27 -47t10 -56q0 -48 -21.5 -79.5t-55.5 -50.5q-35 -19 -78.5 -27t-88.5 -8q-30 0 -63 5.5t-61 12.5
q1 9 1.5 17t0.5 19q26 -9 57.5 -15t63.5 -6q40 0 77 5.5t66 20.5t46.5 41t17.5 68q0 43 -19 71.5t-49 45.5q-31 17 -68.5 24t-74.5 7z" />
    <glyph glyph-name="uni2477" unicode="&#x2477;" horiz-adv-x="1000" 
d="M189 -42q-55 91 -92 189t-37 211q0 57 10 109.5t27 101.5t41 96t51 93h35q-23 -46 -45 -94.5t-39 -98.5q-17 -51 -27 -103t-10 -104q0 -53 10 -105t27 -102q16 -50 38 -98.5t46 -94.5h-35zM778 -42q24 46 46 94.5t39 98.5q16 50 26 102t10 105q0 52 -10 104t-27 103
q-17 50 -39 98.5t-45 94.5h35q27 -46 51 -93t41 -96t27 -101.5t10 -109.5q0 -113 -37 -211t-92 -189h-35zM264 201v51q75 97 153 201.5t146 210.5h59q-2 -24 -1.5 -37.5t0.5 -37.5v-356h62q7 0 12.5 0.5t10.5 1.5v-35q-6 1 -12.5 1h-14.5h-58v-74q0 -17 0.5 -38t1.5 -37h-40
q1 12 1.5 20t0.5 16v113h-321zM585 632l-3 1q-24 -40 -58.5 -90.5t-74.5 -104.5t-81.5 -107t-78.5 -98h296v399z" />
    <glyph glyph-name="uni2478" unicode="&#x2478;" horiz-adv-x="1000" 
d="M189 -42q-55 91 -92 189t-37 211q0 57 10 109.5t27 101.5t41 96t51 93h35q-23 -46 -45 -94.5t-39 -98.5q-17 -51 -27 -103t-10 -104q0 -53 10 -105t27 -102q16 -50 38 -98.5t46 -94.5h-35zM778 -42q24 46 46 94.5t39 98.5q16 50 26 102t10 105q0 52 -10 104t-27 103
q-17 50 -39 98.5t-45 94.5h35q27 -46 51 -93t41 -96t27 -101.5t10 -109.5q0 -113 -37 -211t-92 -189h-35zM454 394q-30 0 -55 -3.5t-46 -9.5q5 73 8 143.5t5 142.5h258q14 0 26.5 0.5t25.5 1.5v-32q-14 1 -26.5 1h-19.5h-233q-1 -21 -2.5 -48t-2.5 -54q-2 -28 -3 -55t-2 -48
q0 -6 -1 -12.5t-1 -10.5q24 7 57.5 11t59.5 4q41 0 76 -13.5t61 -37.5t40.5 -57.5t14.5 -72.5q0 -49 -18 -86t-49 -62q-31 -26 -73 -39t-90 -13q-38 0 -69.5 4.5t-51.5 9.5q0 13 0.5 20.5t1.5 15.5q25 -10 52.5 -14t62.5 -4q38 0 73.5 8.5t63.5 27.5q27 19 43.5 47.5
t16.5 69.5q0 46 -15.5 77.5t-42.5 51.5q-27 19 -64 27.5t-81 8.5z" />
    <glyph glyph-name="uni2479" unicode="&#x2479;" horiz-adv-x="1000" 
d="M189 -42q-55 91 -92 189t-37 211q0 57 10 109.5t27 101.5t41 96t51 93h35q-23 -46 -45 -94.5t-39 -98.5q-17 -51 -27 -103t-10 -104q0 -53 10 -105t27 -102q16 -50 38 -98.5t46 -94.5h-35zM778 -42q24 46 46 94.5t39 98.5q16 50 26 102t10 105q0 52 -10 104t-27 103
q-17 50 -39 98.5t-45 94.5h35q27 -46 51 -93t41 -96t27 -101.5t10 -109.5q0 -113 -37 -211t-92 -189h-35zM656 624q-23 8 -51 13t-54 5q-53 0 -92 -26.5t-64 -70.5q-26 -45 -39 -103.5t-14 -121.5q20 31 43.5 50.5t47.5 30.5q23 11 45.5 15t40.5 4q42 0 74.5 -14t55.5 -39
t35 -59t12 -73q0 -46 -14.5 -82.5t-39.5 -61.5q-26 -25 -61 -38.5t-75 -13.5q-61 0 -99.5 26.5t-60.5 68.5t-30.5 94.5t-8.5 105.5q0 63 11 124t38 109t73 78t117 30q12 0 27.5 -1.5t31.5 -3.5q16 -3 31 -6t27 -6zM659 233q0 27 -9 55t-28 50t-48 36t-68 14
q-36 0 -64.5 -12.5t-48.5 -33.5t-30.5 -49.5t-10.5 -59.5q0 -28 9.5 -56.5t28.5 -51.5q19 -24 46.5 -38.5t63.5 -14.5q39 0 69 13.5t50 36.5q20 22 30 51t10 60z" />
    <glyph glyph-name="uni247A" unicode="&#x247a;" horiz-adv-x="1000" 
d="M189 -42q-55 91 -92 189t-37 211q0 57 10 109.5t27 101.5t41 96t51 93h35q-23 -46 -45 -94.5t-39 -98.5q-17 -51 -27 -103t-10 -104q0 -53 10 -105t27 -102q16 -50 38 -98.5t46 -94.5h-35zM778 -42q24 46 46 94.5t39 98.5q16 50 26 102t10 105q0 52 -10 104t-27 103
q-17 50 -39 98.5t-45 94.5h35q27 -46 51 -93t41 -96t27 -101.5t10 -109.5q0 -113 -37 -211t-92 -189h-35zM689 616q-61 -143 -122.5 -282t-122.5 -282h-40l256 582h-297q-14 0 -22.5 0.5t-23.5 -1.5v33q11 -1 27 -1.5t24 -0.5h321v-48z" />
    <glyph glyph-name="uni247B" unicode="&#x247b;" horiz-adv-x="1000" 
d="M189 -42q-55 91 -92 189t-37 211q0 57 10 109.5t27 101.5t41 96t51 93h35q-23 -46 -45 -94.5t-39 -98.5q-17 -51 -27 -103t-10 -104q0 -53 10 -105t27 -102q16 -50 38 -98.5t46 -94.5h-35zM778 -42q24 46 46 94.5t39 98.5q16 50 26 102t10 105q0 52 -10 104t-27 103
q-17 50 -39 98.5t-45 94.5h35q27 -46 51 -93t41 -96t27 -101.5t10 -109.5q0 -113 -37 -211t-92 -189h-35zM504 44q-36 0 -72 10t-64 30q-29 20 -46.5 50t-17.5 70q0 28 14 53.5t38 48.5q24 22 56.5 40.5t70.5 33.5q-47 18 -78 38t-50 41t-26.5 42.5t-7.5 43.5q0 27 13 51.5
t37 43.5q24 18 59 29t79 11q42 0 75.5 -11t56.5 -29t35 -40.5t12 -45.5q0 -25 -8 -47t-25 -43q-18 -21 -46.5 -42.5t-70.5 -43.5q36 -12 67 -29t54 -39q22 -22 35 -47.5t13 -53.5q0 -44 -16 -75t-43 -51q-28 -20 -65 -29.5t-79 -9.5zM669 200q1 32 -10.5 55t-29.5 40
q-18 16 -40 28t-43 21q-14 7 -27.5 12t-29.5 14q-12 -9 -25 -17.5t-29 -16.5q-17 -11 -33.5 -23t-29.5 -26q-14 -15 -22 -33.5t-8 -43.5q0 -33 15.5 -58t40.5 -41q24 -17 54 -25.5t60 -8.5q29 0 56.5 7.5t49.5 22.5t35.5 38t15.5 55zM355 532q0 -42 45 -75.5t128 -72.5
q36 26 59 47t37 39q13 18 18.5 35t5.5 36q0 30 -14.5 50.5t-36.5 32.5t-48 17.5t-48 5.5q-20 0 -45 -7t-47 -21q-23 -15 -38.5 -36.5t-15.5 -50.5z" />
    <glyph glyph-name="uni247C" unicode="&#x247c;" horiz-adv-x="1000" 
d="M189 -42q-55 91 -92 189t-37 211q0 57 10 109.5t27 101.5t41 96t51 93h35q-23 -46 -45 -94.5t-39 -98.5q-17 -51 -27 -103t-10 -104q0 -53 10 -105t27 -102q16 -50 38 -98.5t46 -94.5h-35zM778 -42q24 46 46 94.5t39 98.5q16 50 26 102t10 105q0 52 -10 104t-27 103
q-17 50 -39 98.5t-45 94.5h35q27 -46 51 -93t41 -96t27 -101.5t10 -109.5q0 -113 -37 -211t-92 -189h-35zM350 95q23 -8 51 -13t54 -5q52 0 91.5 22t65.5 64q25 41 38 100.5t13 134.5q-17 -31 -40 -50.5t-47 -29.5q-24 -11 -47.5 -15t-41.5 -4q-42 0 -74.5 14t-55.5 39
t-35 58.5t-12 72.5q0 46 14.5 83t40.5 62q25 25 60 38.5t75 13.5q64 0 103 -25.5t61 -66.5q21 -42 28 -95t7 -108q0 -64 -11 -125t-38 -109t-73.5 -77.5t-116.5 -29.5q-12 0 -27.5 1.5t-31.5 3.5q-16 3 -31 6t-27 6zM347 486q0 -27 9 -55t28 -50q19 -23 48 -37t68 -14
q36 0 64.5 12.5t48.5 34.5q20 21 30.5 49t10.5 60q0 30 -9.5 58.5t-27.5 51.5q-19 23 -47 37t-64 14q-39 0 -69 -13.5t-50 -35.5q-20 -23 -30 -52t-10 -60z" />
    <glyph glyph-name="uni247D" unicode="&#x247d;" horiz-adv-x="1000" 
d="M189 -42q-55 91 -92 189t-37 211q0 57 10 109.5t27 101.5t41 96t51 93h35q-23 -46 -45 -94.5t-39 -98.5q-17 -51 -27 -103t-10 -104q0 -53 10 -105t27 -102q16 -50 38 -98.5t46 -94.5h-35zM778 -42q24 46 46 94.5t39 98.5q16 50 26 102t10 105q0 52 -10 104t-27 103
q-17 50 -39 98.5t-45 94.5h35q27 -46 51 -93t41 -96t27 -101.5t10 -109.5q0 -113 -37 -211t-92 -189h-35zM313 52q1 19 2 36.5t1 38.5v505q-24 -26 -52.5 -51t-60.5 -54q-6 11 -18 26q18 15 33.5 28.5t30.5 27.5q15 13 30.5 26.5t32.5 29.5h40q-2 -17 -2 -34.5v-40.5v-463
q0 -21 0.5 -38.5t1.5 -36.5h-39zM422 362q0 50 8.5 106t29.5 103t57 78t91 31t91 -31t57 -78t29.5 -103t8.5 -106t-8.5 -106t-29.5 -103t-57 -78t-91 -31t-91 31t-57 78t-29.5 103t-8.5 106zM456 362q0 -34 5.5 -82.5t21.5 -93.5t46 -77t79 -32q33 0 56.5 15t40.5 39
t27.5 54.5t17.5 62.5q6 32 8 61.5t2 52.5t-2.5 53t-8.5 62q-7 31 -18 61.5t-28 54.5t-40.5 39t-54.5 15t-54.5 -15t-40.5 -39t-28 -54.5t-17 -61.5q-7 -32 -9.5 -62t-2.5 -53z" />
    <glyph glyph-name="uni247E" unicode="&#x247e;" horiz-adv-x="1000" 
d="M189 -42q-55 91 -92 189t-37 211q0 57 10 109.5t27 101.5t41 96t51 93h35q-23 -46 -45 -94.5t-39 -98.5q-17 -51 -27 -103t-10 -104q0 -53 10 -105t27 -102q16 -50 38 -98.5t46 -94.5h-35zM778 -42q24 46 46 94.5t39 98.5q16 50 26 102t10 105q0 52 -10 104t-27 103
q-17 50 -39 98.5t-45 94.5h35q27 -46 51 -93t41 -96t27 -101.5t10 -109.5q0 -113 -37 -211t-92 -189h-35zM359 52q1 19 2 36.5t1 38.5v505q-24 -26 -52.5 -51t-60.5 -54q-6 11 -18 26q18 15 33.5 28.5t30.5 27.5q15 13 30.5 26.5t32.5 29.5h40q-2 -17 -2 -34.5v-40.5v-463
q0 -21 0.5 -38.5t1.5 -36.5h-39zM659 52q1 19 2 36.5t1 38.5v505q-24 -26 -52.5 -51t-60.5 -54q-6 11 -18 26q18 15 33.5 28.5t30.5 27.5q15 13 30.5 26.5t32.5 29.5h40q-2 -17 -2 -34.5v-40.5v-463q0 -21 0.5 -38.5t1.5 -36.5h-39z" />
    <glyph glyph-name="uni247F" unicode="&#x247f;" horiz-adv-x="1000" 
d="M189 -42q-55 91 -92 189t-37 211q0 57 10 109.5t27 101.5t41 96t51 93h35q-23 -46 -45 -94.5t-39 -98.5q-17 -51 -27 -103t-10 -104q0 -53 10 -105t27 -102q16 -50 38 -98.5t46 -94.5h-35zM778 -42q24 46 46 94.5t39 98.5q16 50 26 102t10 105q0 52 -10 104t-27 103
q-17 50 -39 98.5t-45 94.5h35q27 -46 51 -93t41 -96t27 -101.5t10 -109.5q0 -113 -37 -211t-92 -189h-35zM323 52q1 19 2 36.5t1 38.5v505q-24 -26 -52.5 -51t-60.5 -54q-6 11 -18 26q18 15 33.5 28.5t30.5 27.5q15 13 30.5 26.5t32.5 29.5h40q-2 -17 -2 -34.5v-40.5v-463
q0 -21 0.5 -38.5t1.5 -36.5h-39zM436 105q18 17 47 43t61 58t65 69.5t59 77.5t42.5 81.5t16.5 81.5q0 28 -11.5 51.5t-30.5 40.5q-20 17 -46.5 26.5t-56.5 9.5q-33 0 -64.5 -8.5t-57.5 -19.5q-1 10 -1.5 16.5t-2.5 14.5q32 14 68 21t70 7q35 0 65.5 -10.5t53.5 -30.5
q22 -21 35 -51.5t13 -71.5t-14.5 -82t-37.5 -80q-24 -39 -54.5 -75.5t-62.5 -69.5q-32 -34 -63.5 -63t-56.5 -52l4 -5h248q12 0 23 1l22 2v-35q-11 1 -23 0.5t-18 -0.5h-292v53z" />
    <glyph glyph-name="uni2480" unicode="&#x2480;" horiz-adv-x="1000" 
d="M189 -42q-55 91 -92 189t-37 211q0 57 10 109.5t27 101.5t41 96t51 93h35q-23 -46 -45 -94.5t-39 -98.5q-17 -51 -27 -103t-10 -104q0 -53 10 -105t27 -102q16 -50 38 -98.5t46 -94.5h-35zM778 -42q24 46 46 94.5t39 98.5q16 50 26 102t10 105q0 52 -10 104t-27 103
q-17 50 -39 98.5t-45 94.5h35q27 -46 51 -93t41 -96t27 -101.5t10 -109.5q0 -113 -37 -211t-92 -189h-35zM541 362h-15.5t-13.5 -1v34h35q27 0 58.5 6t57.5 21t43.5 39.5t17.5 62.5q0 36 -11.5 60t-30.5 39q-20 14 -47 20t-58 6q-67 0 -118 -21q-1 8 -1 15.5t-1 16.5
q29 9 64.5 15.5t65.5 6.5q35 0 66 -9t54 -28t36.5 -48.5t13.5 -69.5q0 -32 -10 -56t-26 -41t-36.5 -28.5t-40.5 -18.5l-15 -6v-2q11 -2 23 -5q23 -6 44 -20.5t37 -35.5q15 -21 24 -47t9 -56q0 -48 -19.5 -79.5t-50.5 -50.5t-70.5 -27t-79.5 -8q-27 0 -56.5 5.5t-55.5 12.5
q1 9 1.5 17t0.5 19q23 -9 51.5 -15t57.5 -6q36 0 69.5 5.5t59.5 20.5t41.5 41t15.5 68q0 43 -17 71.5t-44 45.5q-28 17 -62 24t-67 7zM323 52q1 19 2 36.5t1 38.5v505q-24 -26 -52.5 -51t-60.5 -54q-6 11 -18 26q18 15 33.5 28.5t30.5 27.5q15 13 30.5 26.5t32.5 29.5h40
q-2 -17 -2 -34.5v-40.5v-463q0 -21 0.5 -38.5t1.5 -36.5h-39z" />
    <glyph glyph-name="uni2481" unicode="&#x2481;" horiz-adv-x="1000" 
d="M189 -42q-55 91 -92 189t-37 211q0 57 10 109.5t27 101.5t41 96t51 93h35q-23 -46 -45 -94.5t-39 -98.5q-17 -51 -27 -103t-10 -104q0 -53 10 -105t27 -102q16 -50 38 -98.5t46 -94.5h-35zM778 -42q24 46 46 94.5t39 98.5q16 50 26 102t10 105q0 52 -10 104t-27 103
q-17 50 -39 98.5t-45 94.5h35q27 -46 51 -93t41 -96t27 -101.5t10 -109.5q0 -113 -37 -211t-92 -189h-35zM323 52q1 19 2 36.5t1 38.5v505q-24 -26 -52.5 -51t-60.5 -54q-6 11 -18 26q18 15 33.5 28.5t30.5 27.5q15 13 30.5 26.5t32.5 29.5h40q-2 -17 -2 -34.5v-40.5v-463
q0 -21 0.5 -38.5t1.5 -36.5h-39zM408 201v51q67 97 137.5 201.5t131.5 210.5h53q-2 -24 -1.5 -37.5t0.5 -37.5v-356h56q6 0 11 0.5t10 1.5v-35q-5 1 -11 1h-13h-53v-74q0 -17 0.5 -38t1.5 -37h-36q1 12 1.5 20t0.5 16v113h-289zM697 632l-3 1q-21 -40 -52 -90.5t-67 -104.5
t-73.5 -107t-70.5 -98h266v399z" />
    <glyph glyph-name="uni2482" unicode="&#x2482;" horiz-adv-x="1000" 
d="M189 -42q-55 91 -92 189t-37 211q0 57 10 109.5t27 101.5t41 96t51 93h35q-23 -46 -45 -94.5t-39 -98.5q-17 -51 -27 -103t-10 -104q0 -53 10 -105t27 -102q16 -50 38 -98.5t46 -94.5h-35zM778 -42q24 46 46 94.5t39 98.5q16 50 26 102t10 105q0 52 -10 104t-27 103
q-17 50 -39 98.5t-45 94.5h35q27 -46 51 -93t41 -96t27 -101.5t10 -109.5q0 -113 -37 -211t-92 -189h-35zM323 52q1 19 2 36.5t1 38.5v505q-24 -26 -52.5 -51t-60.5 -54q-6 11 -18 26q18 15 33.5 28.5t30.5 27.5q15 13 30.5 26.5t32.5 29.5h40q-2 -17 -2 -34.5v-40.5v-463
q0 -21 0.5 -38.5t1.5 -36.5h-39zM550 394q-27 0 -49 -3.5t-41 -9.5q4 73 6.5 143.5t4.5 142.5h232q13 0 24.5 0.5t22.5 1.5v-32q-13 1 -24 1h-17h-210q-1 -21 -2.5 -48t-2.5 -54q-1 -28 -2 -55t-2 -48q0 -6 -1 -12.5t-1 -10.5q22 7 52.5 11t53.5 4q37 0 68.5 -13.5
t54.5 -37.5t36 -57.5t13 -72.5q0 -49 -16 -86t-43 -62q-28 -26 -66 -39t-82 -13q-34 0 -62 4.5t-46 9.5v20.5t1 15.5q23 -10 47.5 -14t56.5 -4q34 0 66 8.5t57 27.5q24 19 39 47.5t15 69.5q0 46 -13.5 77.5t-37.5 51.5q-25 19 -58.5 27.5t-73.5 8.5z" />
    <glyph glyph-name="uni249C" unicode="&#x249c;" horiz-adv-x="1000" 
d="M189 -42q-55 91 -92 189t-37 211q0 57 10 109.5t27 101.5t41 96t51 93h35q-23 -46 -45 -94.5t-39 -98.5q-17 -51 -27 -103t-10 -104q0 -53 10 -105t27 -102q16 -50 38 -98.5t46 -94.5h-35zM778 -42q24 46 46 94.5t39 98.5q16 50 26 102t10 105q0 52 -10 104t-27 103
q-17 50 -39 98.5t-45 94.5h35q27 -46 51 -93t41 -96t27 -101.5t10 -109.5q0 -113 -37 -211t-92 -189h-35zM357 541q31 17 69.5 27.5t75.5 10.5q93 0 132.5 -44t39.5 -132v-211q0 -26 1 -38t2 -23h-30l-1 101q-9 -20 -24 -39.5t-37 -35.5q-22 -17 -51.5 -27t-67.5 -10
q-70 0 -112.5 30t-42.5 98q0 39 20.5 65t50.5 43q30 16 65.5 23t65.5 7h40t42 -1q23 -1 45 -1q-2 81 -36.5 125t-114.5 44q-29 0 -64.5 -9t-65.5 -25zM640 359q-7 0 -19 0.5t-25 1.5q-14 0 -26 0.5t-19 0.5q-21 0 -55 -3t-67 -14t-56.5 -34t-23.5 -63q0 -24 11.5 -43
t29.5 -32t39.5 -19.5t41.5 -6.5q43 0 74.5 15.5t52.5 38.5q21 22 31.5 48t10.5 47v63z" />
    <glyph glyph-name="uni249D" unicode="&#x249d;" horiz-adv-x="1000" 
d="M189 -42q-55 91 -92 189t-37 211q0 57 10 109.5t27 101.5t41 96t51 93h35q-23 -46 -45 -94.5t-39 -98.5q-17 -51 -27 -103t-10 -104q0 -53 10 -105t27 -102q16 -50 38 -98.5t46 -94.5h-35zM778 -42q24 46 46 94.5t39 98.5q16 50 26 102t10 105q0 52 -10 104t-27 103
q-17 50 -39 98.5t-45 94.5h35q27 -46 51 -93t41 -96t27 -101.5t10 -109.5q0 -113 -37 -211t-92 -189h-35zM371 149v-34v-28.5t1 -33.5h-35q1 18 1 36.5v38.5v514v37t-1 37h36q-1 -24 -0.5 -37.5t0.5 -36.5v-225l4 -3q32 42 72.5 64.5t94.5 22.5q52 0 89.5 -18t61.5 -48
q24 -31 35.5 -71.5t11.5 -84.5q0 -45 -10.5 -88t-33.5 -76q-24 -34 -61.5 -54t-92.5 -20q-30 0 -56.5 9t-47.5 24q-22 15 -39 34.5t-27 40.5h-3zM705 274q0 37 -9 73t-28 65q-20 28 -50.5 45t-73.5 17q-41 0 -73 -17.5t-53 -45.5q-22 -29 -33 -65t-11 -74q0 -34 10 -70
t31 -66q20 -30 52 -49t77 -19q43 0 73.5 18t50.5 47q19 29 28 66t9 75z" />
    <glyph glyph-name="uni249E" unicode="&#x249e;" horiz-adv-x="1000" 
d="M189 -42q-55 91 -92 189t-37 211q0 57 10 109.5t27 101.5t41 96t51 93h35q-23 -46 -45 -94.5t-39 -98.5q-17 -51 -27 -103t-10 -104q0 -53 10 -105t27 -102q16 -50 38 -98.5t46 -94.5h-35zM778 -42q24 46 46 94.5t39 98.5q16 50 26 102t10 105q0 52 -10 104t-27 103
q-17 50 -39 98.5t-45 94.5h35q27 -46 51 -93t41 -96t27 -101.5t10 -109.5q0 -113 -37 -211t-92 -189h-35zM638 543q-19 6 -37.5 8t-38.5 2q-49 0 -86 -16.5t-62 -44.5t-38 -65t-13 -77t12.5 -77t38.5 -65q25 -28 63 -44.5t89 -16.5q17 0 38.5 2.5t42.5 10.5q0 -5 0.5 -5
t0.5 1v1.5t1 -3.5q2 -6 3 -10.5t2 -9.5q-26 -10 -51.5 -12t-45.5 -2q-51 0 -93.5 17.5t-72.5 48.5q-31 30 -48.5 72t-17.5 92q0 51 17 93.5t48 72.5q30 30 72.5 46.5t94.5 16.5q23 0 46 -2.5t40 -7.5z" />
    <glyph glyph-name="uni249F" unicode="&#x249f;" horiz-adv-x="1000" 
d="M189 -42q-55 91 -92 189t-37 211q0 57 10 109.5t27 101.5t41 96t51 93h35q-23 -46 -45 -94.5t-39 -98.5q-17 -51 -27 -103t-10 -104q0 -53 10 -105t27 -102q16 -50 38 -98.5t46 -94.5h-35zM778 -42q24 46 46 94.5t39 98.5q16 50 26 102t10 105q0 52 -10 104t-27 103
q-17 50 -39 98.5t-45 94.5h35q27 -46 51 -93t41 -96t27 -101.5t10 -109.5q0 -113 -37 -211t-92 -189h-35zM637 149q-10 -21 -27 -40.5t-38 -34.5q-22 -15 -48.5 -24t-56.5 -9q-55 0 -92.5 20t-60.5 54q-24 33 -34.5 76t-10.5 88q0 44 11.5 84.5t35.5 71.5q24 30 61.5 48
t89.5 18q54 0 94.5 -22.5t72.5 -64.5l4 3v225q0 23 0.5 36.5t-0.5 37.5h36q-1 -17 -1 -37v-37v-514v-38.5t1 -36.5h-35q1 14 1 33.5v28.5v34h-3zM306 274q0 -38 9 -75t29 -66q19 -29 49.5 -47t73.5 -18q45 0 77 19t53 49q20 30 30 66t10 70q0 38 -11 74t-32 65
q-22 28 -54 45.5t-73 17.5q-43 0 -73.5 -17t-49.5 -45q-20 -29 -29 -65t-9 -73z" />
    <glyph glyph-name="uni24A0" unicode="&#x24a0;" horiz-adv-x="1000" 
d="M189 -42q-55 91 -92 189t-37 211q0 57 10 109.5t27 101.5t41 96t51 93h35q-23 -46 -45 -94.5t-39 -98.5q-17 -51 -27 -103t-10 -104q0 -53 10 -105t27 -102q16 -50 38 -98.5t46 -94.5h-35zM778 -42q24 46 46 94.5t39 98.5q16 50 26 102t10 105q0 52 -10 104t-27 103
q-17 50 -39 98.5t-45 94.5h35q27 -46 51 -93t41 -96t27 -101.5t10 -109.5q0 -113 -37 -211t-92 -189h-35zM657 147q-13 -5 -26 -9.5t-28 -7.5q-15 -4 -34 -6t-44 -2q-57 0 -100 17t-71 49q-28 31 -42 75t-14 97q0 49 15 89.5t42 70.5q26 29 63.5 45t82.5 16q48 0 83.5 -16.5
t59.5 -45.5q23 -30 35 -71.5t13 -92.5h-355q0 -47 16.5 -85t43.5 -65q26 -27 60.5 -41.5t70.5 -14.5t69.5 8t56.5 19zM654 375q0 36 -11.5 68.5t-31.5 57.5q-21 24 -49.5 39t-62.5 15q-38 0 -68 -16t-51 -41q-21 -26 -33 -58.5t-13 -64.5h320z" />
    <glyph glyph-name="uni24A1" unicode="&#x24a1;" horiz-adv-x="1000" 
d="M189 -42q-55 91 -92 189t-37 211q0 57 10 109.5t27 101.5t41 96t51 93h35q-23 -46 -45 -94.5t-39 -98.5q-17 -51 -27 -103t-10 -104q0 -53 10 -105t27 -102q16 -50 38 -98.5t46 -94.5h-35zM778 -42q24 46 46 94.5t39 98.5q16 50 26 102t10 105q0 52 -10 104t-27 103
q-17 50 -39 98.5t-45 94.5h35q27 -46 51 -93t41 -96t27 -101.5t10 -109.5q0 -113 -37 -211t-92 -189h-35zM395 429q-14 0 -23 -0.5t-23 -1.5v30q14 -2 28.5 -2h22.5h63v68q0 39 5.5 70.5t20.5 53.5q14 21 40 33t68 12q17 0 31 -3l-1 -27q-2 2 -7 2.5t-10 0.5q-39 0 -62 -9.5
t-34 -26.5q-12 -18 -15 -43t-3 -56v-75h79h26t25 2v-30q-12 2 -22.5 2h-23.5h-84v-336q0 -20 0.5 -38t1.5 -37h-37q1 12 1.5 20.5t0.5 16.5v374h-68z" />
    <glyph glyph-name="uni24A2" unicode="&#x24a2;" horiz-adv-x="1000" 
d="M189 -42q-55 91 -92 189t-37 211q0 57 10 109.5t27 101.5t41 96t51 93h35q-23 -46 -45 -94.5t-39 -98.5q-17 -51 -27 -103t-10 -104q0 -53 10 -105t27 -102q16 -50 38 -98.5t46 -94.5h-35zM778 -42q24 46 46 94.5t39 98.5q16 50 26 102t10 105q0 52 -10 104t-27 103
q-17 50 -39 98.5t-45 94.5h35q27 -46 51 -93t41 -96t27 -101.5t10 -109.5q0 -113 -37 -211t-92 -189h-35zM693 244q0 -94 -55.5 -144t-168.5 -50q-32 0 -65 4.5t-80 20.5q2 8 3.5 15.5t3.5 15.5q37 -15 70.5 -22t77.5 -7q82 0 130.5 44.5t48.5 132.5v80l-2 2
q-10 -19 -25 -36.5t-35 -30.5q-21 -14 -47.5 -22t-58.5 -8q-51 0 -89 15.5t-63 42.5t-37.5 63t-12.5 77q0 45 12.5 84t37.5 68q25 28 63 44.5t89 16.5q31 0 57 -9.5t47 -24.5q21 -16 37 -35.5t26 -40.5l3 3v58q0 12 -0.5 19.5t-1.5 17.5h36q-1 -23 -1 -36.5v-38.5v-319z
M325 442q0 -39 10 -71t31 -55q20 -24 51 -37t73 -13q84 0 125.5 49t41.5 127q0 34 -10.5 67t-31.5 58t-52 40.5t-73 15.5t-73.5 -14t-51.5 -38q-20 -25 -30 -58t-10 -71z" />
    <glyph glyph-name="uni24A3" unicode="&#x24a3;" horiz-adv-x="1000" 
d="M189 -42q-55 91 -92 189t-37 211q0 57 10 109.5t27 101.5t41 96t51 93h35q-23 -46 -45 -94.5t-39 -98.5q-17 -51 -27 -103t-10 -104q0 -53 10 -105t27 -102q16 -50 38 -98.5t46 -94.5h-35zM778 -42q24 46 46 94.5t39 98.5q16 50 26 102t10 105q0 52 -10 104t-27 103
q-17 50 -39 98.5t-45 94.5h35q27 -46 51 -93t41 -96t27 -101.5t10 -109.5q0 -113 -37 -211t-92 -189h-35zM374 388q11 19 26 37.5t36 33.5q21 14 47.5 23t61.5 9q87 0 125 -49t38 -135v-189q0 -20 0.5 -38t1.5 -37h-38q1 12 1.5 20.5t0.5 16.5v190q0 97 -28 143.5t-101 51.5
q-42 0 -74 -16.5t-54 -45.5q-23 -29 -34.5 -70t-11.5 -89v-126q0 -20 0.5 -38t1.5 -37h-38q1 12 1.5 20.5t0.5 16.5v552q0 18 -0.5 37.5t-1.5 37.5h38q-2 -24 -2 -38v-37v-241z" />
    <glyph glyph-name="uni24A4" unicode="&#x24a4;" horiz-adv-x="1000" 
d="M189 -42q-55 91 -92 189t-37 211q0 57 10 109.5t27 101.5t41 96t51 93h35q-23 -46 -45 -94.5t-39 -98.5q-17 -51 -27 -103t-10 -104q0 -53 10 -105t27 -102q16 -50 38 -98.5t46 -94.5h-35zM778 -42q24 46 46 94.5t39 98.5q16 50 26 102t10 105q0 52 -10 104t-27 103
q-17 50 -39 98.5t-45 94.5h35q27 -46 51 -93t41 -96t27 -101.5t10 -109.5q0 -113 -37 -211t-92 -189h-35zM523 642h-46v57h46v-57zM518 136q0 -20 0.5 -38t1.5 -37h-40q1 12 1.5 20.5t0.5 16.5v325q0 18 -0.5 37.5t-1.5 37.5h40q-2 -24 -2 -37.5v-37.5v-287z" />
    <glyph glyph-name="uni24A5" unicode="&#x24a5;" horiz-adv-x="1000" 
d="M189 -42q-55 91 -92 189t-37 211q0 57 10 109.5t27 101.5t41 96t51 93h35q-23 -46 -45 -94.5t-39 -98.5q-17 -51 -27 -103t-10 -104q0 -53 10 -105t27 -102q16 -50 38 -98.5t46 -94.5h-35zM778 -42q24 46 46 94.5t39 98.5q16 50 26 102t10 105q0 52 -10 104t-27 103
q-17 50 -39 98.5t-45 94.5h35q27 -46 51 -93t41 -96t27 -101.5t10 -109.5q0 -113 -37 -211t-92 -189h-35zM543 90q0 -24 -2 -53t-12 -55q-11 -26 -33.5 -43.5t-62.5 -17.5h-12q-12 0 -19 3l4 31q2 -2 6 -2.5t6 -0.5q49 0 70 30.5t21 94.5v348q0 18 -0.5 38t-1.5 37h38
q-2 -24 -2 -37.5v-37.5v-335zM550 644h-48v57h48v-57z" />
    <glyph glyph-name="uni24A6" unicode="&#x24a6;" horiz-adv-x="1000" 
d="M390 302q70 50 132 100.5t107 86.5h45q-42 -35 -85 -69q-37 -29 -81.5 -63t-85.5 -62q57 -54 124 -117t152 -126h-47q-39 33 -69.5 59.5t-58.5 52.5q-29 26 -60 54.5t-73 66.5v-158q0 -20 0.5 -38t1.5 -37h-38q1 12 1.5 20.5t0.5 16.5v552q0 18 -0.5 37.5t-1.5 37.5h38
q-2 -24 -2 -38v-37v-339zM189 -42q-55 91 -92 189t-37 211q0 57 10 109.5t27 101.5t41 96t51 93h35q-23 -46 -45 -94.5t-39 -98.5q-17 -51 -27 -103t-10 -104q0 -53 10 -105t27 -102q16 -50 38 -98.5t46 -94.5h-35zM778 -42q24 46 46 94.5t39 98.5q16 50 26 102t10 105
q0 52 -10 104t-27 103q-17 50 -39 98.5t-45 94.5h35q27 -46 51 -93t41 -96t27 -101.5t10 -109.5q0 -113 -37 -211t-92 -189h-35z" />
    <glyph glyph-name="uni24A7" unicode="&#x24a7;" horiz-adv-x="1000" 
d="M189 -42q-55 91 -92 189t-37 211q0 57 10 109.5t27 101.5t41 96t51 93h35q-23 -46 -45 -94.5t-39 -98.5q-17 -51 -27 -103t-10 -104q0 -53 10 -105t27 -102q16 -50 38 -98.5t46 -94.5h-35zM778 -42q24 46 46 94.5t39 98.5q16 50 26 102t10 105q0 52 -10 104t-27 103
q-17 50 -39 98.5t-45 94.5h35q27 -46 51 -93t41 -96t27 -101.5t10 -109.5q0 -113 -37 -211t-92 -189h-35zM519 111q0 -20 0.5 -38t1.5 -37h-38q1 12 1.5 20.5t0.5 16.5v552q0 18 -0.5 37.5t-1.5 37.5h37q-2 -24 -1.5 -38t0.5 -37v-514z" />
    <glyph glyph-name="uni24A8" unicode="&#x24a8;" horiz-adv-x="1000" 
d="M189 -42q-55 91 -92 189t-37 211q0 57 10 109.5t27 101.5t41 96t51 93h35q-23 -46 -45 -94.5t-39 -98.5q-17 -51 -27 -103t-10 -104q0 -53 10 -105t27 -102q16 -50 38 -98.5t46 -94.5h-35zM778 -42q24 46 46 94.5t39 98.5q16 50 26 102t10 105q0 52 -10 104t-27 103
q-17 50 -39 98.5t-45 94.5h35q27 -46 51 -93t41 -96t27 -101.5t10 -109.5q0 -113 -37 -211t-92 -189h-35zM742 395q0 25 -3 52t-12 50q-9 22 -26.5 37t-46.5 17q-36 0 -60.5 -16t-40.5 -42t-24 -60t-9 -70v-158q0 -20 0.5 -38.5t1.5 -36.5h-34q2 24 2 44v31v190q0 26 -3 54
t-13 51q-10 22 -28 36.5t-49 14.5q-34 0 -58 -16.5t-39 -43.5q-16 -27 -23.5 -62.5t-8.5 -72.5v-151q0 -20 0.5 -38.5t1.5 -36.5h-34q1 12 1.5 20.5t0.5 16.5v325q0 17 -0.5 37t-1.5 38h34q-1 -5 -1 -11q-1 -5 -1 -11.5v-14.5v-48l3 -2q7 15 19 32.5t30 33.5
q17 15 41.5 24.5t56.5 7.5t59 -30.5t39 -82.5q6 20 17 40t29 36q17 16 41.5 26.5t58.5 10.5q30 0 51 -12.5t34 -34.5t19 -51.5t6 -63.5v-211v-38.5t1 -36.5h-32q2 24 1.5 44t-0.5 31v190z" />
    <glyph glyph-name="uni24A9" unicode="&#x24a9;" horiz-adv-x="1000" 
d="M189 -42q-55 91 -92 189t-37 211q0 57 10 109.5t27 101.5t41 96t51 93h35q-23 -46 -45 -94.5t-39 -98.5q-17 -51 -27 -103t-10 -104q0 -53 10 -105t27 -102q16 -50 38 -98.5t46 -94.5h-35zM778 -42q24 46 46 94.5t39 98.5q16 50 26 102t10 105q0 52 -10 104t-27 103
q-17 50 -39 98.5t-45 94.5h35q27 -46 51 -93t41 -96t27 -101.5t10 -109.5q0 -113 -37 -211t-92 -189h-35zM359 468q10 15 24 34.5t35 36.5t51 29t71 12q80 0 116.5 -48.5t36.5 -135.5v-189q0 -20 0.5 -38.5t1.5 -36.5h-38q1 12 1.5 20t0.5 16v191q0 97 -28 143.5t-102 50.5
q-41 0 -73.5 -16.5t-54.5 -45.5t-33.5 -69.5t-11.5 -88.5v-126q0 -20 0.5 -38.5t1.5 -36.5h-38q1 12 1.5 20t0.5 16v326q0 17 -0.5 37t-2.5 37h39q-1 -6 -1 -17q-1 -9 -1 -22.5v-33.5v-25z" />
    <glyph glyph-name="uni24AA" unicode="&#x24aa;" horiz-adv-x="1000" 
d="M189 -42q-55 91 -92 189t-37 211q0 57 10 109.5t27 101.5t41 96t51 93h35q-23 -46 -45 -94.5t-39 -98.5q-17 -51 -27 -103t-10 -104q0 -53 10 -105t27 -102q16 -50 38 -98.5t46 -94.5h-35zM778 -42q24 46 46 94.5t39 98.5q16 50 26 102t10 105q0 52 -10 104t-27 103
q-17 50 -39 98.5t-45 94.5h35q27 -46 51 -93t41 -96t27 -101.5t10 -109.5q0 -113 -37 -211t-92 -189h-35zM287 350q0 50 15.5 92t43.5 73q27 30 66 47t87 17t86.5 -17t66.5 -47q28 -31 43 -73t15 -92q0 -48 -15.5 -89.5t-42.5 -72.5q-28 -32 -67 -50t-86 -18t-86 18t-67 50
q-28 31 -43.5 72.5t-15.5 89.5zM325 350q0 -36 9.5 -72.5t30.5 -65.5t54 -47t80 -18q45 0 78 18t55 47q21 29 31 65.5t10 72.5q0 39 -11.5 75.5t-33.5 65.5q-22 28 -54.5 45t-74.5 17t-74.5 -17t-54.5 -45q-22 -29 -33.5 -65.5t-11.5 -75.5z" />
    <glyph glyph-name="uni24AB" unicode="&#x24ab;" horiz-adv-x="1000" 
d="M189 -42q-55 91 -92 189t-37 211q0 57 10 109.5t27 101.5t41 96t51 93h35q-23 -46 -45 -94.5t-39 -98.5q-17 -51 -27 -103t-10 -104q0 -53 10 -105t27 -102q16 -50 38 -98.5t46 -94.5h-35zM778 -42q24 46 46 94.5t39 98.5q16 50 26 102t10 105q0 52 -10 104t-27 103
q-17 50 -39 98.5t-45 94.5h35q27 -46 51 -93t41 -96t27 -101.5t10 -109.5q0 -113 -37 -211t-92 -189h-35zM367 635q-1 -6 -1.5 -23t-0.5 -32v-37l4 -5q6 11 19.5 30t36.5 37q22 17 54.5 29.5t76.5 10.5q48 -2 82.5 -20.5t56.5 -48.5q21 -31 31.5 -71.5t10.5 -86.5
q0 -41 -12 -79t-35 -68t-57 -48t-77 -18q-47 0 -78.5 11t-51.5 28q-21 17 -34 36t-23 36l-2 -2v-183q0 -19 0.5 -38t1.5 -37h-38q0 12 0.5 21t0.5 17v466v41t-2 34h37zM700 424q0 38 -9.5 73t-28.5 62q-20 27 -50.5 43.5t-73.5 16.5q-44 0 -76 -17t-53 -45t-31 -62.5
t-10 -68.5q0 -39 11 -74t33 -62q21 -27 53 -43t73 -16q42 0 72.5 16t50.5 43q20 26 29.5 61t9.5 73z" />
    <glyph glyph-name="uni24AC" unicode="&#x24ac;" horiz-adv-x="1000" 
d="M189 -42q-55 91 -92 189t-37 211q0 57 10 109.5t27 101.5t41 96t51 93h35q-23 -46 -45 -94.5t-39 -98.5q-17 -51 -27 -103t-10 -104q0 -53 10 -105t27 -102q16 -50 38 -98.5t46 -94.5h-35zM778 -42q24 46 46 94.5t39 98.5q16 50 26 102t10 105q0 52 -10 104t-27 103
q-17 50 -39 98.5t-45 94.5h35q27 -46 51 -93t41 -96t27 -101.5t10 -109.5q0 -113 -37 -211t-92 -189h-35zM679 635q-2 -18 -2 -34v-41v-466q0 -8 0.5 -17t0.5 -21h-38q1 18 1.5 37t0.5 38v183l-2 2q-11 -17 -23.5 -36t-32.5 -36q-21 -17 -52.5 -28t-78.5 -11q-44 0 -77.5 18
t-56.5 48t-35 68t-12 79q0 46 10.5 86.5t32.5 71.5q21 30 55.5 48.5t82.5 20.5q44 2 76.5 -10.5t55.5 -29.5q22 -18 35.5 -37t19.5 -30l4 5v37q0 15 -0.5 32t-1.5 23h37zM309 424q0 -38 9.5 -73t29.5 -61q20 -27 50.5 -43t72.5 -16q41 0 73 16t54 43q21 27 32 62t11 74
q0 34 -10 68.5t-31 62.5t-53 45t-76 17q-43 0 -73.5 -16.5t-49.5 -43.5q-20 -27 -29.5 -62t-9.5 -73z" />
    <glyph glyph-name="uni24AD" unicode="&#x24ad;" horiz-adv-x="1000" 
d="M189 -42q-55 91 -92 189t-37 211q0 57 10 109.5t27 101.5t41 96t51 93h35q-23 -46 -45 -94.5t-39 -98.5q-17 -51 -27 -103t-10 -104q0 -53 10 -105t27 -102q16 -50 38 -98.5t46 -94.5h-35zM778 -42q24 46 46 94.5t39 98.5q16 50 26 102t10 105q0 52 -10 104t-27 103
q-17 50 -39 98.5t-45 94.5h35q27 -46 51 -93t41 -96t27 -101.5t10 -109.5q0 -113 -37 -211t-92 -189h-35zM610 543q-35 0 -65.5 -15t-52.5 -42q-23 -28 -36.5 -68t-13.5 -89v-127q0 -20 0.5 -38.5t1.5 -36.5h-38q1 12 1.5 20t0.5 16v336q0 19 -0.5 36t-1.5 28h36
q-1 -9 -1 -21v-24v-63l2 -1q5 13 18 34t34 41q21 19 49 33t62 13q12 0 25.5 -0.5t27.5 -3.5l-6 -33q-10 2 -20.5 3.5t-22.5 1.5z" />
    <glyph glyph-name="uni24AE" unicode="&#x24ae;" horiz-adv-x="1000" 
d="M189 -42q-55 91 -92 189t-37 211q0 57 10 109.5t27 101.5t41 96t51 93h35q-23 -46 -45 -94.5t-39 -98.5q-17 -51 -27 -103t-10 -104q0 -53 10 -105t27 -102q16 -50 38 -98.5t46 -94.5h-35zM778 -42q24 46 46 94.5t39 98.5q16 50 26 102t10 105q0 52 -10 104t-27 103
q-17 50 -39 98.5t-45 94.5h35q27 -46 51 -93t41 -96t27 -101.5t10 -109.5q0 -113 -37 -211t-92 -189h-35zM360 168q33 -9 63.5 -14.5t59.5 -5.5q26 0 52 4.5t47 15.5q21 10 34 27.5t13 43.5q0 20 -12.5 35.5t-31.5 28.5q-20 12 -43 22t-44 19q-28 11 -53.5 22t-44.5 25
q-20 13 -31.5 29.5t-11.5 37.5q0 64 47.5 93t126.5 29q32 0 59.5 -3.5t47.5 -9.5l-5 -29q-24 8 -50 12t-43 4q-30 0 -56 -5t-46 -15t-31.5 -25.5t-11.5 -36.5q0 -19 13 -34.5t33 -28.5q19 -13 41.5 -22.5t42.5 -16.5q21 -8 45.5 -18t46.5 -24q21 -14 35.5 -33.5t14.5 -45.5
q0 -66 -46 -97t-119 -31q-32 0 -72.5 4.5t-72.5 14.5z" />
    <glyph glyph-name="uni24AF" unicode="&#x24af;" horiz-adv-x="1000" 
d="M189 -42q-55 91 -92 189t-37 211q0 57 10 109.5t27 101.5t41 96t51 93h35q-23 -46 -45 -94.5t-39 -98.5q-17 -51 -27 -103t-10 -104q0 -53 10 -105t27 -102q16 -50 38 -98.5t46 -94.5h-35zM778 -42q24 46 46 94.5t39 98.5q16 50 26 102t10 105q0 52 -10 104t-27 103
q-17 50 -39 98.5t-45 94.5h35q27 -46 51 -93t41 -96t27 -101.5t10 -109.5q0 -113 -37 -211t-92 -189h-35zM464 569q0 18 -0.5 37.5t-0.5 37.5h37q-1 -24 -1 -38v-37v-67h78q14 0 26.5 0.5t24.5 1.5v-30q-13 2 -23 2h-23h-83v-289q0 -61 25.5 -83.5t76.5 -22.5q8 0 17 0.5
t16 1.5v-23q-11 -3 -23.5 -4.5t-24.5 -1.5q-57 0 -89.5 27t-32.5 87v308h-62q-15 0 -23.5 -0.5t-22.5 -1.5v30q10 -1 15.5 -1.5t10.5 -0.5h82v67z" />
    <glyph glyph-name="uni24B0" unicode="&#x24b0;" horiz-adv-x="1000" 
d="M189 -42q-55 91 -92 189t-37 211q0 57 10 109.5t27 101.5t41 96t51 93h35q-23 -46 -45 -94.5t-39 -98.5q-17 -51 -27 -103t-10 -104q0 -53 10 -105t27 -102q16 -50 38 -98.5t46 -94.5h-35zM778 -42q24 46 46 94.5t39 98.5q16 50 26 102t10 105q0 52 -10 104t-27 103
q-17 50 -39 98.5t-45 94.5h35q27 -46 51 -93t41 -96t27 -101.5t10 -109.5q0 -113 -37 -211t-92 -189h-35zM645 235q-7 -20 -21.5 -39.5t-36.5 -35.5q-23 -17 -53.5 -27t-68.5 -10q-80 0 -116.5 48.5t-36.5 135.5v189v38.5t-2 36.5h38q-1 -11 -1.5 -19.5t-0.5 -16.5v-191
q0 -48 6.5 -84t21.5 -59q15 -24 39.5 -36.5t61.5 -14.5q42 0 74 16.5t55 45.5q22 29 33.5 69.5t11.5 88.5v126v38.5t-2 36.5h38q-2 -23 -2 -36.5v-38.5v-287q0 -18 0.5 -37.5t1.5 -36.5h-38q1 8 1.5 17.5t0.5 18.5v63z" />
    <glyph glyph-name="uni24B1" unicode="&#x24b1;" horiz-adv-x="1000" 
d="M189 -42q-55 91 -92 189t-37 211q0 57 10 109.5t27 101.5t41 96t51 93h35q-23 -46 -45 -94.5t-39 -98.5q-17 -51 -27 -103t-10 -104q0 -53 10 -105t27 -102q16 -50 38 -98.5t46 -94.5h-35zM778 -42q24 46 46 94.5t39 98.5q16 50 26 102t10 105q0 52 -10 104t-27 103
q-17 50 -39 98.5t-45 94.5h35q27 -46 51 -93t41 -96t27 -101.5t10 -109.5q0 -113 -37 -211t-92 -189h-35zM705 569q-11 -27 -26.5 -65t-32.5 -80q-18 -42 -37 -85.5t-36 -82.5q-17 -40 -32 -72.5t-24 -52.5h-24q-45 107 -95.5 216.5t-95.5 221.5h37q19 -55 46 -121.5
t53 -125.5q30 -69 62 -139q1 -2 2 -4.5t2 -4.5q1 -3 2 -5h1q0 1 1 4q2 6 4 10q29 67 57 135q24 58 52 125.5t51 125.5h33z" />
    <glyph glyph-name="uni24B2" unicode="&#x24b2;" horiz-adv-x="1000" 
d="M523 570q17 -58 39 -125.5t41 -125.5q22 -68 45 -135q1 -3 1 -6t1 -5q0 -3 1 -4h1q0 2 1 5q1 2 1.5 5t1.5 5q20 70 39 139q17 59 35 125.5t32 121.5h33q-34 -112 -65 -222t-66 -217h-21q-12 27 -29.5 77t-36.5 108t-37.5 117t-33.5 104q-1 5 -1.5 8.5t-1.5 7.5h-2
q-1 -7 -4 -16q-14 -45 -33 -104t-38 -117t-36 -108t-29 -77h-21q-35 107 -66 217t-65 222h33q14 -55 32 -121.5t35 -125.5q19 -69 39 -139q2 -10 4 -14q0 5 4 14q23 67 45 135q19 58 40.5 125.5t39.5 125.5h42zM189 -42q-55 91 -92 189t-37 211q0 57 10 109.5t27 101.5
t41 96t51 93h35q-23 -46 -45 -94.5t-39 -98.5q-17 -51 -27 -103t-10 -104q0 -53 10 -105t27 -102q16 -50 38 -98.5t46 -94.5h-35zM778 -42q24 46 46 94.5t39 98.5q16 50 26 102t10 105q0 52 -10 104t-27 103q-17 50 -39 98.5t-45 94.5h35q27 -46 51 -93t41 -96t27 -101.5
t10 -109.5q0 -113 -37 -211t-92 -189h-35z" />
    <glyph glyph-name="uni24B3" unicode="&#x24b3;" horiz-adv-x="1000" 
d="M189 -42q-55 91 -92 189t-37 211q0 57 10 109.5t27 101.5t41 96t51 93h35q-23 -46 -45 -94.5t-39 -98.5q-17 -51 -27 -103t-10 -104q0 -53 10 -105t27 -102q16 -50 38 -98.5t46 -94.5h-35zM778 -42q24 46 46 94.5t39 98.5q16 50 26 102t10 105q0 52 -10 104t-27 103
q-17 50 -39 98.5t-45 94.5h35q27 -46 51 -93t41 -96t27 -101.5t10 -109.5q0 -113 -37 -211t-92 -189h-35zM317 132q19 26 42 58t45 64q22 31 41.5 60t33.5 50q-28 40 -49 69.5t-37 53.5q-17 24 -31 43.5t-27 39.5h37q17 -29 40 -63t43 -63l48 -68q33 45 64 90.5t66 103.5h36
l-145 -209q36 -54 77.5 -113t84.5 -116h-37l-150 215q-35 -54 -73 -107t-74 -108h-35z" />
    <glyph glyph-name="uni24B4" unicode="&#x24b4;" horiz-adv-x="1000" 
d="M189 -42q-55 91 -92 189t-37 211q0 57 10 109.5t27 101.5t41 96t51 93h35q-23 -46 -45 -94.5t-39 -98.5q-17 -51 -27 -103t-10 -104q0 -53 10 -105t27 -102q16 -50 38 -98.5t46 -94.5h-35zM778 -42q24 46 46 94.5t39 98.5q16 50 26 102t10 105q0 52 -10 104t-27 103
q-17 50 -39 98.5t-45 94.5h35q27 -46 51 -93t41 -96t27 -101.5t10 -109.5q0 -113 -37 -211t-92 -189h-35zM367 41q-9 0 -18.5 1t-17.5 3l3 26q12 -3 24 -3q33 0 57 13t40 32q15 19 24 41t14 39q-21 57 -43 110.5t-43 105.5q-22 52 -43 104t-42 107h36l146 -384q2 -5 4 -13
q1 -4 2 -6h3q0 2 1 6q2 8 4 13q15 39 33.5 89t37.5 103q19 52 37.5 102t33.5 90h36l-163 -411q-12 -31 -27.5 -61t-35.5 -54t-45 -38.5t-58 -14.5z" />
    <glyph glyph-name="uni24B5" unicode="&#x24b5;" horiz-adv-x="1000" 
d="M189 -42q-55 91 -92 189t-37 211q0 57 10 109.5t27 101.5t41 96t51 93h35q-23 -46 -45 -94.5t-39 -98.5q-17 -51 -27 -103t-10 -104q0 -53 10 -105t27 -102q16 -50 38 -98.5t46 -94.5h-35zM778 -42q24 46 46 94.5t39 98.5q16 50 26 102t10 105q0 52 -10 104t-27 103
q-17 50 -39 98.5t-45 94.5h35q27 -46 51 -93t41 -96t27 -101.5t10 -109.5q0 -113 -37 -211t-92 -189h-35zM359 166l-5 -5l-2 -2h270h26.5t25.5 2v-31q-11 2 -22 2h-25h-249q-14 0 -26.5 0.5t-25.5 -0.5v41l302 364q1 1 1.5 2t1.5 2l2 2h-241h-24.5t-22.5 -2v30
q12 0 24.5 -0.5t26.5 -0.5h263v-42z" />
    <glyph glyph-name="uni24D0" unicode="&#x24d0;" horiz-adv-x="1000" 
d="M63 358q0 90 34 169.5t94 139.5q59 59 138.5 93t170.5 34t170.5 -34t138.5 -93q59 -60 93 -139.5t34 -169.5t-34 -170t-93 -139t-138.5 -93.5t-170.5 -34.5t-170.5 34.5t-138.5 93.5q-60 59 -94 139t-34 170zM92 358q0 -84 32.5 -158t88.5 -129q55 -56 129 -88.5
t158 -32.5t158 32.5t130 88.5q55 55 87.5 129t32.5 158t-32.5 158t-87.5 130q-56 55 -130 87.5t-158 32.5t-158 -32.5t-129 -87.5q-56 -56 -88.5 -130t-32.5 -158zM357 546q31 17 69.5 27.5t75.5 10.5q93 0 132.5 -44t39.5 -132v-211q0 -26 1 -38t2 -23h-30l-1 101
q-9 -20 -24 -39.5t-37 -35.5q-22 -17 -51.5 -27t-67.5 -10q-70 0 -112.5 30t-42.5 98q0 39 20.5 65t50.5 43q30 16 65.5 23t65.5 7h40t42 -1q23 -1 45 -1q-2 81 -36.5 125t-114.5 44q-29 0 -64.5 -9t-65.5 -25zM640 364q-7 0 -19 0.5t-25 1.5q-14 0 -26 0.5t-19 0.5
q-21 0 -55 -3t-67 -14t-56.5 -34t-23.5 -63q0 -24 11.5 -43t29.5 -32t39.5 -19.5t41.5 -6.5q43 0 74.5 15.5t52.5 38.5q21 22 31.5 48t10.5 47v63z" />
    <glyph glyph-name="uni24D1" unicode="&#x24d1;" horiz-adv-x="1000" 
d="M63 358q0 90 34 169.5t94 139.5q59 59 138.5 93t170.5 34t170.5 -34t138.5 -93q59 -60 93 -139.5t34 -169.5t-34 -170t-93 -139t-138.5 -93.5t-170.5 -34.5t-170.5 34.5t-138.5 93.5q-60 59 -94 139t-34 170zM92 358q0 -84 32.5 -158t88.5 -129q55 -56 129 -88.5
t158 -32.5t158 32.5t130 88.5q55 55 87.5 129t32.5 158t-32.5 158t-87.5 130q-56 55 -130 87.5t-158 32.5t-158 -32.5t-129 -87.5q-56 -56 -88.5 -130t-32.5 -158zM371 159v-34v-28.5t1 -33.5h-35q1 18 1 36.5v38.5v494v37t-1 37h36q-1 -24 -0.5 -37.5t0.5 -36.5v-205l4 -3
q32 42 72.5 64.5t94.5 22.5q52 0 89.5 -18t61.5 -48q24 -31 35.5 -71.5t11.5 -84.5q0 -45 -10.5 -88t-33.5 -76q-24 -34 -61.5 -54t-92.5 -20q-30 0 -56.5 9t-47.5 24q-22 15 -39 34.5t-27 40.5h-3zM705 284q0 37 -9 73t-28 65q-20 28 -50.5 45t-73.5 17q-41 0 -73 -17.5
t-53 -45.5q-22 -29 -33 -65t-11 -74q0 -34 10 -70t31 -66q20 -30 52 -49t77 -19q43 0 73.5 18t50.5 47q19 29 28 66t9 75z" />
    <glyph glyph-name="uni24D2" unicode="&#x24d2;" horiz-adv-x="1000" 
d="M63 358q0 90 34 169.5t94 139.5q59 59 138.5 93t170.5 34t170.5 -34t138.5 -93q59 -60 93 -139.5t34 -169.5t-34 -170t-93 -139t-138.5 -93.5t-170.5 -34.5t-170.5 34.5t-138.5 93.5q-60 59 -94 139t-34 170zM92 358q0 -84 32.5 -158t88.5 -129q55 -56 129 -88.5
t158 -32.5t158 32.5t130 88.5q55 55 87.5 129t32.5 158t-32.5 158t-87.5 130q-56 55 -130 87.5t-158 32.5t-158 -32.5t-129 -87.5q-56 -56 -88.5 -130t-32.5 -158zM628 553q-19 6 -37.5 8t-38.5 2q-49 0 -86 -16.5t-62 -44.5t-38 -65t-13 -77t12.5 -77t38.5 -65
q25 -28 63 -44.5t89 -16.5q17 0 38.5 2.5t42.5 10.5q0 -5 0.5 -5t0.5 1v1.5t1 -3.5q2 -6 3 -10.5t2 -9.5q-26 -10 -51.5 -12t-45.5 -2q-51 0 -93.5 17.5t-72.5 48.5q-31 30 -48.5 72t-17.5 92q0 51 17 93.5t48 72.5q30 30 72.5 46.5t94.5 16.5q23 0 46 -2.5t40 -7.5z" />
    <glyph glyph-name="uni24D3" unicode="&#x24d3;" horiz-adv-x="1000" 
d="M63 358q0 90 34 169.5t94 139.5q59 59 138.5 93t170.5 34t170.5 -34t138.5 -93q59 -60 93 -139.5t34 -169.5t-34 -170t-93 -139t-138.5 -93.5t-170.5 -34.5t-170.5 34.5t-138.5 93.5q-60 59 -94 139t-34 170zM92 358q0 -84 32.5 -158t88.5 -129q55 -56 129 -88.5
t158 -32.5t158 32.5t130 88.5q55 55 87.5 129t32.5 158t-32.5 158t-87.5 130q-56 55 -130 87.5t-158 32.5t-158 -32.5t-129 -87.5q-56 -56 -88.5 -130t-32.5 -158zM637 159q-10 -21 -27 -40.5t-38 -34.5q-22 -15 -48.5 -24t-56.5 -9q-55 0 -92.5 20t-60.5 54
q-24 33 -34.5 76t-10.5 88q0 44 11.5 84.5t35.5 71.5q24 30 61.5 48t89.5 18q54 0 94.5 -22.5t72.5 -64.5l4 3v205q0 23 0.5 36.5t-0.5 37.5h36q-1 -17 -1 -37v-37v-494v-38.5t1 -36.5h-35q1 14 1 33.5v28.5v34h-3zM306 284q0 -38 9 -75t29 -66q19 -29 49.5 -47t73.5 -18
q45 0 77 19t53 49q20 30 30 66t10 70q0 38 -11 74t-32 65q-22 28 -54 45.5t-73 17.5q-43 0 -73.5 -17t-49.5 -45q-20 -29 -29 -65t-9 -73z" />
    <glyph glyph-name="uni24D4" unicode="&#x24d4;" horiz-adv-x="1000" 
d="M63 358q0 90 34 169.5t94 139.5q59 59 138.5 93t170.5 34t170.5 -34t138.5 -93q59 -60 93 -139.5t34 -169.5t-34 -170t-93 -139t-138.5 -93.5t-170.5 -34.5t-170.5 34.5t-138.5 93.5q-60 59 -94 139t-34 170zM92 358q0 -84 32.5 -158t88.5 -129q55 -56 129 -88.5
t158 -32.5t158 32.5t130 88.5q55 55 87.5 129t32.5 158t-32.5 158t-87.5 130q-56 55 -130 87.5t-158 32.5t-158 -32.5t-129 -87.5q-56 -56 -88.5 -130t-32.5 -158zM657 152q-13 -5 -26 -9.5t-28 -7.5q-15 -4 -34 -6t-44 -2q-57 0 -100 17t-71 49q-28 31 -42 75t-14 97
q0 49 15 89.5t42 70.5q26 29 63.5 45t82.5 16q48 0 83.5 -16.5t59.5 -45.5q23 -30 35 -71.5t13 -92.5h-355q0 -47 16.5 -85t43.5 -65q26 -27 60.5 -41.5t70.5 -14.5t69.5 8t56.5 19zM654 380q0 36 -11.5 68.5t-31.5 57.5q-21 24 -49.5 39t-62.5 15q-38 0 -68 -16t-51 -41
q-21 -26 -33 -58.5t-13 -64.5h320z" />
    <glyph glyph-name="uni24D5" unicode="&#x24d5;" horiz-adv-x="1000" 
d="M63 358q0 90 34 169.5t94 139.5q59 59 138.5 93t170.5 34t170.5 -34t138.5 -93q59 -60 93 -139.5t34 -169.5t-34 -170t-93 -139t-138.5 -93.5t-170.5 -34.5t-170.5 34.5t-138.5 93.5q-60 59 -94 139t-34 170zM92 358q0 -84 32.5 -158t88.5 -129q55 -56 129 -88.5
t158 -32.5t158 32.5t130 88.5q55 55 87.5 129t32.5 158t-32.5 158t-87.5 130q-56 55 -130 87.5t-158 32.5t-158 -32.5t-129 -87.5q-56 -56 -88.5 -130t-32.5 -158zM395 429q-14 0 -23 -0.5t-23 -1.5v30q14 -2 28.5 -2h22.5h63v58q0 39 5.5 70.5t20.5 53.5q14 21 40 33t68 12
q17 0 31 -3l-1 -27q-2 2 -7 2.5t-10 0.5q-39 0 -62 -9.5t-34 -26.5q-12 -18 -15 -43t-3 -56v-65h79h26t25 2v-30q-12 2 -22.5 2h-23.5h-84v-336q0 -20 0.5 -38t1.5 -37h-37q1 12 1.5 20.5t0.5 16.5v374h-68z" />
    <glyph glyph-name="uni24D6" unicode="&#x24d6;" horiz-adv-x="1000" 
d="M63 358q0 90 34 169.5t94 139.5q59 59 138.5 93t170.5 34t170.5 -34t138.5 -93q59 -60 93 -139.5t34 -169.5t-34 -170t-93 -139t-138.5 -93.5t-170.5 -34.5t-170.5 34.5t-138.5 93.5q-60 59 -94 139t-34 170zM92 358q0 -84 32.5 -158t88.5 -129q55 -56 129 -88.5
t158 -32.5t158 32.5t130 88.5q55 55 87.5 129t32.5 158t-32.5 158t-87.5 130q-56 55 -130 87.5t-158 32.5t-158 -32.5t-129 -87.5q-56 -56 -88.5 -130t-32.5 -158zM693 244q0 -94 -55.5 -144t-168.5 -50q-32 0 -65 4.5t-80 20.5q2 8 3.5 15.5t3.5 15.5q37 -15 70.5 -22
t77.5 -7q82 0 130.5 44.5t48.5 132.5v80l-2 2q-10 -19 -25 -36.5t-35 -30.5q-21 -14 -47.5 -22t-58.5 -8q-51 0 -89 15.5t-63 42.5t-37.5 63t-12.5 77q0 45 12.5 84t37.5 68q25 28 63 44.5t89 16.5q31 0 57 -9.5t47 -24.5q21 -16 37 -35.5t26 -40.5l3 3v58q0 12 -0.5 19.5
t-1.5 17.5h36q-1 -23 -1 -36.5v-38.5v-319zM325 442q0 -39 10 -71t31 -55q20 -24 51 -37t73 -13q84 0 125.5 49t41.5 127q0 34 -10.5 67t-31.5 58t-52 40.5t-73 15.5t-73.5 -14t-51.5 -38q-20 -25 -30 -58t-10 -71z" />
    <glyph glyph-name="uni24D7" unicode="&#x24d7;" horiz-adv-x="1000" 
d="M63 358q0 90 34 169.5t94 139.5q59 59 138.5 93t170.5 34t170.5 -34t138.5 -93q59 -60 93 -139.5t34 -169.5t-34 -170t-93 -139t-138.5 -93.5t-170.5 -34.5t-170.5 34.5t-138.5 93.5q-60 59 -94 139t-34 170zM92 358q0 -84 32.5 -158t88.5 -129q55 -56 129 -88.5
t158 -32.5t158 32.5t130 88.5q55 55 87.5 129t32.5 158t-32.5 158t-87.5 130q-56 55 -130 87.5t-158 32.5t-158 -32.5t-129 -87.5q-56 -56 -88.5 -130t-32.5 -158zM374 408q11 19 26 37.5t36 33.5q21 14 47.5 23t61.5 9q87 0 125 -49t38 -135v-189q0 -20 0.5 -38t1.5 -37
h-38q1 12 1.5 20.5t0.5 16.5v190q0 97 -28 143.5t-101 51.5q-42 0 -74 -16.5t-54 -45.5q-23 -29 -34.5 -70t-11.5 -89v-126q0 -20 0.5 -38t1.5 -37h-38q1 12 1.5 20.5t0.5 16.5v532q0 18 -0.5 37.5t-1.5 37.5h38q-2 -24 -2 -38v-37v-221z" />
    <glyph glyph-name="uni24D8" unicode="&#x24d8;" horiz-adv-x="1000" 
d="M63 358q0 90 34 169.5t94 139.5q59 59 138.5 93t170.5 34t170.5 -34t138.5 -93q59 -60 93 -139.5t34 -169.5t-34 -170t-93 -139t-138.5 -93.5t-170.5 -34.5t-170.5 34.5t-138.5 93.5q-60 59 -94 139t-34 170zM92 358q0 -84 32.5 -158t88.5 -129q55 -56 129 -88.5
t158 -32.5t158 32.5t130 88.5q55 55 87.5 129t32.5 158t-32.5 158t-87.5 130q-56 55 -130 87.5t-158 32.5t-158 -32.5t-129 -87.5q-56 -56 -88.5 -130t-32.5 -158zM523 622h-46v57h46v-57zM518 126q0 -20 0.5 -38t1.5 -37h-40q1 12 1.5 20.5t0.5 16.5v325q0 18 -0.5 37.5
t-1.5 37.5h40q-2 -24 -2 -37.5v-37.5v-287z" />
    <glyph glyph-name="uni24D9" unicode="&#x24d9;" horiz-adv-x="1000" 
d="M63 358q0 90 34 169.5t94 139.5q59 59 138.5 93t170.5 34t170.5 -34t138.5 -93q59 -60 93 -139.5t34 -169.5t-34 -170t-93 -139t-138.5 -93.5t-170.5 -34.5t-170.5 34.5t-138.5 93.5q-60 59 -94 139t-34 170zM92 358q0 -84 32.5 -158t88.5 -129q55 -56 129 -88.5
t158 -32.5t158 32.5t130 88.5q55 55 87.5 129t32.5 158t-32.5 158t-87.5 130q-56 55 -130 87.5t-158 32.5t-158 -32.5t-129 -87.5q-56 -56 -88.5 -130t-32.5 -158zM543 170q0 -24 -2 -53t-12 -55q-11 -26 -33.5 -43.5t-62.5 -17.5h-12q-12 0 -19 3l4 31q2 -2 6 -2.5t6 -0.5
q49 0 70 30.5t21 94.5v268q0 18 -0.5 38t-1.5 37h38q-2 -24 -2 -37.5v-37.5v-255zM550 624h-48v57h48v-57z" />
    <glyph glyph-name="uni24DA" unicode="&#x24da;" horiz-adv-x="1000" 
d="M63 358q0 90 34 169.5t94 139.5q59 59 138.5 93t170.5 34t170.5 -34t138.5 -93q59 -60 93 -139.5t34 -169.5t-34 -170t-93 -139t-138.5 -93.5t-170.5 -34.5t-170.5 34.5t-138.5 93.5q-60 59 -94 139t-34 170zM92 358q0 -84 32.5 -158t88.5 -129q55 -56 129 -88.5
t158 -32.5t158 32.5t130 88.5q55 55 87.5 129t32.5 158t-32.5 158t-87.5 130q-56 55 -130 87.5t-158 32.5t-158 -32.5t-129 -87.5q-56 -56 -88.5 -130t-32.5 -158zM390 302q70 50 132 100.5t107 86.5h45q-42 -35 -85 -69q-37 -29 -81.5 -63t-85.5 -62q57 -54 124 -117
t152 -126h-47q-39 33 -69.5 59.5t-58.5 52.5q-29 26 -60 54.5t-73 66.5v-158q0 -20 0.5 -38t1.5 -37h-38q1 12 1.5 20.5t0.5 16.5v542q0 18 -0.5 37.5t-1.5 37.5h38q-2 -24 -2 -38v-37v-329z" />
    <glyph glyph-name="uni24DB" unicode="&#x24db;" horiz-adv-x="1000" 
d="M63 358q0 90 34 169.5t94 139.5q59 59 138.5 93t170.5 34t170.5 -34t138.5 -93q59 -60 93 -139.5t34 -169.5t-34 -170t-93 -139t-138.5 -93.5t-170.5 -34.5t-170.5 34.5t-138.5 93.5q-60 59 -94 139t-34 170zM92 358q0 -84 32.5 -158t88.5 -129q55 -56 129 -88.5
t158 -32.5t158 32.5t130 88.5q55 55 87.5 129t32.5 158t-32.5 158t-87.5 130q-56 55 -130 87.5t-158 32.5t-158 -32.5t-129 -87.5q-56 -56 -88.5 -130t-32.5 -158zM519 111q0 -20 0.5 -38t1.5 -37h-38q1 12 1.5 20.5t0.5 16.5v532q0 18 -0.5 37.5t-1.5 37.5h37
q-2 -24 -1.5 -38t0.5 -37v-494z" />
    <glyph glyph-name="uni24DC" unicode="&#x24dc;" horiz-adv-x="1000" 
d="M63 358q0 90 34 169.5t94 139.5q59 59 138.5 93t170.5 34t170.5 -34t138.5 -93q59 -60 93 -139.5t34 -169.5t-34 -170t-93 -139t-138.5 -93.5t-170.5 -34.5t-170.5 34.5t-138.5 93.5q-60 59 -94 139t-34 170zM92 358q0 -84 32.5 -158t88.5 -129q55 -56 129 -88.5
t158 -32.5t158 32.5t130 88.5q55 55 87.5 129t32.5 158t-32.5 158t-87.5 130q-56 55 -130 87.5t-158 32.5t-158 -32.5t-129 -87.5q-56 -56 -88.5 -130t-32.5 -158zM742 405q0 25 -3 52t-12 50q-9 22 -26.5 37t-46.5 17q-36 0 -60.5 -16t-40.5 -42t-24 -60t-9 -70v-158
q0 -20 0.5 -38.5t1.5 -36.5h-34q2 24 2 44v31v190q0 26 -3 54t-13 51q-10 22 -28 36.5t-49 14.5q-34 0 -58 -16.5t-39 -43.5q-16 -27 -23.5 -62.5t-8.5 -72.5v-151q0 -20 0.5 -38.5t1.5 -36.5h-34q1 12 1.5 20.5t0.5 16.5v325q0 17 -0.5 37t-1.5 38h34q-1 -5 -1 -11
q-1 -5 -1 -11.5v-14.5v-48l3 -2q7 15 19 32.5t30 33.5q17 15 41.5 24.5t56.5 7.5t59 -30.5t39 -82.5q6 20 17 40t29 36q17 16 41.5 26.5t58.5 10.5q30 0 51 -12.5t34 -34.5t19 -51.5t6 -63.5v-211v-38.5t1 -36.5h-32q2 24 1.5 44t-0.5 31v190z" />
    <glyph glyph-name="uni24DD" unicode="&#x24dd;" horiz-adv-x="1000" 
d="M63 358q0 90 34 169.5t94 139.5q59 59 138.5 93t170.5 34t170.5 -34t138.5 -93q59 -60 93 -139.5t34 -169.5t-34 -170t-93 -139t-138.5 -93.5t-170.5 -34.5t-170.5 34.5t-138.5 93.5q-60 59 -94 139t-34 170zM92 358q0 -84 32.5 -158t88.5 -129q55 -56 129 -88.5
t158 -32.5t158 32.5t130 88.5q55 55 87.5 129t32.5 158t-32.5 158t-87.5 130q-56 55 -130 87.5t-158 32.5t-158 -32.5t-129 -87.5q-56 -56 -88.5 -130t-32.5 -158zM359 473q10 15 24 34.5t35 36.5t51 29t71 12q80 0 116.5 -48.5t36.5 -135.5v-189q0 -20 0.5 -38.5t1.5 -36.5
h-38q1 12 1.5 20t0.5 16v191q0 97 -28 143.5t-102 50.5q-41 0 -73.5 -16.5t-54.5 -45.5t-33.5 -69.5t-11.5 -88.5v-126q0 -20 0.5 -38.5t1.5 -36.5h-38q1 12 1.5 20t0.5 16v326q0 17 -0.5 37t-2.5 37h39q-1 -6 -1 -17q-1 -9 -1 -22.5v-33.5v-25z" />
    <glyph glyph-name="uni24DE" unicode="&#x24de;" horiz-adv-x="1000" 
d="M63 358q0 90 34 169.5t94 139.5q59 59 138.5 93t170.5 34t170.5 -34t138.5 -93q59 -60 93 -139.5t34 -169.5t-34 -170t-93 -139t-138.5 -93.5t-170.5 -34.5t-170.5 34.5t-138.5 93.5q-60 59 -94 139t-34 170zM92 358q0 -84 32.5 -158t88.5 -129q55 -56 129 -88.5
t158 -32.5t158 32.5t130 88.5q55 55 87.5 129t32.5 158t-32.5 158t-87.5 130q-56 55 -130 87.5t-158 32.5t-158 -32.5t-129 -87.5q-56 -56 -88.5 -130t-32.5 -158zM287 360q0 50 15.5 92t43.5 73q27 30 66 47t87 17t86.5 -17t66.5 -47q28 -31 43 -73t15 -92
q0 -48 -15.5 -89.5t-42.5 -72.5q-28 -32 -67 -50t-86 -18t-86 18t-67 50q-28 31 -43.5 72.5t-15.5 89.5zM325 360q0 -36 9.5 -72.5t30.5 -65.5t54 -47t80 -18q45 0 78 18t55 47q21 29 31 65.5t10 72.5q0 39 -11.5 75.5t-33.5 65.5q-22 28 -54.5 45t-74.5 17t-74.5 -17
t-54.5 -45q-22 -29 -33.5 -65.5t-11.5 -75.5z" />
    <glyph glyph-name="uni24DF" unicode="&#x24df;" horiz-adv-x="1000" 
d="M63 358q0 90 34 169.5t94 139.5q59 59 138.5 93t170.5 34t170.5 -34t138.5 -93q59 -60 93 -139.5t34 -169.5t-34 -170t-93 -139t-138.5 -93.5t-170.5 -34.5t-170.5 34.5t-138.5 93.5q-60 59 -94 139t-34 170zM92 358q0 -84 32.5 -158t88.5 -129q55 -56 129 -88.5
t158 -32.5t158 32.5t130 88.5q55 55 87.5 129t32.5 158t-32.5 158t-87.5 130q-56 55 -130 87.5t-158 32.5t-158 -32.5t-129 -87.5q-56 -56 -88.5 -130t-32.5 -158zM368 622q-1 -6 -1.5 -23t-0.5 -32v-37l4 -5q6 11 19.5 30t36.5 37q22 17 54.5 29.5t76.5 10.5
q48 -2 82.5 -20.5t56.5 -48.5q21 -31 31.5 -71.5t10.5 -86.5q0 -41 -12 -79t-35 -68t-57 -48t-77 -18q-47 0 -78.5 11t-51.5 28q-21 17 -34 36t-23 36l-2 -2v-183q0 -19 0.5 -38t1.5 -37h-38q0 12 0.5 21t0.5 17v466v41t-2 34h37zM701 411q0 38 -9.5 73t-28.5 62
q-20 27 -50.5 43.5t-73.5 16.5q-44 0 -76 -17t-53 -45t-31 -62.5t-10 -68.5q0 -39 11 -74t33 -62q21 -27 53 -43t73 -16q42 0 72.5 16t50.5 43q20 26 29.5 61t9.5 73z" />
    <glyph glyph-name="uni24E0" unicode="&#x24e0;" horiz-adv-x="1000" 
d="M63 358q0 90 34 169.5t94 139.5q59 59 138.5 93t170.5 34t170.5 -34t138.5 -93q59 -60 93 -139.5t34 -169.5t-34 -170t-93 -139t-138.5 -93.5t-170.5 -34.5t-170.5 34.5t-138.5 93.5q-60 59 -94 139t-34 170zM92 358q0 -84 32.5 -158t88.5 -129q55 -56 129 -88.5
t158 -32.5t158 32.5t130 88.5q55 55 87.5 129t32.5 158t-32.5 158t-87.5 130q-56 55 -130 87.5t-158 32.5t-158 -32.5t-129 -87.5q-56 -56 -88.5 -130t-32.5 -158zM679 622q-2 -18 -2 -34v-41v-466q0 -8 0.5 -17t0.5 -21h-38q1 18 1.5 37t0.5 38v183l-2 2q-11 -17 -23.5 -36
t-32.5 -36q-21 -17 -52.5 -28t-78.5 -11q-44 0 -77.5 18t-56.5 48t-35 68t-12 79q0 46 10.5 86.5t32.5 71.5q21 30 55.5 48.5t82.5 20.5q44 2 76.5 -10.5t55.5 -29.5q22 -18 35.5 -37t19.5 -30l4 5v37q0 15 -0.5 32t-1.5 23h37zM309 411q0 -38 9.5 -73t29.5 -61
q20 -27 50.5 -43t72.5 -16q41 0 73 16t54 43q21 27 32 62t11 74q0 34 -10 68.5t-31 62.5t-53 45t-76 17q-43 0 -73.5 -16.5t-49.5 -43.5q-20 -27 -29.5 -62t-9.5 -73z" />
    </font>
</defs>
</svg>
